<svg xmlns="http://www.w3.org/2000/svg" width="260" height="78.834" viewBox="0 0 260 78.834">
  <g id="En_Logo_White-01" transform="translate(-0.12 -1.23)">
    <path id="Path_890" data-name="Path 890" d="M89.794,94.533A5.754,5.754,0,0,1,83.522,93.1a5.423,5.423,0,0,1-1.494-3.826V72.515a5.9,5.9,0,0,0-1.773-4.29,5.43,5.43,0,0,0-3.8-1.535,5.65,5.65,0,0,0-4.064,1.654,5.44,5.44,0,0,0-1.648,3.993V89.272a16.329,16.329,0,0,0,4.951,11.985,16.049,16.049,0,0,0,11.985,4.951,18.533,18.533,0,0,0,6.736-1.3,5.449,5.449,0,0,0,1.41-9.176c-.149-.125-.292-.25-.44-.375A5.446,5.446,0,0,0,89.794,94.533Z" transform="translate(-28.597 -26.507)" fill="#5f2d79"/>
    <path id="Path_891" data-name="Path 891" d="M70.686,48.467a5.641,5.641,0,1,1,11.282,0h2.821a5.641,5.641,0,1,1,0,11.282H81.968V79.613a5.648,5.648,0,0,0,5.647,5.647,5.535,5.535,0,0,0,4.011-1.636l1.892-2.345A5.356,5.356,0,0,1,97.5,79.613a5.668,5.668,0,0,1,4.314,9.313,19.268,19.268,0,0,1-2.2,2.684A17.01,17.01,0,0,1,75.631,91.6,16.319,16.319,0,0,1,70.68,79.613V48.467Z" transform="translate(-28.573 -16.841)" fill="#5f2d79"/>
    <path id="Path_892" data-name="Path 892" d="M99.672,101.273a17.01,17.01,0,0,1-23.981-.012A16.319,16.319,0,0,1,70.74,89.277V72.341a5.641,5.641,0,1,1,11.282,0V89.277a5.647,5.647,0,0,0,11.294,0V75.293a5.641,5.641,0,1,1,11.282,0V89.277A16.254,16.254,0,0,1,99.672,101.273Z" transform="translate(-28.597 -26.511)" fill="#5f2d79"/>
    <path id="Path_893" data-name="Path 893" d="M81.982,63.05V59.759H84.8a5.641,5.641,0,1,0,0-11.282H81.982a5.641,5.641,0,1,0-11.282,0V63.55C71.42,63.4,81.268,63.128,81.982,63.05Z" transform="translate(-28.581 -16.846)" fill="#5f2d79"/>
    <path id="Path_894" data-name="Path 894" d="M194.482,103.179a16.947,16.947,0,0,1-28.932-12V76.461a5.641,5.641,0,1,1,11.282,0V91.183a5.647,5.647,0,0,0,11.294,0V84.81c0-1.559.547-6.07,1.648-7.17a5.641,5.641,0,0,1,9.634,3.993v9.557A16.25,16.25,0,0,1,194.482,103.179Z" transform="translate(-66.989 -28.18)" fill="#5f2d79"/>
    <path id="Path_895" data-name="Path 895" d="M182.481,100.729a5.442,5.442,0,0,0-2.874-4.713,5.22,5.22,0,0,1-1.119-.845,5.455,5.455,0,0,1-1.654-3.993V76.635a5.9,5.9,0,0,0-1.773-4.29,5.43,5.43,0,0,0-3.8-1.535,5.663,5.663,0,0,0-4.07,1.654,5.44,5.44,0,0,0-1.648,3.993V91.179a16.329,16.329,0,0,0,4.951,11.985,17.488,17.488,0,0,0,3.868,2.946,5.525,5.525,0,0,0,8.111-4.921v-.458Z" transform="translate(-66.985 -28.175)" fill="#5f2d79"/>
    <path id="Path_896" data-name="Path 896" d="M290.307,62.219a16.947,16.947,0,0,1,28.932,12v8.813a5.641,5.641,0,1,1-11.282,0V74.215a5.647,5.647,0,0,0-11.294,0V97.054a5.641,5.641,0,1,1-11.282,0V74.215A16.231,16.231,0,0,1,290.307,62.219Z" transform="translate(-115.513 -22.697)" fill="#5f2d79"/>
    <path id="Path_897" data-name="Path 897" d="M302.879,65.973a5.618,5.618,0,0,0-7.766-6.421,17.021,17.021,0,0,0-4.814,3.374,16.237,16.237,0,0,0-4.939,12v22.66a5.918,5.918,0,0,0,1.767,4.29,5.43,5.43,0,0,0,3.8,1.535,5.664,5.664,0,0,0,4.07-1.654,5.44,5.44,0,0,0,1.648-3.993V74.923a5.31,5.31,0,0,1,3.225-5.064,5.5,5.5,0,0,0,2.981-3.773C302.861,66.051,302.873,66.009,302.879,65.973Z" transform="translate(-115.505 -23.405)" fill="#5f2d79"/>
    <path id="Path_898" data-name="Path 898" d="M352.2,105.314a16.947,16.947,0,0,1-28.932-12V82.291a5.641,5.641,0,1,1,11.282,0V93.324a5.647,5.647,0,0,0,11.294,0V89.676a5.641,5.641,0,1,1,11.282,0v3.648A16.25,16.25,0,0,1,352.2,105.314Z" transform="translate(-130.856 -30.541)" fill="#5f2d79"/>
    <path id="Path_899" data-name="Path 899" d="M268.79,68.99l.012.03A.153.153,0,0,0,268.79,68.99Z" transform="translate(-108.795 -27.439)" fill="#5f2d79"/>
    <circle id="Ellipse_281" data-name="Ellipse 281" cx="6.855" cy="6.855" r="6.855" transform="translate(179.929 1.23)" fill="#5f2d79"/>
    <path id="Path_900" data-name="Path 900" d="M99.2,100.329a5.442,5.442,0,0,1,2.874-4.713,5.221,5.221,0,0,0,1.119-.845,5.455,5.455,0,0,0,1.654-3.993V76.235a5.9,5.9,0,0,1,1.773-4.29,5.43,5.43,0,0,1,3.8-1.535,5.664,5.664,0,0,1,4.07,1.654,5.44,5.44,0,0,1,1.648,3.993V90.779a16.329,16.329,0,0,1-4.951,11.984,17.488,17.488,0,0,1-3.868,2.946,5.525,5.525,0,0,1-8.111-4.921v-.458Z" transform="translate(-40.121 -28.013)" fill="#5f2d79"/>
    <path id="Path_901" data-name="Path 901" d="M153.843,85.986a5.647,5.647,0,0,1-11.294,0V71.395a2.821,2.821,0,0,0-5.641,0V91.151a5.647,5.647,0,0,1-11.294,0V71.395a2.821,2.821,0,0,0-5.641,0V85.986a5.641,5.641,0,1,1-11.282,0V71.395a14.14,14.14,0,0,1,22.583-11.318,14.133,14.133,0,0,1,22.583,11.318V85.986Z" transform="translate(-43.964 -22.697)" fill="#5f2d79"/>
    <path id="Path_902" data-name="Path 902" d="M153.843,76.387a5.647,5.647,0,0,1-11.294,0V71.395a2.821,2.821,0,0,0-5.641,0v4.993a5.647,5.647,0,0,1-11.294,0V71.395a2.821,2.821,0,0,0-5.641,0v4.993a5.641,5.641,0,1,1-11.282,0V71.395a14.14,14.14,0,0,1,22.583-11.318,14.133,14.133,0,0,1,22.583,11.318v4.993Z" transform="translate(-43.964 -22.697)" fill="#5f2d79"/>
    <circle id="Ellipse_282" data-name="Ellipse 282" cx="6.855" cy="6.855" r="6.855" transform="translate(57.371 1.319)" fill="#5f2d79"/>
    <circle id="Ellipse_283" data-name="Ellipse 283" cx="6.855" cy="6.855" r="6.855" transform="translate(41.376 1.319)" fill="#5f2d79"/>
    <g id="Group_1621" data-name="Group 1621" transform="translate(0.12 34.601)">
      <g id="Group_1619" data-name="Group 1619" transform="translate(0.006)">
        <path id="Path_903" data-name="Path 903" d="M.13,83.754v-7.89A17.192,17.192,0,0,1,6.069,62.785,20.46,20.46,0,0,1,20.445,57.31a19.615,19.615,0,0,1,13.5,4.987,16.056,16.056,0,0,1,5.611,12.532,12.678,12.678,0,0,1-.7,4.546A4.512,4.512,0,0,1,36.72,81.9a8.763,8.763,0,0,1-2.642.916A21.4,21.4,0,0,1,30.924,83H12.1v1.392a7.969,7.969,0,0,0,2.969,6.45A11.94,11.94,0,0,0,22.951,93.3a15.1,15.1,0,0,0,6.956-1.761c2.285-1.172,3.773-1.761,4.451-1.761a3.878,3.878,0,0,1,3.249,1.809,6.044,6.044,0,0,1,1.3,3.481q0,2.6-4.683,5.147a24.09,24.09,0,0,1-11.639,2.553q-9.926,0-16.186-5.242A17.064,17.064,0,0,1,.13,83.754Zm11.967-7.8H25.64a3.48,3.48,0,0,0,2.089-.476,2.3,2.3,0,0,0,.6-1.863,6.05,6.05,0,0,0-2.362-4.939,8.963,8.963,0,0,0-5.8-1.9,9.011,9.011,0,0,0-5.659,1.863,5.88,5.88,0,0,0-2.41,4.9v2.422Z" transform="translate(-0.13 -57.31)" fill="#5f2d79"/>
      </g>
      <g id="Group_1620" data-name="Group 1620" transform="translate(0 18.167)">
        <path id="Path_904" data-name="Path 904" d="M34.354,102.145q-1.026,0-4.451,1.761a15.046,15.046,0,0,1-6.956,1.761,11.973,11.973,0,0,1-7.885-2.458,7.953,7.953,0,0,1-2.969-6.45V93.826A5.987,5.987,0,0,0,6.106,87.84h0A5.987,5.987,0,0,0,.12,93.826v2.291a17.1,17.1,0,0,0,6.26,13.776q6.266,5.24,16.186,5.243a24.057,24.057,0,0,0,11.639-2.553q4.686-2.553,4.683-5.147a6.044,6.044,0,0,0-1.3-3.481A3.836,3.836,0,0,0,34.354,102.145Z" transform="translate(-0.12 -87.84)" fill="#5f2d79"/>
      </g>
    </g>
    <path id="Path_905" data-name="Path 905" d="M82.008,62.476a5.32,5.32,0,0,1-1.636,3.9,5.762,5.762,0,0,1-8.045,0,5.33,5.33,0,0,1-1.636-3.9V41.494a5.33,5.33,0,0,1,1.636-3.9,5.762,5.762,0,0,1,8.045,0,5.33,5.33,0,0,1,1.636,3.9Z" transform="translate(-28.577 -14.064)" fill="#5f2d79"/>
    <path id="Path_906" data-name="Path 906" d="M314.442,82.294l-.012-.024Z" transform="translate(-127.277 -32.816)" fill="#5f2d79"/>
    <g id="Group_1622" data-name="Group 1622" transform="translate(214.961 34.658)">
      <path id="Path_907" data-name="Path 907" d="M392.014,61.746l.583.976,4.891,2.868,4.338.417c-2.357-3.35-7.206-5.963-7.206-5.963h0c-.428-.25-.762-.417-.934-.494-16.334-7.051-32.865,4.159-32.52,20.857.214,10.425,7.635,19.589,16.811,21.333h0c-.143-.107-.286-.22-.422-.333l-.006-.006c-.137-.113-.262-.226-.393-.339-.006,0-.006-.006-.012-.012-.125-.113-.25-.232-.363-.351-.006-.006-.006-.012-.012-.012-.113-.119-.226-.238-.333-.357-.006-.012-.018-.018-.024-.03-.1-.119-.2-.232-.292-.357a.127.127,0,0,1-.024-.036c-.089-.119-.179-.238-.262-.363l-.036-.054c-.077-.119-.155-.238-.226-.357a.443.443,0,0,0-.042-.071,3.925,3.925,0,0,1-.184-.351.658.658,0,0,1-.042-.1c-.053-.113-.1-.226-.149-.345-.018-.042-.03-.083-.042-.119-.042-.113-.077-.22-.113-.333l-.036-.143c-.03-.107-.06-.22-.083-.333a1.613,1.613,0,0,1-.024-.167l-.054-.321c-.006-.065-.012-.137-.012-.2-.006-.1-.018-.2-.024-.3,0-.083,0-.173.006-.256s0-.173.006-.262c.006-.113.018-.226.03-.345l.018-.2c.024-.184.059-.369.1-.559a6.42,6.42,0,0,1,.4-1.238l3.19,4.011,6.849-1.416L385.04,91.2a11.133,11.133,0,0,1-6.415-1.166c-.137-.071-.268-.143-.4-.22-.107-.06-.208-.119-.315-.179A11.25,11.25,0,0,1,388.2,69.69v-.012a11.39,11.39,0,0,1,4.273,3.243l2.261-.845-3.077-3.535-2.315-3.987-.726.214a6.628,6.628,0,0,1,.357-.619A5.534,5.534,0,0,1,392.014,61.746Z" transform="translate(-361.161 -57.406)" fill="#5f2d79"/>
      <path id="Path_908" data-name="Path 908" d="M415.566,83.266a24.228,24.228,0,0,0-.97-7.724,20.619,20.619,0,0,0-6.147-9.646,7.534,7.534,0,0,0-6.242-1.8,5.846,5.846,0,0,0-3.975,2.713,6.41,6.41,0,0,0-.839,1.857,4.293,4.293,0,0,0-.1.464,6.138,6.138,0,0,0-.1.928v.024a3.422,3.422,0,0,0,1.66,2.987,11.254,11.254,0,0,1-4.552,20.8,11.035,11.035,0,0,1-4.38-.363,4.235,4.235,0,0,0-4.582,1.321,4.7,4.7,0,0,0-.333.488,6.366,6.366,0,0,0-.815,2.077c-.042.19-.071.375-.1.559l-.018.2c-.012.113-.024.232-.03.345-.006.089,0,.173-.006.262s-.006.173-.006.256c.006.1.012.2.024.3.006.065.006.137.012.2a3.046,3.046,0,0,0,.054.321,1.6,1.6,0,0,1,.024.167c.024.113.054.22.083.333l.036.143c.036.113.071.226.113.333a.7.7,0,0,0,.042.119c.048.119.1.232.149.345a.671.671,0,0,0,.042.1c.06.119.119.238.185.351a.451.451,0,0,0,.042.071c.071.119.143.238.226.357l.036.054c.083.125.172.244.262.363a.126.126,0,0,1,.024.036c.1.119.19.238.291.357.006.012.018.018.024.03.107.119.22.238.333.357.006.006.006.012.012.012.119.119.238.238.363.351l.012.012q.188.17.393.339l.006.006c.065.059.143.113.208.167h-.006a.509.509,0,0,0,.059.048c.054.042.1.083.155.125h0a1.506,1.506,0,0,0,.208.054,13.2,13.2,0,0,0,3.011.631q.607.08,1.214.125l.2.018v-.006a22.537,22.537,0,0,0,10.473-1.922,1.892,1.892,0,0,1,2.44.274,6.023,6.023,0,0,0,7.069,1,6.262,6.262,0,0,0,3.725-6.093C415.525,93.412,415.542,88.336,415.566,83.266Z" transform="translate(-370.426 -60.068)" fill="#5f2d79"/>
    </g>
    <g id="Group_1623" data-name="Group 1623" transform="translate(121.132 34.735)">
      <path id="Path_909" data-name="Path 909" d="M234.334,61.876l.583.976,4.891,2.868,4.338.417c-2.357-3.35-7.206-5.963-7.206-5.963h0c-.428-.25-.762-.417-.934-.494-16.334-7.051-32.865,4.159-32.52,20.857.214,10.425,7.635,19.589,16.811,21.333h0c-.143-.107-.286-.22-.423-.333l-.006-.006c-.137-.113-.262-.226-.393-.339-.006,0-.006-.006-.012-.012-.125-.113-.25-.232-.363-.351-.006-.006-.006-.012-.012-.012-.113-.119-.226-.238-.333-.357-.006-.012-.018-.018-.024-.03-.1-.119-.2-.232-.292-.357a.125.125,0,0,1-.024-.036c-.089-.119-.178-.238-.262-.363l-.036-.054c-.077-.119-.155-.238-.226-.357a.448.448,0,0,0-.042-.071c-.065-.113-.131-.232-.185-.351a.659.659,0,0,1-.042-.1c-.054-.113-.1-.226-.149-.345-.018-.042-.03-.083-.042-.119-.042-.113-.077-.22-.113-.333l-.036-.143c-.03-.107-.059-.22-.083-.333a1.579,1.579,0,0,1-.024-.167l-.054-.321c-.006-.065-.012-.137-.012-.2-.006-.1-.018-.2-.024-.3,0-.083,0-.173.006-.256s0-.173.006-.262c.006-.113.018-.226.03-.345l.018-.2c.024-.184.059-.369.1-.559a6.414,6.414,0,0,1,.4-1.238l3.19,4.011,6.849-1.416-.321-4.885a11.133,11.133,0,0,1-6.415-1.166c-.137-.071-.268-.143-.4-.22-.107-.059-.208-.119-.315-.178A11.25,11.25,0,0,1,230.52,69.82v-.012a11.39,11.39,0,0,1,4.273,3.243l2.261-.845-3.076-3.535-2.315-3.987-.726.214a6.6,6.6,0,0,1,.357-.619A5.581,5.581,0,0,1,234.334,61.876Z" transform="translate(-203.481 -57.536)" fill="#5f2d79"/>
      <path id="Path_910" data-name="Path 910" d="M257.886,83.4a24.225,24.225,0,0,0-.97-7.724,20.619,20.619,0,0,0-6.147-9.646,7.535,7.535,0,0,0-6.242-1.8,5.847,5.847,0,0,0-3.975,2.713,6.411,6.411,0,0,0-.839,1.857,4.307,4.307,0,0,0-.1.464,6.141,6.141,0,0,0-.1.928v.024a3.421,3.421,0,0,0,1.66,2.987A11.254,11.254,0,0,1,236.625,94a11.036,11.036,0,0,1-4.38-.363,4.235,4.235,0,0,0-4.582,1.321,4.7,4.7,0,0,0-.333.488,6.367,6.367,0,0,0-.815,2.077c-.042.19-.071.375-.1.559l-.018.2c-.012.113-.024.232-.03.345-.006.089,0,.173-.006.262s-.006.173-.006.256c.006.1.012.2.024.3.006.065.006.137.012.2a3.015,3.015,0,0,0,.054.321,1.629,1.629,0,0,1,.024.167c.024.113.054.22.083.333l.036.143c.036.113.071.226.113.333a.7.7,0,0,0,.042.119c.048.119.1.232.149.345a.662.662,0,0,0,.042.1c.06.119.119.238.185.351a.442.442,0,0,0,.042.071c.071.119.143.238.226.357l.036.054c.083.125.173.244.262.363a.123.123,0,0,1,.024.036c.1.119.19.238.292.357.006.012.018.018.024.03.107.119.22.238.333.357.006.006.006.012.012.012.119.119.238.238.363.351l.012.012q.187.17.393.339l.006.006c.065.059.143.113.208.167h-.006a.515.515,0,0,0,.06.048c.054.042.1.083.155.125h0a1.506,1.506,0,0,0,.208.054,13.191,13.191,0,0,0,3.011.631q.607.08,1.214.125l.2.018v-.006a22.537,22.537,0,0,0,10.473-1.922,1.892,1.892,0,0,1,2.44.274,6.023,6.023,0,0,0,7.069,1,6.262,6.262,0,0,0,3.725-6.093C257.845,93.542,257.862,88.466,257.886,83.4Z" transform="translate(-212.746 -60.198)" fill="#5f2d79"/>
    </g>
  </g>
</svg>
