<svg xmlns="http://www.w3.org/2000/svg" xmlns:xlink="http://www.w3.org/1999/xlink" width="952" height="320.847" viewBox="0 0 952 320.847">
  <defs>
    <clipPath id="clip-path">
      <rect width="952" height="320.847" fill="none"/>
    </clipPath>
  </defs>
  <g id="En_Logo_White-01" clip-path="url(#clip-path)">
    <g id="En_Logo_White-01-2" data-name="En_Logo_White-01" transform="translate(-0.12 -1.23)">
      <path id="Path_890" data-name="Path 890" d="M148.288,180.009a23.419,23.419,0,0,1-25.526-5.837,22.07,22.07,0,0,1-6.079-15.573V90.4a24.011,24.011,0,0,0-7.217-17.462A22.1,22.1,0,0,0,93.99,66.691a23,23,0,0,0-16.541,6.733A22.141,22.141,0,0,0,70.74,89.674V158.6q0,28.59,20.15,48.776c13.441,13.441,29.692,20.44,48.776,20.15a75.426,75.426,0,0,0,27.415-5.3c15.282-6.224,18.261-26.616,5.74-37.345-.605-.509-1.187-1.017-1.792-1.526C164.708,177.951,156.014,176.958,148.288,180.009Z" transform="translate(100.411 93.074)" fill="#efeaf1"/>
      <path id="Path_891" data-name="Path 891" d="M70.7,65.8A22.946,22.946,0,0,1,93.663,42.82,22.946,22.946,0,0,1,116.623,65.8H128.1a22.9,22.9,0,0,1,22.959,22.959A22.9,22.9,0,0,1,128.1,111.722H116.623v80.842a22.987,22.987,0,0,0,22.983,22.983,22.528,22.528,0,0,0,16.323-6.66l7.7-9.542a21.8,21.8,0,0,1,16.2-6.781,23.069,23.069,0,0,1,17.558,37.9,78.419,78.419,0,0,1-8.961,10.923q-20.235,20.089-48.824,20.1T90.83,241.339q-20.162-20.162-20.15-48.776V65.8Z" transform="translate(100.326 59.135)" fill="#efeaf1"/>
      <path id="Path_892" data-name="Path 892" d="M188.49,207.41q-20.089,20.089-48.825,20.1-28.59,0-48.776-20.15Q70.728,187.2,70.74,158.585V89.659A22.9,22.9,0,0,1,93.7,66.7a22.9,22.9,0,0,1,22.959,22.959v68.926a22.982,22.982,0,0,0,39.234,16.251,22.163,22.163,0,0,0,6.733-16.251V101.672a22.959,22.959,0,1,1,45.918,0v56.914Q208.616,187.32,188.49,207.41Z" transform="translate(100.411 93.089)" fill="#efeaf1"/>
      <path id="Path_893" data-name="Path 893" d="M116.618,125.125V111.732H128.1a22.9,22.9,0,0,0,22.959-22.959A22.9,22.9,0,0,0,128.1,65.813h-11.48A22.946,22.946,0,0,0,93.659,42.83,22.946,22.946,0,0,0,70.7,65.813v61.346C73.63,126.554,113.712,125.439,116.618,125.125Z" transform="translate(100.354 59.149)" fill="#efeaf1"/>
      <path id="Path_894" data-name="Path 894" d="M283.3,202.52q-20.089,20.089-48.824,20.1-28.59,0-48.776-20.15Q165.538,182.31,165.55,153.7V93.779a22.959,22.959,0,1,1,45.918,0V153.7a22.983,22.983,0,0,0,45.967,0V127.758c0-6.345,2.228-24.7,6.709-29.183a22.959,22.959,0,0,1,39.21,16.251V153.72Q303.426,182.419,283.3,202.52Z" transform="translate(235.217 98.947)" fill="#efeaf1"/>
      <path id="Path_895" data-name="Path 895" d="M234.49,192.582c0-8.089-4.65-15.209-11.7-19.181a21.246,21.246,0,0,1-4.553-3.439,22.2,22.2,0,0,1-6.733-16.251V94.521a24.011,24.011,0,0,0-7.217-17.462,22.1,22.1,0,0,0-15.476-6.248,23.05,23.05,0,0,0-16.565,6.733,22.14,22.14,0,0,0-6.709,16.251v59.917q0,28.59,20.15,48.776a71.176,71.176,0,0,0,15.742,11.988c14.846,8.21,33.01-3.076,33.01-20.029v-1.865Z" transform="translate(235.203 98.932)" fill="#efeaf1"/>
      <path id="Path_896" data-name="Path 896" d="M305.433,77.381q20.09-20.089,48.825-20.1,28.59,0,48.776,20.15,20.163,20.162,20.15,48.776v35.868a22.959,22.959,0,1,1-45.918,0V126.206a22.983,22.983,0,0,0-45.967,0v92.951a22.959,22.959,0,1,1-45.918,0V126.206Q285.271,97.471,305.433,77.381Z" transform="translate(405.597 79.695)" fill="#efeaf1"/>
      <path id="Path_897" data-name="Path 897" d="M356.659,87.3c4.262-18.43-14.483-34.124-31.605-26.132A69.276,69.276,0,0,0,305.461,74.9c-13.466,13.32-20.1,29.668-20.1,48.825v92.224a24.085,24.085,0,0,0,7.193,17.462,22.1,22.1,0,0,0,15.476,6.248,23.051,23.051,0,0,0,16.565-6.733,22.141,22.141,0,0,0,6.709-16.251V123.721c.024-11.552,6.781-17.68,13.126-20.61a22.381,22.381,0,0,0,12.133-15.355C356.586,87.611,356.635,87.441,356.659,87.3Z" transform="translate(405.569 82.18)" fill="#efeaf1"/>
      <path id="Path_898" data-name="Path 898" d="M441.02,193.311q-20.09,20.089-48.825,20.1-28.589,0-48.776-20.15-20.162-20.162-20.15-48.776V99.609a22.959,22.959,0,1,1,45.918,0v44.9a22.983,22.983,0,0,0,45.967,0V129.664a22.959,22.959,0,1,1,45.918,0V144.51Q461.146,173.209,441.02,193.311Z" transform="translate(459.472 107.236)" fill="#efeaf1"/>
      <path id="Path_899" data-name="Path 899" d="M268.79,68.99l.048.121A.623.623,0,0,0,268.79,68.99Z" transform="translate(382.009 96.345)" fill="#efeaf1"/>
      <circle id="Ellipse_281" data-name="Ellipse 281" cx="27.9" cy="27.9" r="27.9" transform="translate(731.931 1.23)" fill="#efeaf1"/>
      <path id="Path_900" data-name="Path 900" d="M99.2,192.182c0-8.089,4.65-15.209,11.7-19.181a21.248,21.248,0,0,0,4.553-3.439,22.2,22.2,0,0,0,6.733-16.251V94.121A24.012,24.012,0,0,1,129.4,76.659a22.1,22.1,0,0,1,15.476-6.248,23.051,23.051,0,0,1,16.566,6.733,22.139,22.139,0,0,1,6.709,16.25v59.917q0,28.59-20.15,48.776a71.173,71.173,0,0,1-15.742,11.988c-14.846,8.21-33.01-3.076-33.01-20.029v-1.865Z" transform="translate(140.877 98.363)" fill="#efeaf1"/>
      <path id="Path_901" data-name="Path 901" d="M292.46,174.11a22.983,22.983,0,0,1-45.967,0V114.726a11.48,11.48,0,0,0-22.959,0v80.405a22.983,22.983,0,0,1-45.967,0V114.726a11.48,11.48,0,0,0-22.959,0V174.11a22.982,22.982,0,0,1-39.21,16.251,22.14,22.14,0,0,1-6.709-16.251V114.726q0-22.959,17.244-40.2,17.219-17.219,40.2-17.244,19.653,0,34.463,11.383,14.822-11.371,34.463-11.383a55.39,55.39,0,0,1,40.615,16.832,55.351,55.351,0,0,1,16.832,40.614V174.11Z" transform="translate(154.371 79.695)" fill="#efeaf1"/>
      <path id="Path_902" data-name="Path 902" d="M292.46,135.046a22.983,22.983,0,0,1-45.967,0V114.726a11.48,11.48,0,0,0-22.959,0v20.319a22.983,22.983,0,0,1-45.967,0V114.726a11.48,11.48,0,0,0-22.959,0v20.319A22.982,22.982,0,0,1,115.4,151.3a22.14,22.14,0,0,1-6.709-16.251V114.726q0-22.959,17.244-40.2,17.219-17.219,40.2-17.244,19.653,0,34.463,11.383,14.822-11.371,34.463-11.383a55.39,55.39,0,0,1,40.615,16.832,55.351,55.351,0,0,1,16.832,40.614v20.319Z" transform="translate(154.371 79.695)" fill="#efeaf1"/>
      <circle id="Ellipse_282" data-name="Ellipse 282" cx="27.9" cy="27.9" r="27.9" transform="translate(233.126 1.593)" fill="#efeaf1"/>
      <circle id="Ellipse_283" data-name="Ellipse 283" cx="27.9" cy="27.9" r="27.9" transform="translate(168.027 1.593)" fill="#efeaf1"/>
      <g id="Group_1621" data-name="Group 1621" transform="translate(0.12 137.048)">
        <g id="Group_1619" data-name="Group 1619" transform="translate(0.024)">
          <path id="Path_903" data-name="Path 903" d="M.13,164.937V132.823q0-30.951,24.17-53.232T82.812,57.31q32.077,0,54.928,20.3t22.838,51c0,7.484-.945,13.635-2.834,18.5s-4.8,8.283-8.694,10.269a35.667,35.667,0,0,1-10.753,3.73,87.113,87.113,0,0,1-12.836.751H48.833v5.667q0,16.239,12.085,26.253,12.061,10.027,32.09,10a61.462,61.462,0,0,0,28.311-7.169c9.3-4.771,15.355-7.169,18.115-7.169q7.919,0,13.223,7.362,5.268,7.375,5.28,14.168,0,10.571-19.06,20.949t-47.371,10.39q-40.4,0-65.874-21.336Q.13,199.691.13,164.937Zm48.7-31.726h55.121c4.02,0,6.854-.654,8.5-1.937,1.623-1.284,2.446-3.827,2.446-7.581a24.622,24.622,0,0,0-9.615-20.1Q95.66,95.854,81.7,95.842a36.673,36.673,0,0,0-23.032,7.58,23.932,23.932,0,0,0-9.809,19.932v9.857Z" transform="translate(-0.13 -57.31)" fill="#efeaf1"/>
        </g>
        <g id="Group_1620" data-name="Group 1620" transform="translate(0 73.939)">
          <path id="Path_904" data-name="Path 904" d="M139.449,146.061q-4.178,0-18.115,7.169A61.237,61.237,0,0,1,93.022,160.4q-20.017,0-32.09-10-12.1-9.99-12.085-26.253V112.2A24.367,24.367,0,0,0,24.484,87.84h0A24.367,24.367,0,0,0,.12,112.2v9.324q0,34.729,25.478,56.066,25.5,21.324,65.874,21.337,28.336,0,47.371-10.39,19.072-10.39,19.06-20.949,0-6.793-5.28-14.168Q147.393,146.049,139.449,146.061Z" transform="translate(-0.12 -87.84)" fill="#efeaf1"/>
        </g>
      </g>
      <path id="Path_905" data-name="Path 905" d="M116.754,143.878a21.652,21.652,0,0,1-6.66,15.863,22.285,22.285,0,0,1-16.372,6.66,22.247,22.247,0,0,1-16.372-6.66,21.692,21.692,0,0,1-6.66-15.863V58.483A21.692,21.692,0,0,1,77.35,42.62a22.285,22.285,0,0,1,16.372-6.66,22.247,22.247,0,0,1,16.372,6.66,21.691,21.691,0,0,1,6.66,15.863Z" transform="translate(100.34 49.381)" fill="#efeaf1"/>
      <path id="Path_906" data-name="Path 906" d="M314.479,82.367l-.049-.1Z" transform="translate(446.903 115.227)" fill="#efeaf1"/>
      <g id="Group_1622" data-name="Group 1622" transform="translate(874.508 137.279)">
        <path id="Path_907" data-name="Path 907" d="M486.732,75.071l2.374,3.972,19.907,11.673,17.656,1.7c-9.591-13.635-29.329-24.267-29.329-24.267h0c-1.744-1.017-3.1-1.7-3.8-2.01-66.48-28.7-133.759,16.929-132.355,84.886.872,42.431,31.073,79.727,68.418,86.823h0c-.581-.436-1.163-.9-1.72-1.356l-.024-.024c-.557-.46-1.066-.92-1.6-1.38-.025,0-.025-.024-.049-.049-.509-.46-1.017-.944-1.478-1.429-.024-.024-.024-.048-.048-.048-.46-.484-.921-.969-1.356-1.453-.024-.048-.073-.073-.1-.121-.412-.484-.824-.945-1.187-1.453a.518.518,0,0,1-.1-.145c-.363-.484-.727-.969-1.066-1.477l-.145-.218c-.315-.484-.63-.969-.921-1.453a1.813,1.813,0,0,0-.169-.291,15.965,15.965,0,0,1-.751-1.429,2.685,2.685,0,0,1-.17-.388c-.218-.46-.411-.92-.605-1.4-.072-.17-.121-.339-.169-.484-.17-.46-.315-.9-.46-1.356-.049-.194-.1-.387-.146-.581-.121-.436-.242-.9-.339-1.356a6.567,6.567,0,0,1-.1-.678q-.109-.654-.218-1.308c-.024-.266-.048-.557-.048-.824-.024-.412-.072-.823-.1-1.235,0-.339,0-.7.024-1.041,0-.363,0-.7.024-1.066.024-.46.073-.92.121-1.4q.037-.4.073-.8c.1-.751.242-1.5.387-2.277a26.115,26.115,0,0,1,1.623-5.038L431.78,220.6l27.875-5.764-1.308-19.883a45.309,45.309,0,0,1-26.107-4.747c-.557-.291-1.09-.581-1.647-.9-.436-.242-.848-.484-1.284-.727a45.786,45.786,0,0,1,41.9-81.18v-.048a46.356,46.356,0,0,1,17.389,13.2l9.2-3.439-12.521-14.386L475.858,86.5l-2.955.872a26.948,26.948,0,0,1,1.453-2.519A22.524,22.524,0,0,1,486.732,75.071Z" transform="translate(-361.161 -57.406)" fill="#efeaf1"/>
        <path id="Path_908" data-name="Path 908" d="M512.349,142.473c.048-10.68-.605-21.167-3.947-31.436-5.062-15.6-12.957-29.014-25.018-39.258-7.023-5.982-16.347-9.058-25.4-7.314A23.793,23.793,0,0,0,441.8,75.508a26.082,26.082,0,0,0-3.415,7.556,17.482,17.482,0,0,0-.412,1.889,24.979,24.979,0,0,0-.388,3.778v.1a13.926,13.926,0,0,0,6.757,12.158,45.8,45.8,0,0,1-18.527,84.644,44.912,44.912,0,0,1-17.825-1.477c-6.805-1.962-14.337-.242-18.648,5.377a19.135,19.135,0,0,0-1.357,1.986,25.913,25.913,0,0,0-3.318,8.452c-.169.775-.291,1.526-.388,2.277q-.036.4-.073.8c-.048.46-.1.945-.121,1.4-.024.363,0,.7-.024,1.066,0,.339-.024.7-.024,1.041.024.412.048.823.1,1.235.024.266.024.557.048.823a12.422,12.422,0,0,0,.218,1.308,6.527,6.527,0,0,1,.1.678c.1.46.218.9.339,1.356l.145.581c.146.46.291.92.46,1.356a2.836,2.836,0,0,0,.169.484c.194.484.388.944.605,1.4a2.73,2.73,0,0,0,.169.388c.243.484.485.969.751,1.429a1.824,1.824,0,0,0,.17.291c.291.484.581.969.92,1.453l.146.218c.339.509.7.993,1.066,1.477a.515.515,0,0,1,.1.145c.388.484.775.969,1.186,1.453.025.048.073.073.1.121.436.484.9.969,1.356,1.453.024.024.024.049.049.049.484.484.968.969,1.477,1.429l.048.048q.763.69,1.6,1.38l.024.024c.267.242.582.46.848.678H396.2a2.077,2.077,0,0,0,.242.194c.218.17.412.339.63.509h0a6.131,6.131,0,0,0,.848.218c1.817.7,5.4,1.719,12.255,2.567q2.47.327,4.941.509c.29.024.533.049.823.073v-.024c14.507.993,28.723-1.889,42.624-7.823,4-1.7,6.346-2.083,9.93,1.114,8.452,7.532,18.527,9.13,28.772,4.069,10.026-4.965,15.282-13.175,15.16-24.8C512.18,183.765,512.252,163.107,512.349,142.473Z" transform="translate(-328.63 -48.058)" fill="#efeaf1"/>
      </g>
      <g id="Group_1623" data-name="Group 1623" transform="translate(492.63 137.594)">
        <path id="Path_909" data-name="Path 909" d="M329.052,75.2l2.373,3.972,19.908,11.673,17.655,1.7c-9.591-13.635-29.329-24.267-29.329-24.267h0c-1.744-1.017-3.1-1.7-3.8-2.01C269.377,37.566,202.1,83.194,203.5,151.151c.872,42.431,31.072,79.728,68.418,86.823h0c-.581-.436-1.163-.9-1.72-1.356l-.024-.024c-.557-.46-1.066-.92-1.6-1.38-.024,0-.024-.024-.049-.048-.508-.46-1.017-.945-1.477-1.429-.024-.024-.024-.048-.049-.048-.46-.484-.92-.969-1.356-1.453-.024-.048-.073-.073-.1-.121-.411-.484-.823-.944-1.186-1.453a.507.507,0,0,1-.1-.145c-.363-.484-.726-.969-1.065-1.477l-.145-.218c-.315-.484-.63-.969-.92-1.453a1.819,1.819,0,0,0-.169-.291c-.266-.46-.533-.945-.751-1.429a2.681,2.681,0,0,1-.169-.387c-.218-.46-.412-.92-.606-1.4-.072-.17-.121-.339-.169-.484-.17-.46-.315-.9-.46-1.356l-.145-.581c-.121-.436-.242-.9-.339-1.356a6.434,6.434,0,0,1-.1-.678q-.109-.654-.218-1.308c-.024-.266-.049-.557-.049-.823-.024-.412-.073-.823-.1-1.235,0-.339,0-.7.024-1.041,0-.363,0-.7.024-1.066.024-.46.072-.92.121-1.4l.073-.8c.1-.751.242-1.5.388-2.276a26.109,26.109,0,0,1,1.623-5.038L274.1,220.73l27.875-5.764-1.308-19.883a45.31,45.31,0,0,1-26.108-4.747c-.557-.291-1.09-.581-1.647-.9-.436-.242-.848-.484-1.284-.726a45.785,45.785,0,0,1,41.9-81.181v-.048a46.356,46.356,0,0,1,17.389,13.2l9.2-3.439L327.6,102.859l-9.421-16.226-2.955.872a26.9,26.9,0,0,1,1.453-2.519A22.716,22.716,0,0,1,329.052,75.2Z" transform="translate(-203.481 -57.536)" fill="#efeaf1"/>
        <path id="Path_910" data-name="Path 910" d="M354.669,142.6c.049-10.68-.605-21.167-3.947-31.436-5.062-15.6-12.957-29.014-25.018-39.258-7.023-5.982-16.348-9.058-25.406-7.314a23.8,23.8,0,0,0-16.178,11.044,26.094,26.094,0,0,0-3.415,7.556,17.541,17.541,0,0,0-.412,1.889,25,25,0,0,0-.387,3.778v.1a13.923,13.923,0,0,0,6.757,12.158,45.8,45.8,0,0,1-18.527,84.644,44.914,44.914,0,0,1-17.825-1.477c-6.805-1.962-14.337-.242-18.648,5.376a19.144,19.144,0,0,0-1.356,1.986,25.912,25.912,0,0,0-3.318,8.452c-.169.775-.29,1.526-.387,2.276q-.036.4-.073.8c-.049.46-.1.945-.121,1.4-.024.363,0,.7-.024,1.066,0,.339-.024.7-.024,1.041.024.412.049.824.1,1.235.024.266.024.557.049.823a12.252,12.252,0,0,0,.218,1.308,6.622,6.622,0,0,1,.1.678c.1.46.218.9.339,1.356l.145.581c.145.46.29.92.46,1.356a2.858,2.858,0,0,0,.169.484c.194.484.388.945.606,1.4a2.7,2.7,0,0,0,.169.388c.242.484.484.969.751,1.429a1.814,1.814,0,0,0,.169.291c.291.484.581.969.92,1.453l.145.218c.339.508.7.993,1.066,1.477a.5.5,0,0,1,.1.145c.388.484.775.969,1.187,1.453.024.048.073.073.1.121.436.484.9.969,1.356,1.453.025.024.025.048.049.048.484.484.969.969,1.477,1.429l.048.048q.763.69,1.6,1.38l.024.024c.266.242.581.46.848.678h-.024a2.1,2.1,0,0,0,.242.194c.218.17.412.339.63.509h0a6.129,6.129,0,0,0,.848.218c1.816.7,5.4,1.72,12.254,2.567q2.471.327,4.941.509c.291.024.533.048.824.073v-.024c14.507.993,28.723-1.889,42.624-7.822,4-1.7,6.345-2.083,9.93,1.114,8.452,7.532,18.527,9.13,28.772,4.069,10.027-4.965,15.282-13.175,15.161-24.8C354.5,183.9,354.573,163.237,354.669,142.6Z" transform="translate(-170.95 -48.188)" fill="#efeaf1"/>
      </g>
    </g>
  </g>
</svg>
