<svg id="Group_15756" data-name="Group 15756" xmlns="http://www.w3.org/2000/svg" xmlns:xlink="http://www.w3.org/1999/xlink" width="1920" height="592" viewBox="0 0 1920 592">
  <defs>
    <clipPath id="clip-path">
      <rect width="952" height="320.847" fill="none"/>
    </clipPath>
    <clipPath id="clip-path-2">
      <rect id="Rectangle_27997" data-name="Rectangle 27997" width="712" height="477.698" fill="none"/>
    </clipPath>
    <clipPath id="clip-path-3">
      <rect id="Rectangle_27956" data-name="Rectangle 27956" width="711.999" height="477.697" fill="none"/>
    </clipPath>
    <clipPath id="clip-path-4">
      <path id="Path_37790" data-name="Path 37790" d="M45.754,1140.818c-12.685-10.86-42.316-17.81-42.316-17.81a80.539,80.539,0,0,0,38.731,44.85C27.418,1162.625,0,1163.4,0,1163.4c21.057,29.217,70.28,29.7,70.28,29.7l-8.261-69.314c-9.746-12.116-35.833-20.967-35.833-20.967,5.33,20.45,14.85,32.837,19.566,38" transform="translate(0 -1102.814)" fill="none"/>
    </clipPath>
    <clipPath id="clip-path-6">
      <path id="Path_37799" data-name="Path 37799" d="M646.924,1093h0m-33.754-29.04,10.657,70.08c27.288,0,67.072-15.877,67.072-15.877-16.523-4.3-27.773-2.86-33.427-1.426,18.306-7.4,41.161-31.311,41.161-31.311-36.366-.757-51.1,7.236-51.691,7.563,14.547-8.17,33.9-42.769,33.9-42.769-24.584.745-35.987,5.273-41.275,9.342,7.636-14.9,10.635-40.444,10.635-40.444-41.82,18.549-37.034,44.841-37.034,44.841" transform="translate(-613.004 -1019.118)" fill="none"/>
    </clipPath>
    <clipPath id="clip-path-8">
      <path id="Path_37807" data-name="Path 37807" d="M130.648,646.416,161.93,853.384l116.837-.033L247.484,646.382Z" transform="translate(-130.648 -646.382)" fill="none"/>
    </clipPath>
    <clipPath id="clip-path-9">
      <rect id="Rectangle_27986" data-name="Rectangle 27986" width="128.168" height="168.623" fill="none"/>
    </clipPath>
    <clipPath id="clip-path-14">
      <path id="Path_37821" data-name="Path 37821" d="M714.309,1072.652c-5.049.454-11.87,7.833-11.87,7.833h0c-5.151,4.49-13.424,18.338-10.81,26.154a5.426,5.426,0,0,0,6.151,4.407c12.332-2.534,17.19-19.108,21.122-27.474,1.047-2.923-.551-10.939-4.274-10.94a2.686,2.686,0,0,0-.319.019" transform="translate(-691.131 -1072.633)" fill="none"/>
    </clipPath>
    <clipPath id="clip-path-16">
      <path id="Path_37827" data-name="Path 37827" d="M743.2,283.966l19.419,39.942,13.631-9.065-4.167-9.248c4.171-2.774,10.1-6.054,5.8-11.722l-16.353-18.529Z" transform="translate(-743.2 -275.346)" fill="none"/>
    </clipPath>
    <clipPath id="clip-path-18">
      <path id="Path_37831" data-name="Path 37831" d="M742.108,215.584l-10.615,7.608c-20.141-.721-27.836,21.451-11.134,32.673,0,0,.946-8.327,10.947-21.5l10.963-7.712c3.459-2.454,3.52-6.963,1.754-10.48a1.257,1.257,0,0,0-1.914-.59" transform="translate(-711.231 -215.348)" fill="#24817a"/>
    </clipPath>
    <clipPath id="clip-path-19">
      <rect id="Rectangle_27993" data-name="Rectangle 27993" width="711.999" height="477.697" fill="#5f2d79"/>
    </clipPath>
    <clipPath id="clip-path-20">
      <path id="Path_37837" data-name="Path 37837" d="M721.839,458.232A8.342,8.342,0,0,0,723.5,469.5l11.963,9.542a10.351,10.351,0,0,0,14.65-1.768l17.761-23.015-26.851-23.772Z" transform="translate(-720.358 -430.486)" fill="#5f2d79"/>
    </clipPath>
    <clipPath id="clip-path-22">
      <path id="Path_37841" data-name="Path 37841" d="M869.011,264.862v88l47.706,7.758,80.9-7.758v-88l-80.9-9.139Z" transform="translate(-869.011 -255.723)" fill="none"/>
    </clipPath>
    <clipPath id="clip-path-24">
      <path id="Path_37845" data-name="Path 37845" d="M722.543,532.852h0c-6.063,9.548,3.418,21.071,13.693,20.655l58.679-3.737-.012.028s19.716,3.966,24.288,2.531,8.65-14.515,7.72-15.393c-.624-.2-2.826.4-5.566,1.007-4.574,1.011-10.649,2.023-13.389-.737,10.085-12.822.123-6.709-6.8-.547l-66.007-9.7a12.628,12.628,0,0,0-12.608,5.9" transform="translate(-720.641 -526.82)" fill="none"/>
    </clipPath>
  </defs>
  <rect id="Rectangle_1" data-name="Rectangle 1" width="1920" height="592" fill="#f5f9f9"/>
  <g id="En_Logo_White-01" transform="translate(968 191.604)" clip-path="url(#clip-path)">
    <g id="En_Logo_White-01-2" data-name="En_Logo_White-01" transform="translate(-0.12 -1.23)">
      <path id="Path_890" data-name="Path 890" d="M148.288,180.009a23.419,23.419,0,0,1-25.526-5.837,22.07,22.07,0,0,1-6.079-15.573V90.4a24.011,24.011,0,0,0-7.217-17.462A22.1,22.1,0,0,0,93.99,66.691a23,23,0,0,0-16.541,6.733A22.141,22.141,0,0,0,70.74,89.674V158.6q0,28.59,20.15,48.776c13.441,13.441,29.692,20.44,48.776,20.15a75.426,75.426,0,0,0,27.415-5.3c15.282-6.224,18.261-26.616,5.74-37.345-.605-.509-1.187-1.017-1.792-1.526C164.708,177.951,156.014,176.958,148.288,180.009Z" transform="translate(100.411 93.074)" fill="#efeaf1"/>
      <path id="Path_891" data-name="Path 891" d="M70.7,65.8A22.946,22.946,0,0,1,93.663,42.82,22.946,22.946,0,0,1,116.623,65.8H128.1a22.9,22.9,0,0,1,22.959,22.959A22.9,22.9,0,0,1,128.1,111.722H116.623v80.842a22.987,22.987,0,0,0,22.983,22.983,22.528,22.528,0,0,0,16.323-6.66l7.7-9.542a21.8,21.8,0,0,1,16.2-6.781,23.069,23.069,0,0,1,17.558,37.9,78.419,78.419,0,0,1-8.961,10.923q-20.235,20.089-48.824,20.1T90.83,241.339q-20.162-20.162-20.15-48.776V65.8Z" transform="translate(100.326 59.135)" fill="#efeaf1"/>
      <path id="Path_892" data-name="Path 892" d="M188.49,207.41q-20.089,20.089-48.825,20.1-28.59,0-48.776-20.15Q70.728,187.2,70.74,158.585V89.659A22.9,22.9,0,0,1,93.7,66.7a22.9,22.9,0,0,1,22.959,22.959v68.926a22.982,22.982,0,0,0,39.234,16.251,22.163,22.163,0,0,0,6.733-16.251V101.672a22.959,22.959,0,1,1,45.918,0v56.914Q208.616,187.32,188.49,207.41Z" transform="translate(100.411 93.089)" fill="#efeaf1"/>
      <path id="Path_893" data-name="Path 893" d="M116.618,125.125V111.732H128.1a22.9,22.9,0,0,0,22.959-22.959A22.9,22.9,0,0,0,128.1,65.813h-11.48A22.946,22.946,0,0,0,93.659,42.83,22.946,22.946,0,0,0,70.7,65.813v61.346C73.63,126.554,113.712,125.439,116.618,125.125Z" transform="translate(100.354 59.149)" fill="#efeaf1"/>
      <path id="Path_894" data-name="Path 894" d="M283.3,202.52q-20.089,20.089-48.824,20.1-28.59,0-48.776-20.15Q165.538,182.31,165.55,153.7V93.779a22.959,22.959,0,1,1,45.918,0V153.7a22.983,22.983,0,0,0,45.967,0V127.758c0-6.345,2.228-24.7,6.709-29.183a22.959,22.959,0,0,1,39.21,16.251V153.72Q303.426,182.419,283.3,202.52Z" transform="translate(235.217 98.947)" fill="#efeaf1"/>
      <path id="Path_895" data-name="Path 895" d="M234.49,192.582c0-8.089-4.65-15.209-11.7-19.181a21.246,21.246,0,0,1-4.553-3.439,22.2,22.2,0,0,1-6.733-16.251V94.521a24.011,24.011,0,0,0-7.217-17.462,22.1,22.1,0,0,0-15.476-6.248,23.05,23.05,0,0,0-16.565,6.733,22.14,22.14,0,0,0-6.709,16.251v59.917q0,28.59,20.15,48.776a71.176,71.176,0,0,0,15.742,11.988c14.846,8.21,33.01-3.076,33.01-20.029v-1.865Z" transform="translate(235.203 98.932)" fill="#efeaf1"/>
      <path id="Path_896" data-name="Path 896" d="M305.433,77.381q20.09-20.089,48.825-20.1,28.59,0,48.776,20.15,20.163,20.162,20.15,48.776v35.868a22.959,22.959,0,1,1-45.918,0V126.206a22.983,22.983,0,0,0-45.967,0v92.951a22.959,22.959,0,1,1-45.918,0V126.206Q285.271,97.471,305.433,77.381Z" transform="translate(405.597 79.695)" fill="#efeaf1"/>
      <path id="Path_897" data-name="Path 897" d="M356.659,87.3c4.262-18.43-14.483-34.124-31.605-26.132A69.276,69.276,0,0,0,305.461,74.9c-13.466,13.32-20.1,29.668-20.1,48.825v92.224a24.085,24.085,0,0,0,7.193,17.462,22.1,22.1,0,0,0,15.476,6.248,23.051,23.051,0,0,0,16.565-6.733,22.141,22.141,0,0,0,6.709-16.251V123.721c.024-11.552,6.781-17.68,13.126-20.61a22.381,22.381,0,0,0,12.133-15.355C356.586,87.611,356.635,87.441,356.659,87.3Z" transform="translate(405.569 82.18)" fill="#efeaf1"/>
      <path id="Path_898" data-name="Path 898" d="M441.02,193.311q-20.09,20.089-48.825,20.1-28.589,0-48.776-20.15-20.162-20.162-20.15-48.776V99.609a22.959,22.959,0,1,1,45.918,0v44.9a22.983,22.983,0,0,0,45.967,0V129.664a22.959,22.959,0,1,1,45.918,0V144.51Q461.146,173.209,441.02,193.311Z" transform="translate(459.472 107.236)" fill="#efeaf1"/>
      <path id="Path_899" data-name="Path 899" d="M268.79,68.99l.048.121A.623.623,0,0,0,268.79,68.99Z" transform="translate(382.009 96.345)" fill="#efeaf1"/>
      <circle id="Ellipse_281" data-name="Ellipse 281" cx="27.9" cy="27.9" r="27.9" transform="translate(731.931 1.23)" fill="#efeaf1"/>
      <path id="Path_900" data-name="Path 900" d="M99.2,192.182c0-8.089,4.65-15.209,11.7-19.181a21.248,21.248,0,0,0,4.553-3.439,22.2,22.2,0,0,0,6.733-16.251V94.121A24.012,24.012,0,0,1,129.4,76.659a22.1,22.1,0,0,1,15.476-6.248,23.051,23.051,0,0,1,16.566,6.733,22.139,22.139,0,0,1,6.709,16.25v59.917q0,28.59-20.15,48.776a71.173,71.173,0,0,1-15.742,11.988c-14.846,8.21-33.01-3.076-33.01-20.029v-1.865Z" transform="translate(140.877 98.363)" fill="#efeaf1"/>
      <path id="Path_901" data-name="Path 901" d="M292.46,174.11a22.983,22.983,0,0,1-45.967,0V114.726a11.48,11.48,0,0,0-22.959,0v80.405a22.983,22.983,0,0,1-45.967,0V114.726a11.48,11.48,0,0,0-22.959,0V174.11a22.982,22.982,0,0,1-39.21,16.251,22.14,22.14,0,0,1-6.709-16.251V114.726q0-22.959,17.244-40.2,17.219-17.219,40.2-17.244,19.653,0,34.463,11.383,14.822-11.371,34.463-11.383a55.39,55.39,0,0,1,40.615,16.832,55.351,55.351,0,0,1,16.832,40.614V174.11Z" transform="translate(154.371 79.695)" fill="#efeaf1"/>
      <path id="Path_902" data-name="Path 902" d="M292.46,135.046a22.983,22.983,0,0,1-45.967,0V114.726a11.48,11.48,0,0,0-22.959,0v20.319a22.983,22.983,0,0,1-45.967,0V114.726a11.48,11.48,0,0,0-22.959,0v20.319A22.982,22.982,0,0,1,115.4,151.3a22.14,22.14,0,0,1-6.709-16.251V114.726q0-22.959,17.244-40.2,17.219-17.219,40.2-17.244,19.653,0,34.463,11.383,14.822-11.371,34.463-11.383a55.39,55.39,0,0,1,40.615,16.832,55.351,55.351,0,0,1,16.832,40.614v20.319Z" transform="translate(154.371 79.695)" fill="#efeaf1"/>
      <circle id="Ellipse_282" data-name="Ellipse 282" cx="27.9" cy="27.9" r="27.9" transform="translate(233.126 1.593)" fill="#efeaf1"/>
      <circle id="Ellipse_283" data-name="Ellipse 283" cx="27.9" cy="27.9" r="27.9" transform="translate(168.027 1.593)" fill="#efeaf1"/>
      <g id="Group_1621" data-name="Group 1621" transform="translate(0.12 137.048)">
        <g id="Group_1619" data-name="Group 1619" transform="translate(0.024)">
          <path id="Path_903" data-name="Path 903" d="M.13,164.937V132.823q0-30.951,24.17-53.232T82.812,57.31q32.077,0,54.928,20.3t22.838,51c0,7.484-.945,13.635-2.834,18.5s-4.8,8.283-8.694,10.269a35.667,35.667,0,0,1-10.753,3.73,87.113,87.113,0,0,1-12.836.751H48.833v5.667q0,16.239,12.085,26.253,12.061,10.027,32.09,10a61.462,61.462,0,0,0,28.311-7.169c9.3-4.771,15.355-7.169,18.115-7.169q7.919,0,13.223,7.362,5.268,7.375,5.28,14.168,0,10.571-19.06,20.949t-47.371,10.39q-40.4,0-65.874-21.336Q.13,199.691.13,164.937Zm48.7-31.726h55.121c4.02,0,6.854-.654,8.5-1.937,1.623-1.284,2.446-3.827,2.446-7.581a24.622,24.622,0,0,0-9.615-20.1Q95.66,95.854,81.7,95.842a36.673,36.673,0,0,0-23.032,7.58,23.932,23.932,0,0,0-9.809,19.932v9.857Z" transform="translate(-0.13 -57.31)" fill="#efeaf1"/>
        </g>
        <g id="Group_1620" data-name="Group 1620" transform="translate(0 73.939)">
          <path id="Path_904" data-name="Path 904" d="M139.449,146.061q-4.178,0-18.115,7.169A61.237,61.237,0,0,1,93.022,160.4q-20.017,0-32.09-10-12.1-9.99-12.085-26.253V112.2A24.367,24.367,0,0,0,24.484,87.84h0A24.367,24.367,0,0,0,.12,112.2v9.324q0,34.729,25.478,56.066,25.5,21.324,65.874,21.337,28.336,0,47.371-10.39,19.072-10.39,19.06-20.949,0-6.793-5.28-14.168Q147.393,146.049,139.449,146.061Z" transform="translate(-0.12 -87.84)" fill="#efeaf1"/>
        </g>
      </g>
      <path id="Path_905" data-name="Path 905" d="M116.754,143.878a21.652,21.652,0,0,1-6.66,15.863,22.285,22.285,0,0,1-16.372,6.66,22.247,22.247,0,0,1-16.372-6.66,21.692,21.692,0,0,1-6.66-15.863V58.483A21.692,21.692,0,0,1,77.35,42.62a22.285,22.285,0,0,1,16.372-6.66,22.247,22.247,0,0,1,16.372,6.66,21.691,21.691,0,0,1,6.66,15.863Z" transform="translate(100.34 49.381)" fill="#efeaf1"/>
      <path id="Path_906" data-name="Path 906" d="M314.479,82.367l-.049-.1Z" transform="translate(446.903 115.227)" fill="#efeaf1"/>
      <g id="Group_1622" data-name="Group 1622" transform="translate(874.508 137.279)">
        <path id="Path_907" data-name="Path 907" d="M486.732,75.071l2.374,3.972,19.907,11.673,17.656,1.7c-9.591-13.635-29.329-24.267-29.329-24.267h0c-1.744-1.017-3.1-1.7-3.8-2.01-66.48-28.7-133.759,16.929-132.355,84.886.872,42.431,31.073,79.727,68.418,86.823h0c-.581-.436-1.163-.9-1.72-1.356l-.024-.024c-.557-.46-1.066-.92-1.6-1.38-.025,0-.025-.024-.049-.049-.509-.46-1.017-.944-1.478-1.429-.024-.024-.024-.048-.048-.048-.46-.484-.921-.969-1.356-1.453-.024-.048-.073-.073-.1-.121-.412-.484-.824-.945-1.187-1.453a.518.518,0,0,1-.1-.145c-.363-.484-.727-.969-1.066-1.477l-.145-.218c-.315-.484-.63-.969-.921-1.453a1.813,1.813,0,0,0-.169-.291,15.965,15.965,0,0,1-.751-1.429,2.685,2.685,0,0,1-.17-.388c-.218-.46-.411-.92-.605-1.4-.072-.17-.121-.339-.169-.484-.17-.46-.315-.9-.46-1.356-.049-.194-.1-.387-.146-.581-.121-.436-.242-.9-.339-1.356a6.567,6.567,0,0,1-.1-.678q-.109-.654-.218-1.308c-.024-.266-.048-.557-.048-.824-.024-.412-.072-.823-.1-1.235,0-.339,0-.7.024-1.041,0-.363,0-.7.024-1.066.024-.46.073-.92.121-1.4q.037-.4.073-.8c.1-.751.242-1.5.387-2.277a26.115,26.115,0,0,1,1.623-5.038L431.78,220.6l27.875-5.764-1.308-19.883a45.309,45.309,0,0,1-26.107-4.747c-.557-.291-1.09-.581-1.647-.9-.436-.242-.848-.484-1.284-.727a45.786,45.786,0,0,1,41.9-81.18v-.048a46.356,46.356,0,0,1,17.389,13.2l9.2-3.439-12.521-14.386L475.858,86.5l-2.955.872a26.948,26.948,0,0,1,1.453-2.519A22.524,22.524,0,0,1,486.732,75.071Z" transform="translate(-361.161 -57.406)" fill="#efeaf1"/>
        <path id="Path_908" data-name="Path 908" d="M512.349,142.473c.048-10.68-.605-21.167-3.947-31.436-5.062-15.6-12.957-29.014-25.018-39.258-7.023-5.982-16.347-9.058-25.4-7.314A23.793,23.793,0,0,0,441.8,75.508a26.082,26.082,0,0,0-3.415,7.556,17.482,17.482,0,0,0-.412,1.889,24.979,24.979,0,0,0-.388,3.778v.1a13.926,13.926,0,0,0,6.757,12.158,45.8,45.8,0,0,1-18.527,84.644,44.912,44.912,0,0,1-17.825-1.477c-6.805-1.962-14.337-.242-18.648,5.377a19.135,19.135,0,0,0-1.357,1.986,25.913,25.913,0,0,0-3.318,8.452c-.169.775-.291,1.526-.388,2.277q-.036.4-.073.8c-.048.46-.1.945-.121,1.4-.024.363,0,.7-.024,1.066,0,.339-.024.7-.024,1.041.024.412.048.823.1,1.235.024.266.024.557.048.823a12.422,12.422,0,0,0,.218,1.308,6.527,6.527,0,0,1,.1.678c.1.46.218.9.339,1.356l.145.581c.146.46.291.92.46,1.356a2.836,2.836,0,0,0,.169.484c.194.484.388.944.605,1.4a2.73,2.73,0,0,0,.169.388c.243.484.485.969.751,1.429a1.824,1.824,0,0,0,.17.291c.291.484.581.969.92,1.453l.146.218c.339.509.7.993,1.066,1.477a.515.515,0,0,1,.1.145c.388.484.775.969,1.186,1.453.025.048.073.073.1.121.436.484.9.969,1.356,1.453.024.024.024.049.049.049.484.484.968.969,1.477,1.429l.048.048q.763.69,1.6,1.38l.024.024c.267.242.582.46.848.678H396.2a2.077,2.077,0,0,0,.242.194c.218.17.412.339.63.509h0a6.131,6.131,0,0,0,.848.218c1.817.7,5.4,1.719,12.255,2.567q2.47.327,4.941.509c.29.024.533.049.823.073v-.024c14.507.993,28.723-1.889,42.624-7.823,4-1.7,6.346-2.083,9.93,1.114,8.452,7.532,18.527,9.13,28.772,4.069,10.026-4.965,15.282-13.175,15.16-24.8C512.18,183.765,512.252,163.107,512.349,142.473Z" transform="translate(-328.63 -48.058)" fill="#efeaf1"/>
      </g>
      <g id="Group_1623" data-name="Group 1623" transform="translate(492.63 137.594)">
        <path id="Path_909" data-name="Path 909" d="M329.052,75.2l2.373,3.972,19.908,11.673,17.655,1.7c-9.591-13.635-29.329-24.267-29.329-24.267h0c-1.744-1.017-3.1-1.7-3.8-2.01C269.377,37.566,202.1,83.194,203.5,151.151c.872,42.431,31.072,79.728,68.418,86.823h0c-.581-.436-1.163-.9-1.72-1.356l-.024-.024c-.557-.46-1.066-.92-1.6-1.38-.024,0-.024-.024-.049-.048-.508-.46-1.017-.945-1.477-1.429-.024-.024-.024-.048-.049-.048-.46-.484-.92-.969-1.356-1.453-.024-.048-.073-.073-.1-.121-.411-.484-.823-.944-1.186-1.453a.507.507,0,0,1-.1-.145c-.363-.484-.726-.969-1.065-1.477l-.145-.218c-.315-.484-.63-.969-.92-1.453a1.819,1.819,0,0,0-.169-.291c-.266-.46-.533-.945-.751-1.429a2.681,2.681,0,0,1-.169-.387c-.218-.46-.412-.92-.606-1.4-.072-.17-.121-.339-.169-.484-.17-.46-.315-.9-.46-1.356l-.145-.581c-.121-.436-.242-.9-.339-1.356a6.434,6.434,0,0,1-.1-.678q-.109-.654-.218-1.308c-.024-.266-.049-.557-.049-.823-.024-.412-.073-.823-.1-1.235,0-.339,0-.7.024-1.041,0-.363,0-.7.024-1.066.024-.46.072-.92.121-1.4l.073-.8c.1-.751.242-1.5.388-2.276a26.109,26.109,0,0,1,1.623-5.038L274.1,220.73l27.875-5.764-1.308-19.883a45.31,45.31,0,0,1-26.108-4.747c-.557-.291-1.09-.581-1.647-.9-.436-.242-.848-.484-1.284-.726a45.785,45.785,0,0,1,41.9-81.181v-.048a46.356,46.356,0,0,1,17.389,13.2l9.2-3.439L327.6,102.859l-9.421-16.226-2.955.872a26.9,26.9,0,0,1,1.453-2.519A22.716,22.716,0,0,1,329.052,75.2Z" transform="translate(-203.481 -57.536)" fill="#efeaf1"/>
        <path id="Path_910" data-name="Path 910" d="M354.669,142.6c.049-10.68-.605-21.167-3.947-31.436-5.062-15.6-12.957-29.014-25.018-39.258-7.023-5.982-16.348-9.058-25.406-7.314a23.8,23.8,0,0,0-16.178,11.044,26.094,26.094,0,0,0-3.415,7.556,17.541,17.541,0,0,0-.412,1.889,25,25,0,0,0-.387,3.778v.1a13.923,13.923,0,0,0,6.757,12.158,45.8,45.8,0,0,1-18.527,84.644,44.914,44.914,0,0,1-17.825-1.477c-6.805-1.962-14.337-.242-18.648,5.376a19.144,19.144,0,0,0-1.356,1.986,25.912,25.912,0,0,0-3.318,8.452c-.169.775-.29,1.526-.387,2.276q-.036.4-.073.8c-.049.46-.1.945-.121,1.4-.024.363,0,.7-.024,1.066,0,.339-.024.7-.024,1.041.024.412.049.824.1,1.235.024.266.024.557.049.823a12.252,12.252,0,0,0,.218,1.308,6.622,6.622,0,0,1,.1.678c.1.46.218.9.339,1.356l.145.581c.145.46.29.92.46,1.356a2.858,2.858,0,0,0,.169.484c.194.484.388.945.606,1.4a2.7,2.7,0,0,0,.169.388c.242.484.484.969.751,1.429a1.814,1.814,0,0,0,.169.291c.291.484.581.969.92,1.453l.145.218c.339.508.7.993,1.066,1.477a.5.5,0,0,1,.1.145c.388.484.775.969,1.187,1.453.024.048.073.073.1.121.436.484.9.969,1.356,1.453.025.024.025.048.049.048.484.484.969.969,1.477,1.429l.048.048q.763.69,1.6,1.38l.024.024c.266.242.581.46.848.678h-.024a2.1,2.1,0,0,0,.242.194c.218.17.412.339.63.509h0a6.129,6.129,0,0,0,.848.218c1.816.7,5.4,1.72,12.254,2.567q2.471.327,4.941.509c.291.024.533.048.824.073v-.024c14.507.993,28.723-1.889,42.624-7.822,4-1.7,6.345-2.083,9.93,1.114,8.452,7.532,18.527,9.13,28.772,4.069,10.027-4.965,15.282-13.175,15.161-24.8C354.5,183.9,354.573,163.237,354.669,142.6Z" transform="translate(-170.95 -48.188)" fill="#efeaf1"/>
      </g>
    </g>
  </g>
  <g id="Group_15697" data-name="Group 15697" transform="translate(1068 100)">
    <g id="Group_15696" data-name="Group 15696" clip-path="url(#clip-path-2)">
      <g id="Group_15641" data-name="Group 15641" transform="translate(0 0.001)">
        <g id="Group_15640" data-name="Group 15640" clip-path="url(#clip-path-3)">
          <path id="Path_37788" data-name="Path 37788" d="M70.28,1193.1s-49.223-.482-70.28-29.7c0,0,34.353-.967,46.841,6.6,0,0-30.941-11.33-43.4-46.992,0,0,34.808,8.164,45.122,20.624,0,0-15.094-12.89-22.373-40.818,0,0,26.087,8.851,35.833,20.967Z" transform="translate(0 -777.685)" fill="#a7bd37"/>
        </g>
      </g>
      <g id="Group_15643" data-name="Group 15643" transform="translate(0 325.131)">
        <g id="Group_15642" data-name="Group 15642" clip-path="url(#clip-path-4)">
          <path id="Path_37789" data-name="Path 37789" d="M157.29,1124.613s9.64,75.34,3.057,84.979l30.332,2.351-16.459-87.33Z" transform="translate(-110.918 -1118.186)" fill="#3e5409"/>
        </g>
      </g>
      <g id="Group_15651" data-name="Group 15651" transform="translate(0 0.001)">
        <g id="Group_15650" data-name="Group 15650" clip-path="url(#clip-path-3)">
          <path id="Path_37795" data-name="Path 37795" d="M322.673,1407.951l545.464,1.839-236.264,42.8-380.443-44.317Z" transform="translate(-177.304 -992.862)" fill="#d8dae0"/>
          <path id="Path_37796" data-name="Path 37796" d="M380.715,1407.951l476.557,17.905c-30.333,25.207-451.2-17.282-495.477-17.594Z" transform="translate(-255.13 -992.862)" fill="#f5f9f9"/>
          <path id="Path_37797" data-name="Path 37797" d="M613.17,1063.96s-4.786-26.292,37.034-44.841c0,0-4.174,35.548-15.206,47.228,0,0-.3-14.73,45.846-16.127,0,0-19.371,34.629-33.92,42.779,0,0,14.584-8.347,51.709-7.573,0,0-26.613,27.839-45.4,32.737,0,0,12.92-6.444,37.67,0,0,0-39.784,15.877-67.071,15.877Z" transform="translate(-432.279 -718.665)" fill="#a7bd37"/>
        </g>
      </g>
      <g id="Group_15653" data-name="Group 15653" transform="translate(180.725 300.455)">
        <g id="Group_15652" data-name="Group 15652" clip-path="url(#clip-path-6)">
          <path id="Path_37798" data-name="Path 37798" d="M604.9,1072.65l15.98,73.71c2.45,12.45,12.439,21.218,24.11,25.143l-50.364,1.967-3.72-89.641Z" transform="translate(-597.423 -1056.868)" fill="#3e5409"/>
        </g>
      </g>
      <g id="Group_15655" data-name="Group 15655" transform="translate(0 0.001)">
        <g id="Group_15654" data-name="Group 15654" clip-path="url(#clip-path-3)">
          <path id="Path_37800" data-name="Path 37800" d="M132.917,828.546l121.268-.035a7.173,7.173,0,0,0,7.321-8.493L227.4,594.343a10.3,10.3,0,0,0-9.887-8.488l-121.269.035a7.172,7.172,0,0,0-7.321,8.493L123.03,820.058a10.3,10.3,0,0,0,9.888,8.488" transform="translate(-62.637 -413.135)" fill="#38385c"/>
          <path id="Path_37801" data-name="Path 37801" d="M278.766,853.351l-116.837.033L130.648,646.415l116.836-.033Z" transform="translate(-92.13 -455.818)" fill="#b9d4fd"/>
        </g>
      </g>
      <g id="Group_15669" data-name="Group 15669" transform="translate(38.518 190.566)">
        <g id="Group_15668" data-name="Group 15668" clip-path="url(#clip-path-8)">
          <path id="Path_37802" data-name="Path 37802" d="M238.243,636.827l-105.035,8.146,34.549,200.04-18.391-1.183-31.823-211Z" transform="translate(-121.407 -636.828)" fill="#739bfd"/>
          <g id="Group_15658" data-name="Group 15658" transform="translate(19.95 76.247)" opacity="0.2">
            <g id="Group_15657" data-name="Group 15657">
              <g id="Group_15656" data-name="Group 15656" clip-path="url(#clip-path-9)">
                <path id="Path_37803" data-name="Path 37803" d="M321.645,905.006,198.315,1035.154l5.815,38.476L326.484,943.8Z" transform="translate(-198.316 -905.006)" fill="#fff"/>
              </g>
            </g>
          </g>
          <g id="Group_15661" data-name="Group 15661" transform="translate(56.461 118.509)" opacity="0.2">
            <g id="Group_15660" data-name="Group 15660">
              <g id="Group_15659" data-name="Group 15659" clip-path="url(#clip-path-9)">
                <path id="Path_37804" data-name="Path 37804" d="M445.489,1048.356,322.16,1178.5l5.816,38.476,122.353-129.833Z" transform="translate(-322.16 -1048.355)" fill="#fff"/>
              </g>
            </g>
          </g>
          <g id="Group_15664" data-name="Group 15664" transform="translate(11.367 7.412)" opacity="0.2">
            <g id="Group_15663" data-name="Group 15663">
              <g id="Group_15662" data-name="Group 15662" clip-path="url(#clip-path-9)">
                <path id="Path_37805" data-name="Path 37805" d="M292.534,671.523,169.2,801.67l5.815,38.476L297.373,710.313Z" transform="translate(-169.205 -671.523)" fill="#fff"/>
              </g>
            </g>
          </g>
          <g id="Group_15667" data-name="Group 15667" transform="translate(-7.623 -51.847)" opacity="0.2">
            <g id="Group_15666" data-name="Group 15666">
              <g id="Group_15665" data-name="Group 15665" clip-path="url(#clip-path-9)">
                <path id="Path_37806" data-name="Path 37806" d="M228.121,470.52,104.792,600.667l5.815,38.476L232.96,509.31Z" transform="translate(-104.792 -470.52)" fill="#fff"/>
              </g>
            </g>
          </g>
        </g>
      </g>
      <g id="Group_15671" data-name="Group 15671" transform="translate(0 0.001)">
        <g id="Group_15670" data-name="Group 15670" clip-path="url(#clip-path-3)">
          <path id="Path_37808" data-name="Path 37808" d="M302.412,616.993l-22.1.006a2.3,2.3,0,0,1-2.211-1.9,1.6,1.6,0,0,1,1.637-1.9l22.1-.006a2.3,2.3,0,0,1,2.211,1.9,1.6,1.6,0,0,1-1.637,1.9" transform="translate(-196.095 -432.416)" fill="#fff"/>
          <path id="Path_37809" data-name="Path 37809" d="M337.391,926.292c-3.6-16.1-19.565-29.143-35.663-29.143-37.265,2.917-29.7,50.832,18.746,83.859,26.736-24.19,16.917-54.716,16.917-54.716" transform="translate(-196.184 -632.654)" fill="#5f2d79"/>
          <path id="Path_37810" data-name="Path 37810" d="M360.333,962.363c2.38,15.918-19.424,12.352-21.565,0-2.38-15.918,19.424-12.352,21.565,0" transform="translate(-238.765 -671.136)" fill="#fff"/>
          <path id="Path_37811" data-name="Path 37811" d="M381.849,1214.886c1.5,4.261-63.98,4.261-62.477,0-1.5-4.26,63.98-4.26,62.477,0" transform="translate(-225.197 -854.462)" fill="#fff"/>
          <path id="Path_37812" data-name="Path 37812" d="M954.391,587.752a13.059,13.059,0,0,0-13.744-5.294L850.276,600.6l-34.59,24.976,4.962,8.8,2.685,58.288L778.68,724.515l7.144,13.393c75.407-20,67.186-2.584,83.788-81.679l67.747-32.53,54.192,63.012,19.663-16.591Z" transform="translate(-549.11 -410.493)" fill="#38385c"/>
          <path id="Path_37813" data-name="Path 37813" d="M901.163,674.369s10.519-38.291,58.511-44.666c0,0-40.533,19.105-58.511,44.666" transform="translate(-635.483 -444.055)" fill="#1a1a35"/>
          <path id="Path_37814" data-name="Path 37814" d="M923.138,779.641l7.806-74.187-10.734,14.314Z" transform="translate(-648.915 -497.474)" fill="#1a1a35"/>
          <path id="Path_37815" data-name="Path 37815" d="M1161.745,689.563c-6.2-8.146-13.742-3.7-20.118,1.362a49.053,49.053,0,0,1-49.6,3.807l-4.913,34.1,67.747-32.53,54.192,63.012Z" transform="translate(-766.612 -483.097)" fill="#1a1a35"/>
          <path id="Path_37816" data-name="Path 37816" d="M1500.99,783.184l7.313-38.3c1.246-6.966,6.89-12.295,13.666-13.931-8.319-5.713-19.705,3.652-21.029,12.315l-7.312,38.3a12.355,12.355,0,0,0,13.279,14.614,12.351,12.351,0,0,1-5.916-13" transform="translate(-1053.117 -514.22)" fill="#38385c"/>
          <path id="Path_37817" data-name="Path 37817" d="M1534.982,792.361c4.374-15.818,23.037-43.225,5.089-56.843q-.235-.2-.481-.377c-6.777,1.638-12.42,6.964-13.666,13.931l-7.312,38.3a8.782,8.782,0,1,0,16.371,4.988" transform="translate(-1070.738 -518.408)" fill="#1a1a35"/>
          <path id="Path_37818" data-name="Path 37818" d="M1471.259,842.589s-3.044-3.038-1.93-8.87,5.835-30.563,5.835-30.563l-16.222,25.113Z" transform="translate(-1028.818 -566.371)" fill="#1a1a35"/>
          <path id="Path_37819" data-name="Path 37819" d="M714.309,1072.653c-5.05.453-11.87,7.833-11.87,7.833h0c-5.151,4.49-13.423,18.338-10.81,26.154a5.426,5.426,0,0,0,6.151,4.407c12.333-2.533,17.19-19.107,21.122-27.474,1.076-3.005-.643-11.395-4.593-10.92" transform="translate(-487.373 -756.402)" fill="#38385c"/>
        </g>
      </g>
      <g id="Group_15673" data-name="Group 15673" transform="translate(203.759 316.233)">
        <g id="Group_15672" data-name="Group 15672" clip-path="url(#clip-path-14)">
          <path id="Path_37820" data-name="Path 37820" d="M687.607,1125.728c.412,0,8.135,1.44,11.141-.163s16.532-22.24,16.532-22.24l2.705,1.4c-3.772,15.113-6.568,31.638-29.187,29.653Z" transform="translate(-688.646 -1094.276)" fill="#1a1a35"/>
        </g>
      </g>
      <g id="Group_15675" data-name="Group 15675" transform="translate(0 0.001)">
        <g id="Group_15674" data-name="Group 15674" clip-path="url(#clip-path-3)">
          <path id="Path_37822" data-name="Path 37822" d="M758.429,1068.082l-5.555,3.587c-8.616,5.9.174,20.859,7.424,7.974l3.738-1.051Z" transform="translate(-528.397 -753.193)" fill="#ffb6a6"/>
          <path id="Path_37823" data-name="Path 37823" d="M761.533,275.346l-18.332,8.62,19.419,39.942,13.631-9.065-4.167-9.248c4.171-2.774,10.1-6.054,5.8-11.721l-16.353-18.529" transform="translate(-524.091 -194.17)" fill="#ffb6a6"/>
        </g>
      </g>
      <g id="Group_15677" data-name="Group 15677" transform="translate(219.11 81.177)">
        <g id="Group_15676" data-name="Group 15676" clip-path="url(#clip-path-16)">
          <path id="Path_37824" data-name="Path 37824" d="M766.476,291.338s8.032,4.576,21.878-.222l-7.177-8.423Z" transform="translate(-759.614 -280.527)" fill="#ff8370"/>
          <path id="Path_37825" data-name="Path 37825" d="M823.117,338.155s-7.683,1.438-10.012,2.094,8.58,1.18,10.012-2.094" transform="translate(-792.267 -319.638)" fill="#fff"/>
          <path id="Path_37826" data-name="Path 37826" d="M806.648,360.693l-13.193-9.617s10.626-1.106,14.726-1.277,6.56-7.319,6.56-7.319c5.408,4.126-4.745,9.687-6.049,10.723l2.325,6.213Z" transform="translate(-778.639 -322.688)" fill="#ff8370"/>
        </g>
      </g>
      <g id="Group_15679" data-name="Group 15679" transform="translate(0 0.001)">
        <g id="Group_15678" data-name="Group 15678" clip-path="url(#clip-path-3)">
          <path id="Path_37828" data-name="Path 37828" d="M736.993,274.909a96.947,96.947,0,0,0,16.012-3.253l-8.471-.377s12.162-.551,17.974-4.883c0,0-12.144-11.312-24.5-5.178s-10.942,10.99-10.942,10.99c-9.288,8.1,11.165,21.978,13.889,22.78,3.16-5.579,4.124-7.04.192-12.912-4.7,3.949-10.1-6.776-1.958-4.15Z" transform="translate(-511.021 -182.923)" fill="#38385c"/>
          <path id="Path_37829" data-name="Path 37829" d="M720.369,255.865s.946-8.327,10.947-21.5l10.962-7.712c3.459-2.455,3.52-6.963,1.754-10.481a1.258,1.258,0,0,0-1.914-.59L731.5,223.192c-7.976-.285-14,3.019-17.546,8.13-4.864,6.992-3.676,17.765,6.413,24.543" transform="translate(-501.557 -151.861)" fill="#00a599"/>
        </g>
      </g>
      <g id="Group_15681" data-name="Group 15681" transform="translate(209.684 63.489)">
        <g id="Group_15680" data-name="Group 15680" clip-path="url(#clip-path-18)">
          <path id="Path_37830" data-name="Path 37830" d="M766.629,241.552a9.406,9.406,0,0,1-.187,11.174h0s-.347-10.525-5.385-10.981c0,0,3.708-.663,5.572-.192" transform="translate(-746.367 -233.707)" fill="#24817a"/>
        </g>
      </g>
      <g id="Group_15683" data-name="Group 15683" transform="translate(0 0.001)">
        <g id="Group_15682" data-name="Group 15682" clip-path="url(#clip-path-19)">
          <path id="Path_37832" data-name="Path 37832" d="M718.249,268.13c-1.749,2.854-3.776,1.591-1.984-1.236,1.749-2.854,3.777-1.591,1.984,1.236" transform="translate(-504.605 -187.073)" fill="#5f2d79"/>
          <path id="Path_37833" data-name="Path 37833" d="M789.182,404.191c29.134-42.976,85.239,53.568,91.151,58.733,0,0-43.08,4.745-58.511,44.667l-21.4-54.813s-14.706-36.592-11.236-48.587" transform="translate(-556.142 -277.278)" fill="#5f2d79"/>
          <path id="Path_37834" data-name="Path 37834" d="M786.75,396.437l-1.547-4.884a29.485,29.485,0,0,1,21.234-9.35l1.388,2.954s-17.989,4.834-21.076,11.28" transform="translate(-553.71 -269.524)" fill="#5f2d79"/>
          <path id="Path_37835" data-name="Path 37835" d="M741.022,430.485l-19.183,27.747A8.342,8.342,0,0,0,723.5,469.5l11.963,9.543a10.352,10.352,0,0,0,14.65-1.768l17.761-23.014Z" transform="translate(-507.983 -303.571)" fill="#5f2d79"/>
        </g>
      </g>
      <g id="Group_15685" data-name="Group 15685" transform="translate(212.375 126.916)">
        <g id="Group_15684" data-name="Group 15684" clip-path="url(#clip-path-20)">
          <path id="Path_37836" data-name="Path 37836" d="M716.719,521.394c6.5-9.754,36.935,6.06,39.1,7.535l-16.042,16.812s-15.733.276-18.921-2.561-5.591-16.88-4.132-21.785" transform="translate(-717.484 -492.365)" fill="#5f2d79"/>
        </g>
      </g>
      <g id="Group_15687" data-name="Group 15687" transform="translate(0 0.001)">
        <g id="Group_15686" data-name="Group 15686" clip-path="url(#clip-path-19)">
          <path id="Path_37838" data-name="Path 37838" d="M825.208,533.389l16.6-22.271s-1.224,50.465,12.869,66.049c0,0-5.357,8.972-7.079,13.577Z" transform="translate(-581.921 -360.432)" fill="#5f2d79"/>
          <path id="Path_37839" data-name="Path 37839" d="M997.613,352.864l-80.9,7.758-47.706-7.758v-88l47.706-9.139,80.9,9.139Z" transform="translate(-612.81 -180.332)" fill="#d59b70"/>
        </g>
      </g>
      <g id="Group_15689" data-name="Group 15689" transform="translate(256.201 75.392)">
        <g id="Group_15688" data-name="Group 15688" clip-path="url(#clip-path-22)">
          <path id="Path_37840" data-name="Path 37840" d="M1150.385,269.4l-.624,57.826,12.521-1.527.61-54.546Z" transform="translate(-1066.991 -265.366)" fill="#fff"/>
        </g>
      </g>
      <g id="Group_15691" data-name="Group 15691" transform="translate(0 0.001)">
        <g id="Group_15690" data-name="Group 15690" clip-path="url(#clip-path-3)">
          <path id="Path_37842" data-name="Path 37842" d="M916.717,360.622l-47.706-7.758v-88l47.706-9.139Z" transform="translate(-612.81 -180.333)" fill="#eda26a"/>
          <path id="Path_37843" data-name="Path 37843" d="M826.911,536.937c-1.666-.546-14.573,4.683-18.955.27,10.085-12.822.123-6.71-6.8-.547l-66.008-9.7a12.632,12.632,0,0,0-12.608,5.9c-6.063,9.548,3.418,21.071,13.693,20.655l58.679-3.737-.012.028s19.716,3.966,24.288,2.531,8.65-14.515,7.72-15.393" transform="translate(-508.182 -371.505)" fill="#ffb6a6"/>
        </g>
      </g>
      <g id="Group_15693" data-name="Group 15693" transform="translate(212.459 155.317)">
        <g id="Group_15692" data-name="Group 15692" clip-path="url(#clip-path-24)">
          <path id="Path_37844" data-name="Path 37844" d="M713.57,549.116s7.023,11.493,21.311,12.648,52.665,3.729,52.665,3.729c-6.887-.585-72.066,18.152-77.354-2.257,0-4.518,3.378-14.12,3.378-14.12" transform="translate(-713.273 -542.543)" fill="#ff8370"/>
        </g>
      </g>
      <g id="Group_15695" data-name="Group 15695" transform="translate(0 0.001)">
        <g id="Group_15694" data-name="Group 15694" clip-path="url(#clip-path-3)">
          <path id="Path_37846" data-name="Path 37846" d="M1681.683,811.633c-.377-81.738-124.647-81.716-125.008,0,0,0-6.424,65.454,62.5,117.327,68.927-51.872,62.5-117.33,62.5-117.33" transform="translate(-1097.625 -529.126)" fill="#00a599"/>
          <path id="Path_37847" data-name="Path 37847" d="M1731.535,886.194c-.519,30.388-45.729,30.384-46.243,0,.519-30.387,45.729-30.383,46.243,0" transform="translate(-1188.436 -608.858)" fill="#fff"/>
          <path id="Path_37848" data-name="Path 37848" d="M714.718,215.234c-.988-.372-.5-.923-1.377-3.015a.567.567,0,0,1,1.075-.359c.528,1.582.8,2.48.844,2.643l-.543.164.081.561a.528.528,0,0,1-.08.006m-1.957-5.861c-1.094-.5-1.075-2.519-1.707-3.572a.567.567,0,0,1,1.061-.4c.105.959,2.075,3.694.646,3.971m-2.4-6.388c-1.116-.551-1.128-2.462-1.794-3.516a.567.567,0,0,1,1.05-.429c.122.932,2.2,3.664.744,3.945m-2.578-6.309c-1.112-.55-1.181-2.428-1.868-3.467a.567.567,0,0,1,1.039-.455c.143.921,2.309,3.636.829,3.923m-2.734-6.239c-1.108-.548-1.223-2.382-1.936-3.421a.567.567,0,0,1,1.028-.479c.169.926,2.408,3.607.908,3.9m-2.877-6.172c-1.106-.549-1.261-2.336-2-3.377a.567.567,0,0,1,1.017-.5c.195.929,2.5,3.576.982,3.878m-3.013-6.1c-1.1-.549-1.305-2.31-2.06-3.333a.567.567,0,0,1,1.006-.524c.21.914,2.594,3.548,1.054,3.856m-3.144-6.038c-1.1-.548-1.349-2.282-2.118-3.288a.567.567,0,0,1,.995-.545c.229.947,2.68,3.434,1.123,3.832m-3.271-5.969c-1.1-.547-1.39-2.252-2.175-3.242a.567.567,0,0,1,.983-.565c.245.934,2.767,3.4,1.192,3.807m-416.021-1.364a.567.567,0,0,1-.567-.592c0-.05.058-1.258.264-3.467a.567.567,0,0,1,1.129.1c-.435,2.746.222,3.648-.826,3.955m412.626-4.535c-1.1-.546-1.428-2.221-2.229-3.2a.567.567,0,0,1,.193-.778c1.156-.356,1.819,2.394,2.525,3.119a.571.571,0,0,1-.488.855m-412-2.31c-1.25-.273-.031-3.005-.133-4.033a.567.567,0,0,1,1.124.153c-.371,1.011.093,3.606-.991,3.88m408.487-3.515c-1.1-.545-1.467-2.189-2.283-3.149a.567.567,0,0,1,.958-.606c.278.907,2.94,3.334,1.325,3.755m-407.565-3.251c-1.277-.267.065-3.034-.009-4.029a.567.567,0,0,1,1.118.193c-.4.984-.04,3.549-1.109,3.836m403.927-2.5c-1.1-.543-1.505-2.156-2.337-3.1a.567.567,0,0,1,.945-.626c.294.895,3.025,3.3,1.391,3.726m-402.769-4.22c-1.3-.264.151-3.044.105-4.024a.567.567,0,0,1,1.111.229c-.444,1.007-.135,3.439-1.216,3.8M678.436,143c-1.1-.542-1.542-2.122-2.389-3.051a.567.567,0,0,1,.932-.646c.31.882,3.11,3.258,1.457,3.7M280.8,137.783c-1.327-.262.233-3.05.216-4.018a.567.567,0,0,1,1.1.264c-.473,1-.248,3.387-1.318,3.753m393.762-.372c-1.1-.54-1.579-2.086-2.441-3a.567.567,0,0,1,.918-.665c.327.869,3.2,3.216,1.522,3.665m-3.992-5.51c-1.1-.537-1.615-2.05-2.491-2.947a.567.567,0,0,1,.9-.684c.343.856,3.281,3.172,1.587,3.632m-388.182-.742c-1.352-.263.314-3.05.325-4.008a.567.567,0,0,1,1.094.3c-.5.991-.356,3.332-1.419,3.709m384.075-4.681c-1.1-.535-1.651-2.012-2.542-2.894a.567.567,0,0,1,.093-.8c1.1-.5,2.1,2.139,2.9,2.776a.571.571,0,0,1-.448.914m-382.277-1.887c-1.379-.264.4-3.056.436-4a.567.567,0,0,1,1.083.335c-.547,1.005-.439,3.221-1.52,3.66m378.054-3.448c-1.1-.532-1.685-1.973-2.591-2.838a.567.567,0,0,1,.076-.8c1.091-.522,2.146,2.092,2.956,2.713a.571.571,0,0,1-.441.923M286.2,118.085c-1.407-.268.479-3.042.548-3.979a.567.567,0,0,1,1.072.37c-.579,1-.547,3.161-1.62,3.608M657.9,115.9c-1.1-.529-1.72-1.933-2.64-2.781a.567.567,0,0,1,.858-.741c.392.815,3.536,3.026,1.782,3.523m-369.486-4.249c-1.437-.272.564-3.033.663-3.958a.567.567,0,0,1,1.058.406c-.626,1.021-.628,3.05-1.722,3.551m365.038-.9c-1.1-.525-1.754-1.892-2.688-2.723a.567.567,0,0,1,.041-.8c1.067-.569,2.234,2,3.071,2.581a.571.571,0,0,1-.425.942m-4.561-5.047c-1.1-.521-1.787-1.85-2.735-2.663a.567.567,0,0,1,.023-.8c1.054-.592,2.277,1.945,3.128,2.512a.571.571,0,0,1-.416.952M290.859,105.3c-1.468-.279.652-3.021.782-3.932a.567.567,0,0,1,1.044.444c-.673,1.031-.712,2.938-1.826,3.488m353.365-4.536c-1.1-.517-1.819-1.807-2.78-2.6-.524-.515.3-1.328.807-.8.439.769,3.79,2.856,1.973,3.4m-350.7-1.727c-1.5-.288.742-3,.9-3.9a.567.567,0,0,1,1.027.481c-.705,1.014-.822,2.87-1.93,3.42m345.92-3.112c-1.1-.512-1.851-1.762-2.825-2.538a.567.567,0,0,1-.013-.8c1.026-.639,2.362,1.841,3.237,2.37a.571.571,0,0,1-.4.97m-343.03-3.048c-1.533-.383.834-2.936,1.029-3.864a.567.567,0,0,1,1.007.52c-.737.991-.933,2.8-2.036,3.344m338.141-1.682c-.475-.152-3.742-2.833-2.9-3.274,1.012-.662,2.4,1.786,3.29,2.3a.571.571,0,0,1-.389.979M299.536,86.832c-1.569-.4.931-2.915,1.158-3.821a.567.567,0,0,1,.986.56c-.767.964-1.044,2.713-2.144,3.261m330.023-.255c-.5-.191-3.77-2.706-2.961-3.207.995-.687,2.452,1.737,3.342,2.219a.571.571,0,0,1-.38.988m-5.1-4.5c-.515-.22-3.8-2.586-3.022-3.138.977-.711,2.5,1.686,3.392,2.142a.571.571,0,0,1-.37,1M302.9,80.917c-1.605-.412,1.025-2.878,1.29-3.771a.567.567,0,0,1,.962.6c-.8.945-1.155,2.626-2.252,3.171m316.361-3.224c-.554-.264-3.826-2.463-3.08-3.067.961-.732,2.515,1.609,3.441,2.062a.571.571,0,0,1-.36,1.005M306.5,75.147a.57.57,0,0,1-.474-.877c.749-.714,1.55-3.4,2.687-2.983a.567.567,0,0,1,.147.788c-.832.91-1.264,2.53-2.36,3.072m307.457-1.714c-.57-.281-3.865-2.364-3.138-2.994.944-.754,2.554,1.552,3.488,1.981a.57.57,0,0,1-.35,1.013m-303.611-3.9c-1.686-.452,1.227-2.8,1.563-3.647a.567.567,0,0,1,.906.682c-.868.884-1.374,2.428-2.468,2.965m298.21-.239c-.594-.312-3.882-2.234-3.194-2.92.925-.776,2.591,1.493,3.534,1.9a.571.571,0,0,1-.34,1.021m-5.5-4.006c-.633-.351-3.891-2.1-3.249-2.844.907-.8,2.616,1.423,3.578,1.815a.571.571,0,0,1-.329,1.029M314.438,64.107a.57.57,0,0,1-.444-.918c.8-.64,1.849-3.25,2.944-2.729a.567.567,0,0,1,.075.8c-.9.851-1.481,2.317-2.575,2.849m283.033-2.69c-.629-.353-3.922-2-3.3-2.767.888-.819,2.664,1.373,3.619,1.73a.571.571,0,0,1-.318,1.037M318.776,58.871a.57.57,0,0,1-.427-.938c.839-.608,2-3.16,3.07-2.586a.567.567,0,0,1,.037.8c-.925.808-1.584,2.2-2.68,2.724m273.015-1.2c-.657-.381-3.922-1.856-3.353-2.687.869-.841,2.7,1.312,3.66,1.643a.57.57,0,0,1-.307,1.044m-5.766-3.606c-.668-.387-3.948-1.754-3.4-2.607.849-.861,2.731,1.247,3.7,1.556a.571.571,0,0,1-.3,1.051m-262.667-.22c-1.819-.541,1.539-2.642,1.982-3.394.514-.525,1.329.292.8.8-.961.776-1.684,2.075-2.781,2.59M580.175,50.6c-.684-.4-3.971-1.651-3.449-2.526.828-.88,2.754,1.179,3.733,1.468a.57.57,0,0,1-.284,1.058M328.181,49.057a.571.571,0,0,1-.389-.979c.889-.518,2.3-2.948,3.31-2.272a.568.568,0,0,1-.042.8c-.987.734-1.777,1.945-2.878,2.449m246.064-1.786c-.722-.423-3.956-1.512-3.495-2.444.806-.9,2.777,1.111,3.767,1.379a.57.57,0,0,1-.272,1.065M333.236,44.513a.571.571,0,0,1-.368-1c.912-.471,2.448-2.827,3.42-2.1.792.512-2.539,2.882-3.052,3.1m235-.429c-1.131-.4-2.187-1.109-3.285-1.6a.567.567,0,0,1,.508-1.014c.626.5,4.875,1.759,2.777,2.614m-6.081-3.045c-.744-.425-3.99-1.31-3.579-2.277.764-.936,2.824.979,3.827,1.2a.57.57,0,0,1-.248,1.077m-223.641-.807a.57.57,0,0,1-.346-1.016c.931-.421,2.59-2.7,3.523-1.923.715.634-2.61,2.649-3.177,2.939m217.491-2.094c-.745-.42-4-1.208-3.618-2.193.742-.954,2.857.917,3.854,1.11a.57.57,0,0,1-.236,1.083m-212-1.91a.57.57,0,0,1-.323-1.033c.952-.373,2.726-2.562,3.617-1.739.625.752-2.67,2.418-3.295,2.772m205.783-.846c-.785-.441-3.972-1.073-3.655-2.108.719-.971,2.874.848,3.88,1.02a.57.57,0,0,1-.224,1.088m-6.279-2.611c-.8-.438-3.98-.975-3.69-2.024.628-.994,2.932.785,3.9.93a.57.57,0,0,1-.212,1.093M349.7,32.511a.57.57,0,0,1-.3-1.049c.975-.327,2.854-2.418,3.7-1.55.546.84-2.73,2.2-3.4,2.6M537.174,30.3c-.806-.432-3.988-.879-3.722-1.939.6-1.008,2.949.718,3.922.841a.57.57,0,0,1-.2,1.1m-181.6-1.211a.57.57,0,0,1-.273-1.064c.988-.274,2.973-2.269,3.776-1.36.495.886-2.807,2.02-3.5,2.424m175.213-1.11c-.815-.426-3.992-.784-3.752-1.854.581-1.021,2.964.651,3.94.752a.57.57,0,0,1-.187,1.1M361.607,25.975a.57.57,0,0,1-.248-1.077c.994-.221,3.082-2.117,3.839-1.169.4.962-2.856,1.82-3.591,2.246m162.732-.169c-.823-.418-4-.69-3.781-1.77.558-1.035,2.978.585,3.956.664a.569.569,0,0,1-.175,1.106m-6.489-2.032c-.861-.43-3.945-.565-3.807-1.686.536-1.046,2.99.518,3.969.576a.569.569,0,0,1-.163,1.11m-150.057-.611a.57.57,0,0,1-.222-1.088c.969-.171,3.252-1.971,3.891-.979.352.994-2.906,1.643-3.669,2.068m143.524-1.278c-1.146-.259-2.277-.624-3.427-.91a.567.567,0,0,1,.291-1.1c.724.312,5.357.884,3.136,2.005M374.108,20.656a.569.569,0,0,1-.2-1.1c.971-.121,3.342-1.813,3.934-.793.255,1.055-2.933,1.458-3.737,1.891m130.637-.517c-.876-.409-3.941-.388-3.851-1.52.49-1.068,3.01.389,3.99.4a.569.569,0,0,1-.139,1.116m-6.608-1.6c-.882-.4-3.936-.3-3.87-1.438.466-1.079,3.017.325,4,.319a.569.569,0,0,1-.127,1.119m-117.6-.084a.569.569,0,0,1-.171-1.107c.979-.077,3.421-1.657,3.966-.61.2,1.075-2.969,1.3-3.794,1.717M491.5,17.069c-.889-.386-3.931-.219-3.888-1.358.443-1.088,3.024.263,4,.236a.569.569,0,0,1-.116,1.122m-104.44-.528a.569.569,0,0,1-.147-1.114c.978-.031,3.493-1.5,3.989-.434.1,1.122-2.975,1.13-3.842,1.548m97.77-.8c-.894-.373-3.923-.137-3.9-1.278.424-1.1,3.027.2,4.008.154a.569.569,0,0,1-.1,1.124m-91.171-.821a.569.569,0,0,1-.123-1.12c.982.01,3.551-1.352,4-.264.054,1.13-3,.989-3.881,1.384m84.476-.37c-.9-.359-3.891-.056-3.909-1.2.322-1.1,3.067.133,4,.07a.568.568,0,0,1-.093,1.126m-77.814-.971a.568.568,0,0,1-.1-1.125c.979.051,3.6-1.206,4.011-.1.009,1.136-3.017.856-3.911,1.226m71.1-.083c-.958-.364-3.842.055-3.931-1.114.374-1.113,3.017.07,4.012-.014a.568.568,0,0,1-.081,1.128m-6.742-.9c-.962-.346-3.83.146-3.942-1.02.348-1.121,3.019,0,4.01-.109a.568.568,0,0,1-.068,1.13m-57.642-.085a.568.568,0,0,1-.078-1.128c.969.091,3.644-1.066,4.011.054-.094,1.165-3,.717-3.933,1.074m50.881-.657c-.963-.325-3.812.242-3.953-.922.319-1.13,3.024-.078,4.007-.21a.568.568,0,0,1-.054,1.131m-44.134-.158a.568.568,0,0,1-.057-1.131c.96.128,3.686-.933,4.007.2-.134,1.162-3.015.6-3.95.93m37.356-.413c-1.137-.076-2.29-.155-3.427-.218a.567.567,0,0,1,.065-1.132c.946.281,3.78-.344,3.927.823a.567.567,0,0,1-.565.527m-30.581-.157a.567.567,0,0,1-.565-.529c.146-1.166,2.973-.528,3.932-.8a.567.567,0,0,1,.056,1.132c-1.145.055-2.3.126-3.423.2m23.79-.232c-1.134-.048-2.283-.091-3.416-.123a.567.567,0,0,1,.033-1.133c.952.253,3.77-.45,3.949.713a.567.567,0,0,1-.566.542m-17-.1a.567.567,0,0,1-.566-.548c.186-1.16,2.99-.429,3.957-.67a.567.567,0,0,1,.019,1.134c-1.14.019-2.286.048-3.409.084m10.2-.092c-.882-.22-3.889.509-3.965-.588.108-1.121,3.077-.355,3.973-.546a.567.567,0,0,1-.008,1.134" transform="translate(-194.739 -6.687)" fill="#38385c"/>
          <path id="Path_37849" data-name="Path 37849" d="M1891.417,145.986H1766.593c7.008-10.932,19.109-24.932,33.474-19.928,9.1-36.482,61.757-33.742,67.039,3.458,11.073-6.669,25.346,4.488,24.31,16.47" transform="translate(-1245.768 -70.596)" fill="#efeaf1"/>
          <path id="Path_37850" data-name="Path 37850" d="M1506.606,63.4h-88.151a23.493,23.493,0,0,1,20.212-5.182c6.095-14.6,28.09-15.6,35.491-1.622,4.485-3.786,10.469-.083,14.1,3.254,4.331-8.48,16.321-4.318,18.345,3.551" transform="translate(-1000.267 -32.912)" fill="#efeaf1"/>
        </g>
      </g>
    </g>
  </g>
</svg>
