<svg id="Group_15758" data-name="Group 15758" xmlns="http://www.w3.org/2000/svg" xmlns:xlink="http://www.w3.org/1999/xlink" width="1920" height="592" viewBox="0 0 1920 592">
  <defs>
    <clipPath id="clip-path">
      <rect width="952" height="320.847" fill="none"/>
    </clipPath>
    <clipPath id="clip-path-2">
      <rect id="Rectangle_28055" data-name="Rectangle 28055" width="412.09" height="469.45" fill="none"/>
    </clipPath>
    <clipPath id="clip-path-7">
      <rect id="Rectangle_28029" data-name="Rectangle 28029" width="19.988" height="30.954" transform="translate(343.668 211.805)" fill="#00a599"/>
    </clipPath>
    <clipPath id="clip-path-8">
      <rect id="Rectangle_28030" data-name="Rectangle 28030" width="39.889" height="15.56" transform="translate(370.307 244.578)" fill="none"/>
    </clipPath>
  </defs>
  <rect id="Rectangle_1" data-name="Rectangle 1" width="1920" height="592" fill="#f5f9f9"/>
  <g id="En_Logo_White-01" transform="translate(968 191.604)" clip-path="url(#clip-path)">
    <g id="En_Logo_White-01-2" data-name="En_Logo_White-01" transform="translate(-0.12 -1.23)">
      <path id="Path_890" data-name="Path 890" d="M148.288,180.009a23.419,23.419,0,0,1-25.526-5.837,22.07,22.07,0,0,1-6.079-15.573V90.4a24.011,24.011,0,0,0-7.217-17.462A22.1,22.1,0,0,0,93.99,66.691a23,23,0,0,0-16.541,6.733A22.141,22.141,0,0,0,70.74,89.674V158.6q0,28.59,20.15,48.776c13.441,13.441,29.692,20.44,48.776,20.15a75.426,75.426,0,0,0,27.415-5.3c15.282-6.224,18.261-26.616,5.74-37.345-.605-.509-1.187-1.017-1.792-1.526C164.708,177.951,156.014,176.958,148.288,180.009Z" transform="translate(100.411 93.074)" fill="#efeaf1"/>
      <path id="Path_891" data-name="Path 891" d="M70.7,65.8A22.946,22.946,0,0,1,93.663,42.82,22.946,22.946,0,0,1,116.623,65.8H128.1a22.9,22.9,0,0,1,22.959,22.959A22.9,22.9,0,0,1,128.1,111.722H116.623v80.842a22.987,22.987,0,0,0,22.983,22.983,22.528,22.528,0,0,0,16.323-6.66l7.7-9.542a21.8,21.8,0,0,1,16.2-6.781,23.069,23.069,0,0,1,17.558,37.9,78.419,78.419,0,0,1-8.961,10.923q-20.235,20.089-48.824,20.1T90.83,241.339q-20.162-20.162-20.15-48.776V65.8Z" transform="translate(100.326 59.135)" fill="#efeaf1"/>
      <path id="Path_892" data-name="Path 892" d="M188.49,207.41q-20.089,20.089-48.825,20.1-28.59,0-48.776-20.15Q70.728,187.2,70.74,158.585V89.659A22.9,22.9,0,0,1,93.7,66.7a22.9,22.9,0,0,1,22.959,22.959v68.926a22.982,22.982,0,0,0,39.234,16.251,22.163,22.163,0,0,0,6.733-16.251V101.672a22.959,22.959,0,1,1,45.918,0v56.914Q208.616,187.32,188.49,207.41Z" transform="translate(100.411 93.089)" fill="#efeaf1"/>
      <path id="Path_893" data-name="Path 893" d="M116.618,125.125V111.732H128.1a22.9,22.9,0,0,0,22.959-22.959A22.9,22.9,0,0,0,128.1,65.813h-11.48A22.946,22.946,0,0,0,93.659,42.83,22.946,22.946,0,0,0,70.7,65.813v61.346C73.63,126.554,113.712,125.439,116.618,125.125Z" transform="translate(100.354 59.149)" fill="#efeaf1"/>
      <path id="Path_894" data-name="Path 894" d="M283.3,202.52q-20.089,20.089-48.824,20.1-28.59,0-48.776-20.15Q165.538,182.31,165.55,153.7V93.779a22.959,22.959,0,1,1,45.918,0V153.7a22.983,22.983,0,0,0,45.967,0V127.758c0-6.345,2.228-24.7,6.709-29.183a22.959,22.959,0,0,1,39.21,16.251V153.72Q303.426,182.419,283.3,202.52Z" transform="translate(235.217 98.947)" fill="#efeaf1"/>
      <path id="Path_895" data-name="Path 895" d="M234.49,192.582c0-8.089-4.65-15.209-11.7-19.181a21.246,21.246,0,0,1-4.553-3.439,22.2,22.2,0,0,1-6.733-16.251V94.521a24.011,24.011,0,0,0-7.217-17.462,22.1,22.1,0,0,0-15.476-6.248,23.05,23.05,0,0,0-16.565,6.733,22.14,22.14,0,0,0-6.709,16.251v59.917q0,28.59,20.15,48.776a71.176,71.176,0,0,0,15.742,11.988c14.846,8.21,33.01-3.076,33.01-20.029v-1.865Z" transform="translate(235.203 98.932)" fill="#efeaf1"/>
      <path id="Path_896" data-name="Path 896" d="M305.433,77.381q20.09-20.089,48.825-20.1,28.59,0,48.776,20.15,20.163,20.162,20.15,48.776v35.868a22.959,22.959,0,1,1-45.918,0V126.206a22.983,22.983,0,0,0-45.967,0v92.951a22.959,22.959,0,1,1-45.918,0V126.206Q285.271,97.471,305.433,77.381Z" transform="translate(405.597 79.695)" fill="#efeaf1"/>
      <path id="Path_897" data-name="Path 897" d="M356.659,87.3c4.262-18.43-14.483-34.124-31.605-26.132A69.276,69.276,0,0,0,305.461,74.9c-13.466,13.32-20.1,29.668-20.1,48.825v92.224a24.085,24.085,0,0,0,7.193,17.462,22.1,22.1,0,0,0,15.476,6.248,23.051,23.051,0,0,0,16.565-6.733,22.141,22.141,0,0,0,6.709-16.251V123.721c.024-11.552,6.781-17.68,13.126-20.61a22.381,22.381,0,0,0,12.133-15.355C356.586,87.611,356.635,87.441,356.659,87.3Z" transform="translate(405.569 82.18)" fill="#efeaf1"/>
      <path id="Path_898" data-name="Path 898" d="M441.02,193.311q-20.09,20.089-48.825,20.1-28.589,0-48.776-20.15-20.162-20.162-20.15-48.776V99.609a22.959,22.959,0,1,1,45.918,0v44.9a22.983,22.983,0,0,0,45.967,0V129.664a22.959,22.959,0,1,1,45.918,0V144.51Q461.146,173.209,441.02,193.311Z" transform="translate(459.472 107.236)" fill="#efeaf1"/>
      <path id="Path_899" data-name="Path 899" d="M268.79,68.99l.048.121A.623.623,0,0,0,268.79,68.99Z" transform="translate(382.009 96.345)" fill="#efeaf1"/>
      <circle id="Ellipse_281" data-name="Ellipse 281" cx="27.9" cy="27.9" r="27.9" transform="translate(731.931 1.23)" fill="#efeaf1"/>
      <path id="Path_900" data-name="Path 900" d="M99.2,192.182c0-8.089,4.65-15.209,11.7-19.181a21.248,21.248,0,0,0,4.553-3.439,22.2,22.2,0,0,0,6.733-16.251V94.121A24.012,24.012,0,0,1,129.4,76.659a22.1,22.1,0,0,1,15.476-6.248,23.051,23.051,0,0,1,16.566,6.733,22.139,22.139,0,0,1,6.709,16.25v59.917q0,28.59-20.15,48.776a71.173,71.173,0,0,1-15.742,11.988c-14.846,8.21-33.01-3.076-33.01-20.029v-1.865Z" transform="translate(140.877 98.363)" fill="#efeaf1"/>
      <path id="Path_901" data-name="Path 901" d="M292.46,174.11a22.983,22.983,0,0,1-45.967,0V114.726a11.48,11.48,0,0,0-22.959,0v80.405a22.983,22.983,0,0,1-45.967,0V114.726a11.48,11.48,0,0,0-22.959,0V174.11a22.982,22.982,0,0,1-39.21,16.251,22.14,22.14,0,0,1-6.709-16.251V114.726q0-22.959,17.244-40.2,17.219-17.219,40.2-17.244,19.653,0,34.463,11.383,14.822-11.371,34.463-11.383a55.39,55.39,0,0,1,40.615,16.832,55.351,55.351,0,0,1,16.832,40.614V174.11Z" transform="translate(154.371 79.695)" fill="#efeaf1"/>
      <path id="Path_902" data-name="Path 902" d="M292.46,135.046a22.983,22.983,0,0,1-45.967,0V114.726a11.48,11.48,0,0,0-22.959,0v20.319a22.983,22.983,0,0,1-45.967,0V114.726a11.48,11.48,0,0,0-22.959,0v20.319A22.982,22.982,0,0,1,115.4,151.3a22.14,22.14,0,0,1-6.709-16.251V114.726q0-22.959,17.244-40.2,17.219-17.219,40.2-17.244,19.653,0,34.463,11.383,14.822-11.371,34.463-11.383a55.39,55.39,0,0,1,40.615,16.832,55.351,55.351,0,0,1,16.832,40.614v20.319Z" transform="translate(154.371 79.695)" fill="#efeaf1"/>
      <circle id="Ellipse_282" data-name="Ellipse 282" cx="27.9" cy="27.9" r="27.9" transform="translate(233.126 1.593)" fill="#efeaf1"/>
      <circle id="Ellipse_283" data-name="Ellipse 283" cx="27.9" cy="27.9" r="27.9" transform="translate(168.027 1.593)" fill="#efeaf1"/>
      <g id="Group_1621" data-name="Group 1621" transform="translate(0.12 137.048)">
        <g id="Group_1619" data-name="Group 1619" transform="translate(0.024)">
          <path id="Path_903" data-name="Path 903" d="M.13,164.937V132.823q0-30.951,24.17-53.232T82.812,57.31q32.077,0,54.928,20.3t22.838,51c0,7.484-.945,13.635-2.834,18.5s-4.8,8.283-8.694,10.269a35.667,35.667,0,0,1-10.753,3.73,87.113,87.113,0,0,1-12.836.751H48.833v5.667q0,16.239,12.085,26.253,12.061,10.027,32.09,10a61.462,61.462,0,0,0,28.311-7.169c9.3-4.771,15.355-7.169,18.115-7.169q7.919,0,13.223,7.362,5.268,7.375,5.28,14.168,0,10.571-19.06,20.949t-47.371,10.39q-40.4,0-65.874-21.336Q.13,199.691.13,164.937Zm48.7-31.726h55.121c4.02,0,6.854-.654,8.5-1.937,1.623-1.284,2.446-3.827,2.446-7.581a24.622,24.622,0,0,0-9.615-20.1Q95.66,95.854,81.7,95.842a36.673,36.673,0,0,0-23.032,7.58,23.932,23.932,0,0,0-9.809,19.932v9.857Z" transform="translate(-0.13 -57.31)" fill="#efeaf1"/>
        </g>
        <g id="Group_1620" data-name="Group 1620" transform="translate(0 73.939)">
          <path id="Path_904" data-name="Path 904" d="M139.449,146.061q-4.178,0-18.115,7.169A61.237,61.237,0,0,1,93.022,160.4q-20.017,0-32.09-10-12.1-9.99-12.085-26.253V112.2A24.367,24.367,0,0,0,24.484,87.84h0A24.367,24.367,0,0,0,.12,112.2v9.324q0,34.729,25.478,56.066,25.5,21.324,65.874,21.337,28.336,0,47.371-10.39,19.072-10.39,19.06-20.949,0-6.793-5.28-14.168Q147.393,146.049,139.449,146.061Z" transform="translate(-0.12 -87.84)" fill="#efeaf1"/>
        </g>
      </g>
      <path id="Path_905" data-name="Path 905" d="M116.754,143.878a21.652,21.652,0,0,1-6.66,15.863,22.285,22.285,0,0,1-16.372,6.66,22.247,22.247,0,0,1-16.372-6.66,21.692,21.692,0,0,1-6.66-15.863V58.483A21.692,21.692,0,0,1,77.35,42.62a22.285,22.285,0,0,1,16.372-6.66,22.247,22.247,0,0,1,16.372,6.66,21.691,21.691,0,0,1,6.66,15.863Z" transform="translate(100.34 49.381)" fill="#efeaf1"/>
      <path id="Path_906" data-name="Path 906" d="M314.479,82.367l-.049-.1Z" transform="translate(446.903 115.227)" fill="#efeaf1"/>
      <g id="Group_1622" data-name="Group 1622" transform="translate(874.508 137.279)">
        <path id="Path_907" data-name="Path 907" d="M486.732,75.071l2.374,3.972,19.907,11.673,17.656,1.7c-9.591-13.635-29.329-24.267-29.329-24.267h0c-1.744-1.017-3.1-1.7-3.8-2.01-66.48-28.7-133.759,16.929-132.355,84.886.872,42.431,31.073,79.727,68.418,86.823h0c-.581-.436-1.163-.9-1.72-1.356l-.024-.024c-.557-.46-1.066-.92-1.6-1.38-.025,0-.025-.024-.049-.049-.509-.46-1.017-.944-1.478-1.429-.024-.024-.024-.048-.048-.048-.46-.484-.921-.969-1.356-1.453-.024-.048-.073-.073-.1-.121-.412-.484-.824-.945-1.187-1.453a.518.518,0,0,1-.1-.145c-.363-.484-.727-.969-1.066-1.477l-.145-.218c-.315-.484-.63-.969-.921-1.453a1.813,1.813,0,0,0-.169-.291,15.965,15.965,0,0,1-.751-1.429,2.685,2.685,0,0,1-.17-.388c-.218-.46-.411-.92-.605-1.4-.072-.17-.121-.339-.169-.484-.17-.46-.315-.9-.46-1.356-.049-.194-.1-.387-.146-.581-.121-.436-.242-.9-.339-1.356a6.567,6.567,0,0,1-.1-.678q-.109-.654-.218-1.308c-.024-.266-.048-.557-.048-.824-.024-.412-.072-.823-.1-1.235,0-.339,0-.7.024-1.041,0-.363,0-.7.024-1.066.024-.46.073-.92.121-1.4q.037-.4.073-.8c.1-.751.242-1.5.387-2.277a26.115,26.115,0,0,1,1.623-5.038L431.78,220.6l27.875-5.764-1.308-19.883a45.309,45.309,0,0,1-26.107-4.747c-.557-.291-1.09-.581-1.647-.9-.436-.242-.848-.484-1.284-.727a45.786,45.786,0,0,1,41.9-81.18v-.048a46.356,46.356,0,0,1,17.389,13.2l9.2-3.439-12.521-14.386L475.858,86.5l-2.955.872a26.948,26.948,0,0,1,1.453-2.519A22.524,22.524,0,0,1,486.732,75.071Z" transform="translate(-361.161 -57.406)" fill="#efeaf1"/>
        <path id="Path_908" data-name="Path 908" d="M512.349,142.473c.048-10.68-.605-21.167-3.947-31.436-5.062-15.6-12.957-29.014-25.018-39.258-7.023-5.982-16.347-9.058-25.4-7.314A23.793,23.793,0,0,0,441.8,75.508a26.082,26.082,0,0,0-3.415,7.556,17.482,17.482,0,0,0-.412,1.889,24.979,24.979,0,0,0-.388,3.778v.1a13.926,13.926,0,0,0,6.757,12.158,45.8,45.8,0,0,1-18.527,84.644,44.912,44.912,0,0,1-17.825-1.477c-6.805-1.962-14.337-.242-18.648,5.377a19.135,19.135,0,0,0-1.357,1.986,25.913,25.913,0,0,0-3.318,8.452c-.169.775-.291,1.526-.388,2.277q-.036.4-.073.8c-.048.46-.1.945-.121,1.4-.024.363,0,.7-.024,1.066,0,.339-.024.7-.024,1.041.024.412.048.823.1,1.235.024.266.024.557.048.823a12.422,12.422,0,0,0,.218,1.308,6.527,6.527,0,0,1,.1.678c.1.46.218.9.339,1.356l.145.581c.146.46.291.92.46,1.356a2.836,2.836,0,0,0,.169.484c.194.484.388.944.605,1.4a2.73,2.73,0,0,0,.169.388c.243.484.485.969.751,1.429a1.824,1.824,0,0,0,.17.291c.291.484.581.969.92,1.453l.146.218c.339.509.7.993,1.066,1.477a.515.515,0,0,1,.1.145c.388.484.775.969,1.186,1.453.025.048.073.073.1.121.436.484.9.969,1.356,1.453.024.024.024.049.049.049.484.484.968.969,1.477,1.429l.048.048q.763.69,1.6,1.38l.024.024c.267.242.582.46.848.678H396.2a2.077,2.077,0,0,0,.242.194c.218.17.412.339.63.509h0a6.131,6.131,0,0,0,.848.218c1.817.7,5.4,1.719,12.255,2.567q2.47.327,4.941.509c.29.024.533.049.823.073v-.024c14.507.993,28.723-1.889,42.624-7.823,4-1.7,6.346-2.083,9.93,1.114,8.452,7.532,18.527,9.13,28.772,4.069,10.026-4.965,15.282-13.175,15.16-24.8C512.18,183.765,512.252,163.107,512.349,142.473Z" transform="translate(-328.63 -48.058)" fill="#efeaf1"/>
      </g>
      <g id="Group_1623" data-name="Group 1623" transform="translate(492.63 137.594)">
        <path id="Path_909" data-name="Path 909" d="M329.052,75.2l2.373,3.972,19.908,11.673,17.655,1.7c-9.591-13.635-29.329-24.267-29.329-24.267h0c-1.744-1.017-3.1-1.7-3.8-2.01C269.377,37.566,202.1,83.194,203.5,151.151c.872,42.431,31.072,79.728,68.418,86.823h0c-.581-.436-1.163-.9-1.72-1.356l-.024-.024c-.557-.46-1.066-.92-1.6-1.38-.024,0-.024-.024-.049-.048-.508-.46-1.017-.945-1.477-1.429-.024-.024-.024-.048-.049-.048-.46-.484-.92-.969-1.356-1.453-.024-.048-.073-.073-.1-.121-.411-.484-.823-.944-1.186-1.453a.507.507,0,0,1-.1-.145c-.363-.484-.726-.969-1.065-1.477l-.145-.218c-.315-.484-.63-.969-.92-1.453a1.819,1.819,0,0,0-.169-.291c-.266-.46-.533-.945-.751-1.429a2.681,2.681,0,0,1-.169-.387c-.218-.46-.412-.92-.606-1.4-.072-.17-.121-.339-.169-.484-.17-.46-.315-.9-.46-1.356l-.145-.581c-.121-.436-.242-.9-.339-1.356a6.434,6.434,0,0,1-.1-.678q-.109-.654-.218-1.308c-.024-.266-.049-.557-.049-.823-.024-.412-.073-.823-.1-1.235,0-.339,0-.7.024-1.041,0-.363,0-.7.024-1.066.024-.46.072-.92.121-1.4l.073-.8c.1-.751.242-1.5.388-2.276a26.109,26.109,0,0,1,1.623-5.038L274.1,220.73l27.875-5.764-1.308-19.883a45.31,45.31,0,0,1-26.108-4.747c-.557-.291-1.09-.581-1.647-.9-.436-.242-.848-.484-1.284-.726a45.785,45.785,0,0,1,41.9-81.181v-.048a46.356,46.356,0,0,1,17.389,13.2l9.2-3.439L327.6,102.859l-9.421-16.226-2.955.872a26.9,26.9,0,0,1,1.453-2.519A22.716,22.716,0,0,1,329.052,75.2Z" transform="translate(-203.481 -57.536)" fill="#efeaf1"/>
        <path id="Path_910" data-name="Path 910" d="M354.669,142.6c.049-10.68-.605-21.167-3.947-31.436-5.062-15.6-12.957-29.014-25.018-39.258-7.023-5.982-16.348-9.058-25.406-7.314a23.8,23.8,0,0,0-16.178,11.044,26.094,26.094,0,0,0-3.415,7.556,17.541,17.541,0,0,0-.412,1.889,25,25,0,0,0-.387,3.778v.1a13.923,13.923,0,0,0,6.757,12.158,45.8,45.8,0,0,1-18.527,84.644,44.914,44.914,0,0,1-17.825-1.477c-6.805-1.962-14.337-.242-18.648,5.376a19.144,19.144,0,0,0-1.356,1.986,25.912,25.912,0,0,0-3.318,8.452c-.169.775-.29,1.526-.387,2.276q-.036.4-.073.8c-.049.46-.1.945-.121,1.4-.024.363,0,.7-.024,1.066,0,.339-.024.7-.024,1.041.024.412.049.824.1,1.235.024.266.024.557.049.823a12.252,12.252,0,0,0,.218,1.308,6.622,6.622,0,0,1,.1.678c.1.46.218.9.339,1.356l.145.581c.145.46.29.92.46,1.356a2.858,2.858,0,0,0,.169.484c.194.484.388.945.606,1.4a2.7,2.7,0,0,0,.169.388c.242.484.484.969.751,1.429a1.814,1.814,0,0,0,.169.291c.291.484.581.969.92,1.453l.145.218c.339.508.7.993,1.066,1.477a.5.5,0,0,1,.1.145c.388.484.775.969,1.187,1.453.024.048.073.073.1.121.436.484.9.969,1.356,1.453.025.024.025.048.049.048.484.484.969.969,1.477,1.429l.048.048q.763.69,1.6,1.38l.024.024c.266.242.581.46.848.678h-.024a2.1,2.1,0,0,0,.242.194c.218.17.412.339.63.509h0a6.129,6.129,0,0,0,.848.218c1.816.7,5.4,1.72,12.254,2.567q2.471.327,4.941.509c.291.024.533.048.824.073v-.024c14.507.993,28.723-1.889,42.624-7.822,4-1.7,6.345-2.083,9.93,1.114,8.452,7.532,18.527,9.13,28.772,4.069,10.027-4.965,15.282-13.175,15.161-24.8C354.5,183.9,354.573,163.237,354.669,142.6Z" transform="translate(-170.95 -48.188)" fill="#efeaf1"/>
      </g>
    </g>
  </g>
  <g id="Group_15721" data-name="Group 15721" transform="translate(1245.91 61)">
    <g id="Group_15720" data-name="Group 15720" clip-path="url(#clip-path-2)">
      <rect id="Rectangle_27998" data-name="Rectangle 27998" width="26.481" height="11.19" transform="translate(14.771 188.753)" fill="#ebebeb"/>
      <rect id="Rectangle_27999" data-name="Rectangle 27999" width="26.481" height="11.19" transform="translate(0 202.863)" fill="#dbdbdb"/>
      <rect id="Rectangle_28000" data-name="Rectangle 28000" width="26.48" height="11.19" transform="translate(29.544 202.863)" fill="#ebebeb"/>
      <rect id="Rectangle_28001" data-name="Rectangle 28001" width="26.481" height="11.19" transform="translate(370.837 44.431)" fill="#ebebeb"/>
      <rect id="Rectangle_28002" data-name="Rectangle 28002" width="26.481" height="11.19" transform="translate(385.609 58.54)" fill="#dbdbdb"/>
      <rect id="Rectangle_28003" data-name="Rectangle 28003" width="26.481" height="11.19" transform="translate(0 44.443)" fill="#ebebeb"/>
      <rect id="Rectangle_28004" data-name="Rectangle 28004" width="26.481" height="11.19" transform="translate(307.138 322.47)" fill="#dbdbdb"/>
      <rect id="Rectangle_28005" data-name="Rectangle 28005" width="26.48" height="11.19" transform="translate(321.91 308.36)" fill="#ebebeb"/>
      <g id="Group_15699" data-name="Group 15699">
        <g id="Group_15698" data-name="Group 15698" clip-path="url(#clip-path-2)">
          <line id="Line_458" data-name="Line 458" y1="133.803" transform="translate(367.656 0.001)" fill="none" stroke="#c7c7c7" stroke-width="1"/>
        </g>
      </g>
      <path id="Path_37851" data-name="Path 37851" d="M326.256,173.711l3.33,7.32h76.15l3.32-7.32-32.42-22.44h-17.96Z" fill="#ebebeb"/>
      <path id="Path_37852" data-name="Path 37852" d="M356.426,129.651l2.25,21.62h17.96l2.25-21.62Z" fill="#dbdbdb"/>
      <path id="Path_37853" data-name="Path 37853" d="M326.259,173.715l3.33,7.32h76.15l3.32-7.32Z" fill="#dbdbdb"/>
      <g id="Group_15701" data-name="Group 15701">
        <g id="Group_15700" data-name="Group 15700" clip-path="url(#clip-path-2)">
          <line id="Line_459" data-name="Line 459" y1="55.23" transform="translate(302.672 0)" fill="none" stroke="#c7c7c7" stroke-width="1"/>
        </g>
      </g>
      <path id="Path_37854" data-name="Path 37854" d="M261.272,95.137l3.33,7.32h76.15l3.32-7.32L311.652,72.7h-17.96Z" fill="#ebebeb"/>
      <path id="Path_37855" data-name="Path 37855" d="M291.442,51.077l2.25,21.62h17.96l2.25-21.62Z" fill="#dbdbdb"/>
      <path id="Path_37856" data-name="Path 37856" d="M261.276,95.141l3.33,7.32h76.15l3.32-7.32Z" fill="#dbdbdb"/>
      <rect id="Rectangle_28008" data-name="Rectangle 28008" width="111.82" height="6.639" transform="translate(14.683 111.905)" fill="#ebebeb"/>
      <rect id="Rectangle_28009" data-name="Rectangle 28009" width="6.642" height="21.96" transform="translate(23.172 118.547)" fill="#ebebeb"/>
      <rect id="Rectangle_28010" data-name="Rectangle 28010" width="6.642" height="6.787" transform="translate(23.171 118.547)" fill="#dbdbdb"/>
      <rect id="Rectangle_28011" data-name="Rectangle 28011" width="6.642" height="21.96" transform="translate(111.377 118.547)" fill="#ebebeb"/>
      <rect id="Rectangle_28012" data-name="Rectangle 28012" width="6.642" height="6.787" transform="translate(111.377 118.547)" fill="#dbdbdb"/>
      <rect id="Rectangle_28013" data-name="Rectangle 28013" width="10.656" height="42.315" transform="translate(42.945 69.591)" fill="#c7c7c7"/>
      <rect id="Rectangle_28014" data-name="Rectangle 28014" width="10.656" height="4.65" transform="translate(42.945 67.328)" fill="#dbdbdb"/>
      <rect id="Rectangle_28015" data-name="Rectangle 28015" width="10.656" height="1.725" transform="translate(42.945 77.936)" fill="#dbdbdb"/>
      <rect id="Rectangle_28016" data-name="Rectangle 28016" width="11.984" height="4.65" transform="translate(42.945 101.706)" fill="#dbdbdb"/>
      <rect id="Rectangle_28017" data-name="Rectangle 28017" width="7.447" height="49.362" transform="translate(53.601 62.545)" fill="#dbdbdb"/>
      <rect id="Rectangle_28018" data-name="Rectangle 28018" width="4.469" height="18.985" transform="translate(55.058 67.186)" fill="#ebebeb"/>
      <rect id="Rectangle_28019" data-name="Rectangle 28019" width="7.447" height="49.362" transform="matrix(0.703, -0.711, 0.711, 0.703, 73.69, 77.215)" fill="#c7c7c7"/>
      <rect id="Rectangle_28020" data-name="Rectangle 28020" width="4.47" height="18.985" transform="translate(88.12 89.35) rotate(-45.335)" fill="#dbdbdb"/>
      <rect id="Rectangle_28021" data-name="Rectangle 28021" width="12.647" height="37.494" transform="translate(61.044 74.42)" fill="#a6a6a6"/>
      <rect id="Rectangle_28022" data-name="Rectangle 28022" width="12.647" height="3.495" transform="translate(61.044 104.445)" fill="#c7c7c7"/>
      <rect id="Rectangle_28023" data-name="Rectangle 28023" width="12.647" height="1.355" transform="translate(61.044 100.797)" fill="#c7c7c7"/>
      <rect id="Rectangle_28024" data-name="Rectangle 28024" width="8.736" height="35.237" transform="translate(34.209 76.678)" fill="#a6a6a6"/>
      <rect id="Rectangle_28025" data-name="Rectangle 28025" width="8.736" height="3.284" transform="translate(34.209 104.895)" fill="#c7c7c7"/>
      <rect id="Rectangle_28026" data-name="Rectangle 28026" width="8.736" height="3.284" transform="translate(34.209 83.941)" fill="#c7c7c7"/>
      <rect id="Rectangle_28027" data-name="Rectangle 28027" width="8.736" height="1.273" transform="translate(34.209 89.475)" fill="#c7c7c7"/>
      <g id="Group_15703" data-name="Group 15703">
        <g id="Group_15702" data-name="Group 15702" clip-path="url(#clip-path-2)">
          <path id="Path_37857" data-name="Path 37857" d="M404.359,449.032c0,11.277-88.788,20.418-198.314,20.418S7.73,460.309,7.73,449.032s88.789-20.419,198.315-20.419,198.314,9.142,198.314,20.419" fill="#ebebeb"/>
        </g>
      </g>
      <path id="Path_37858" data-name="Path 37858" d="M104.538,406.114l-50.754.088-50.753.243,50.753.243,50.754.088,101.507.168,101.508-.167,50.753-.087,50.754-.245-50.754-.245-50.753-.088-101.508-.166Z" fill="#263238"/>
      <g id="Group_15711" data-name="Group 15711">
        <g id="Group_15710" data-name="Group 15710" clip-path="url(#clip-path-2)">
          <path id="Path_37859" data-name="Path 37859" d="M362.087,242.759s-22.976-3.217-17.605-30.953c0,0,25.671,5.762,17.605,30.953" fill="#00a599"/>
          <g id="Group_15706" data-name="Group 15706" transform="translate(-0.172 -0.337)" opacity="0.1">
            <g id="Group_15705" data-name="Group 15705">
              <g id="Group_15704" data-name="Group 15704" clip-path="url(#clip-path-7)">
                <path id="Path_37860" data-name="Path 37860" d="M362.087,242.759s-22.976-3.217-17.605-30.953c0,0,25.671,5.762,17.605,30.953" fill="#00a599"/>
              </g>
            </g>
          </g>
          <path id="Path_37861" data-name="Path 37861" d="M360.926,236.969c-.449-1.4-.978-2.78-1.565-4.134-.017-.177-.044-.354-.059-.525q-.051-.571-.1-1.145c-.065-.827-.117-1.656-.166-2.484-.1-1.656-.2-3.316-.228-4.974a.071.071,0,0,0-.141,0c-.014,1.661-.039,3.319.025,4.979.032.829.08,1.658.135,2.485.012.184.026.368.039.552a49.221,49.221,0,0,0-4.606-7.878c-.79-1.1-1.62-2.164-2.513-3.185-.916-1.048-1.883-2.046-2.81-3.084-.06-.067-.159.036-.1.1a41.149,41.149,0,0,1,4.429,5.886c.7,1.057,1.356,2.142,1.984,3.244-.071-.028-.143-.055-.214-.084-.272-.113-.544-.225-.819-.331q-.935-.36-1.875-.71c-1.233-.457-2.467-.907-3.7-1.375-.074-.028-.125.1-.051.13,1.221.487,2.431,1,3.638,1.523l1.779.765c.3.128.6.249.9.371a2.936,2.936,0,0,0,.61.215c.463.832.923,1.666,1.345,2.518a60.142,60.142,0,0,1,2.808,6.619c.056.159.11.318.165.476a13.485,13.485,0,0,0-1.883-.907c-.79-.366-1.586-.72-2.377-1.084-1.611-.74-3.213-1.491-4.757-2.363a.07.07,0,0,0-.068.122c1.579.863,3.126,1.781,4.708,2.639.79.429,1.585.846,2.394,1.239a7.558,7.558,0,0,0,2.159.864,27.176,27.176,0,0,1,1.505,6.517c.257,3.136.228,6.3.3,9.442,0,.055.08.051.084,0,.229-2.852.357-5.73.371-8.592a24.964,24.964,0,0,0-1.356-7.834" fill="#263238"/>
          <path id="Path_37862" data-name="Path 37862" d="M357.389,220.658a27.421,27.421,0,0,0-.229,4.892.035.035,0,0,0,.07,0c.092-1.622.107-3.24.295-4.856.01-.089-.126-.123-.136-.034" fill="#263238"/>
          <path id="Path_37863" data-name="Path 37863" d="M350.819,222.046a17.754,17.754,0,0,1-2.955-1.451c-.075-.05-.144.074-.068.122a11.261,11.261,0,0,0,2.985,1.426c.056.015.094-.073.038-.1" fill="#263238"/>
          <path id="Path_37864" data-name="Path 37864" d="M362.821,286.793c-.019-2.539-.067-5.078-.1-7.617-.047-8.432-.117-16.863-.268-25.295q-.18-10.041-.468-20.079a.105.105,0,0,0-.058-.085q-.014-2.743-.029-5.484c0-.047-.054-.069-.109-.068s-.11.025-.11.072q-.017,2.745-.034,5.493a.106.106,0,0,0-.053.079c-.337,11.912-.639,23.828-.71,35.743-.014,2.422-.013,4.845-.023,7.268q-.121,11.652-.089,23.306c-.009,1.237-.023,2.473-.028,3.71-.025,7.108.074,14.215.076,21.323,0,.383.425.573.876.591.516.021,1.065-.185,1.065-.622,0-7.838.054-15.676.053-23.514.025-4.94.043-9.881.006-14.821" fill="#263238"/>
          <path id="Path_37865" data-name="Path 37865" d="M353.226,279.079s-11.051-8.188-21.54-2.656-12.133,26.859-12.133,26.859,15.4,2.2,25.1-7.028c9.346-8.9,8.572-17.175,8.572-17.175" fill="#00a599"/>
          <path id="Path_37866" data-name="Path 37866" d="M356.238,279.584a13.225,13.225,0,0,0-6.4-.836,9.324,9.324,0,0,0-1.354-.132q-.78-.055-1.558-.116c-1.073-.084-2.148-.148-3.222-.228-2.181-.164-4.367-.3-6.543-.515-.077-.008-.093.128-.015.138,2.153.275,4.3.581,6.457.8,1.111.113,2.222.227,3.335.307.262.018.533.048.809.079-.33.073-.659.151-.981.243a26.157,26.157,0,0,0-5.008,2.035c-.871.156-1.735.4-2.589.6-1.368.322-2.729.675-4.088,1.031-2.684.7-5.339,1.493-8,2.268a.07.07,0,0,0,.04.135c2.662-.653,5.337-1.251,8-1.886,1.3-.308,2.593-.612,3.886-.931.334-.082.674-.158,1.016-.234a32.392,32.392,0,0,0-7.855,6.829,42.653,42.653,0,0,0-5.459,8.61c-.039.079.072.155.118.075a41.863,41.863,0,0,1,6.606-8.67c-.048.147-.1.293-.144.441-.206.65-.409,1.3-.614,1.952-.41,1.3-.823,2.6-1.212,3.909-.026.088.106.117.136.034.465-1.261.907-2.53,1.353-3.8q.329-.934.656-1.867c.113-.323.222-.646.331-.97.034-.1.073-.2.107-.3a38.818,38.818,0,0,1,3.919-3.34,29.739,29.739,0,0,1,5.866-3.363c-.038.192-.072.383-.112.566-.108.5-.22,1.007-.324,1.511-.217,1.046-.42,2.1-.624,3.144-.416,2.139-.674,4.3-1.075,6.444-.017.088.116.122.136.034.5-2.151,1.134-4.267,1.614-6.423.239-1.078.483-2.156.707-3.237.1-.505.2-1.011.307-1.516.057-.282.122-.563.155-.846.2-.08.4-.173.6-.248,2.9-1.073,6.1-1.853,9.2-1.259a9.031,9.031,0,0,1,6.651,5.33c.1.24.48.09.424-.156a8.54,8.54,0,0,0-5.246-5.647" fill="#263238"/>
          <path id="Path_37867" data-name="Path 37867" d="M339.32,288.691q-.47,2.1-.932,4.2a30.966,30.966,0,0,0-.773,4.086c0,.055.074.055.09.01a31.654,31.654,0,0,0,.939-4.116q.408-2.073.812-4.147c.017-.088-.116-.122-.136-.034" fill="#263238"/>
          <path id="Path_37868" data-name="Path 37868" d="M328.632,292.251c-1.407.714-2.771,1.525-4.241,2.109a.07.07,0,1,0,.057.127,45.183,45.183,0,0,0,4.217-2.182.032.032,0,0,0-.033-.054" fill="#263238"/>
          <path id="Path_37869" data-name="Path 37869" d="M355.711,264.042S342.2,264.9,335.921,256s-4.873-21.626-4.873-21.626,14.188,1.724,19.822,8.12,4.841,21.551,4.841,21.551" fill="#00a599"/>
          <path id="Path_37870" data-name="Path 37870" d="M362.05,277.369c-.467-1.447-1.047-2.873-1.593-4.292q-.787-2.046-1.681-4.047a83.748,83.748,0,0,0-4.048-7.958c-.953-1.641-1.974-3.234-3.026-4.8-.022-.239-.07-.478-.106-.719-.063-.418-.123-.836-.188-1.254-.134-.855-.284-1.708-.426-2.561-.311-1.865-.7-3.718-.993-5.585-.014-.088-.153-.086-.14,0,.273,1.843.458,3.7.716,5.542.127.906.245,1.813.383,2.718.05.326.1.653.153.98a97.2,97.2,0,0,0-6.681-8.667c-.323-.373-.656-.736-.986-1.1-.033-.1-.084-.2-.125-.309q-.15-.386-.294-.774c-.2-.535-.392-1.073-.585-1.61-.38-1.058-.719-2.125-1.006-3.212-.023-.088-.156-.047-.134.041.273,1.108.56,2.215.885,3.31.156.528.33,1.05.516,1.569.032.088.065.174.1.261-1.726-1.882-3.527-3.7-5.346-5.488-.064-.063-.159.037-.1.1a96.575,96.575,0,0,1,9.571,11.723,8.822,8.822,0,0,0-1-.253c-1.039-.2-2.089-.349-3.139-.483-2.2-.28-4.395-.558-6.587-.9-.088-.013-.123.119-.034.137,2.093.412,4.167.884,6.246,1.361.981.225,1.965.417,2.952.612a18.758,18.758,0,0,1,2.372.676c.218.313.444.62.66.934.991,1.443,1.942,2.914,2.873,4.4-.459-.092-.919-.179-1.378-.269q-1.564-.3-3.139-.564c-2.06-.338-4.121-.7-6.157-1.16a.07.07,0,0,0-.034.136c2.065.485,4.112,1.051,6.162,1.6.988.263,1.986.505,2.985.725.5.111,1,.222,1.5.324a3.513,3.513,0,0,0,.608.1q2.958,4.8,5.538,9.815,1.131,2.205,2.182,4.449c.722,1.533,1.34,3.1,2.006,4.655.133.311.626.183.517-.156" fill="#263238"/>
          <path id="Path_37871" data-name="Path 37871" d="M348.225,246.327q-.387-1.932-.815-3.856c-.02-.088-.152-.047-.134.041q.384,1.9.729,3.8a38.173,38.173,0,0,0,.766,3.784.022.022,0,0,0,.042-.006,27,27,0,0,0-.588-3.767" fill="#263238"/>
          <path id="Path_37872" data-name="Path 37872" d="M340.346,245.951c-.627-.312-1.289-.565-1.941-.817q-.513-.2-1.024-.4l-.522-.209a2.554,2.554,0,0,1-.57-.25c-.1-.077-.167.1-.066.119a2.492,2.492,0,0,1,.578.236l.511.228.986.44a19.015,19.015,0,0,0,1.995.79.074.074,0,0,0,.053-.136" fill="#263238"/>
          <path id="Path_37873" data-name="Path 37873" d="M369.536,253.422s8.175-15.269,20.611-17.634,20.047,10.431,20.047,10.431-9.071,11.584-20.483,13.606-20.175-6.4-20.175-6.4" fill="#00a599"/>
          <path id="Path_37874" data-name="Path 37874" d="M398.481,242.631a33.635,33.635,0,0,0-9.753.116c.186-.1.372-.2.555-.3.923-.468,1.84-.944,2.759-1.421,1.909-.993,3.839-2.051,5.839-2.851a.07.07,0,1,0-.058-.127c-1.945.907-3.961,1.665-5.913,2.563-.976.448-1.936.916-2.885,1.42-.613.325-1.293.632-1.9,1.021a34.313,34.313,0,0,0-7.9,2.626q.777-.847,1.555-1.694c1.159-1.268,2.3-2.6,3.572-3.757.067-.06-.035-.157-.1-.1-1.3,1.182-2.676,2.276-3.938,3.505-.612.6-1.2,1.214-1.769,1.85-.285.317-.57.645-.841.983a32.772,32.772,0,0,0-16.672,22.514c-.018.085.106.134.132.045a37.585,37.585,0,0,1,9.142-15.471,35.938,35.938,0,0,1,16.661-9.638,36.467,36.467,0,0,1,11.5-1.045.123.123,0,0,0,.017-.245" fill="#263238"/>
          <g id="Group_15709" data-name="Group 15709" opacity="0.1">
            <g id="Group_15708" data-name="Group 15708">
              <g id="Group_15707" data-name="Group 15707" clip-path="url(#clip-path-8)">
                <path id="Path_37875" data-name="Path 37875" d="M410.2,246.22s-9.073,11.585-20.488,13.6c-8.705,1.544-15.866-3-18.773-5.231l-.628-1.032s5.886-4.963,17.023-7.826,22.866.485,22.866.485"/>
              </g>
            </g>
          </g>
          <path id="Path_37876" data-name="Path 37876" d="M391.259,237.187a30.922,30.922,0,0,0-2.762,1.823,17.629,17.629,0,0,0-2.4,2.194.074.074,0,0,0,.107.1c.825-.717,1.655-1.435,2.512-2.114a26.439,26.439,0,0,1,2.616-1.886.07.07,0,0,0-.074-.119" fill="#263238"/>
          <path id="Path_37877" data-name="Path 37877" d="M398.083,239.772c-.461.192-.931.358-1.392.549l-1.384.575c-.1.041-.052.2.048.161l1.388-.563c.464-.187.917-.4,1.381-.588.083-.033.042-.169-.041-.134" fill="#263238"/>
          <path id="Path_37878" data-name="Path 37878" d="M367.9,272.638s2.184,15.146,13.574,20.445,25.275,0,25.275,0-5.46-32.771-38.849-20.445" fill="#00a599"/>
          <path id="Path_37879" data-name="Path 37879" d="M398.907,283.23c-1.051-.12-2.1-.3-3.135-.489q-.767-.139-1.531-.289c-.258-.051-.528-.113-.8-.16-.307-.286-.609-.577-.923-.854a46.066,46.066,0,0,0-6.966-5.05,39.122,39.122,0,0,0-4.175-2.145l.215.01c1.25.053,2.5.1,3.749.162,2.5.116,5,.172,7.5.333.09.006.086-.134,0-.14-2.507-.17-5-.446-7.506-.661q-1.821-.157-3.642-.324c-.626-.056-1.251-.109-1.877-.163-.16-.014-.321-.034-.48-.052-.65-.242-1.3-.471-1.966-.676a17.765,17.765,0,0,0-9.648-.533c-2.865.734-5.724,2.611-6.466,5.632-.026.105.136.177.181.072,1.068-2.525,3.87-3.8,6.4-4.32a15.244,15.244,0,0,1,5.158-.1,12.224,12.224,0,0,0,.575,2.29c.315,1.065.626,2.133.949,3.2.646,2.127,1.357,4.235,1.987,6.366a.07.07,0,0,0,.134-.04c-.529-2.126-.976-4.271-1.488-6.4-.252-1.046-.514-2.089-.774-3.133a17.942,17.942,0,0,0-.573-2.154,27.376,27.376,0,0,1,2.956.7,43.509,43.509,0,0,1,5.161,1.891c.167,1.08.408,2.151.656,3.215.312,1.337.659,2.662,1.082,3.968a.067.067,0,0,0,.128-.038l-.051-.247,0,0c-.255-1.239-.528-2.473-.79-3.711-.21-1-.4-2-.62-3,1.415.635,2.8,1.33,4.151,2.1.027.308.1.624.148.905.082.52.176,1.037.271,1.554.215,1.169.447,2.334.727,3.488a54.855,54.855,0,0,0,1.958,6.587.071.071,0,0,0,0,.088l.065.076c.049.057.13-.01.115-.071-.527-2.245-1.128-4.47-1.622-6.724-.246-1.124-.494-2.249-.72-3.378-.113-.564-.216-1.13-.323-1.7-.03-.158-.053-.332-.079-.506a47.34,47.34,0,0,1,4.435,2.958,47.884,47.884,0,0,1,6.789,6.2c.081.091.242-.037.167-.136a42.488,42.488,0,0,0-2.715-3.311c-.572-.614-1.167-1.207-1.773-1.788l.189.033c.533.09,1.068.169,1.6.241,1.053.141,2.11.244,3.166.364.089.01.123-.126.034-.136" fill="#263238"/>
          <path id="Path_37880" data-name="Path 37880" d="M390.9,288.366h0c-.018-.131-.04-.262-.065-.392-.033-.168-.114-.328-.138-.5l0-.005c-.235-1.012-.433-2.031-.616-3.056-.013-.071-.126-.05-.123.02a12.361,12.361,0,0,0,.866,3.954c.015.04.087.036.081-.013l0-.011" fill="#263238"/>
          <path id="Path_37881" data-name="Path 37881" d="M381.369,288.123a.068.068,0,0,0-.068-.064c-.319-1.341-.627-2.683-.9-4.034-.146-.71-.294-1.419-.43-2.131q-.109-.575-.212-1.151a3.369,3.369,0,0,0-.246-.985.07.07,0,0,0-.127.02,6.655,6.655,0,0,0,.285,2.033c.14.739.283,1.478.446,2.212.33,1.494.7,2.983,1.126,4.454a.078.078,0,0,0,.152-.024c-.008-.11-.015-.22-.023-.33" fill="#263238"/>
          <path id="Path_37882" data-name="Path 37882" d="M397.868,278.868c-2.08-.285-4.159-.586-6.243-.839-.088-.01-.124.123-.034.137,2.077.306,4.161.564,6.243.838.088.012.124-.124.034-.136" fill="#263238"/>
          <path id="Path_37883" data-name="Path 37883" d="M362.07,237.114s-6.969-30.577,25.884-42.95c0,0,9.1,40.248-25.884,42.95" fill="#00a599"/>
          <path id="Path_37884" data-name="Path 37884" d="M369.161,219.773c.124-.079.242-.154.352-.214.622-.342,1.238-.692,1.857-1.038l3.811-2.131c2.507-1.4,4.983-2.861,7.507-4.234.079-.043.006-.163-.074-.12-2.529,1.376-5.1,2.663-7.647,4.008l-3.766,1.991-1.538.812c1.1-2.078,2.267-4.116,3.553-6.078,1.717-2.619,3.6-5.114,5.557-7.555a.112.112,0,0,0-.162-.155,52.2,52.2,0,0,0-7.6,9.313c0-.107,0-.216.01-.318.037-.761.057-1.521.068-2.283.022-1.492-.05-2.987,0-4.478,0-.09-.136-.086-.14,0-.061,1.468-.238,2.933-.322,4.4q-.062,1.1-.1,2.2c-.011.4-.049.848-.034,1.282q-1.016,1.614-1.941,3.276a56.656,56.656,0,0,0-2.936,6.158c-.033-.762-.079-1.523-.124-2.284-.1-1.674-.3-3.341-.373-5.016a.07.07,0,0,0-.14,0c.035,1.675-.043,3.35.009,5.026.026.837.051,1.673.106,2.509.02.307.037.621.058.934a55.561,55.561,0,0,0-2.481,8.4,90.3,90.3,0,0,0-1.224,9.234c0,.022.033.021.035,0a49.771,49.771,0,0,1,1.743-8.233c.407-1.443.835-2.879,1.3-4.3,1.367-.643,2.676-1.447,4-2.179,1.37-.759,2.749-1.5,4.123-2.255,2.739-1.5,5.476-3.033,8.3-4.361.082-.039.007-.156-.074-.12-2.865,1.3-5.751,2.531-8.563,3.944-1.4.7-2.777,1.455-4.142,2.224-1.141.642-2.313,1.286-3.4,2.025.319-.951.651-1.9,1.014-2.836a82.068,82.068,0,0,1,3.378-7.552" fill="#263238"/>
          <path id="Path_37885" data-name="Path 37885" d="M366.392,212.782c-.007-.09-.146-.087-.14,0,.118,1.745.177,3.488.362,5.228a.077.077,0,0,0,.154,0c-.061-1.748-.248-3.483-.376-5.227" fill="#263238"/>
          <path id="Path_37886" data-name="Path 37886" d="M382.143,218.622c-2.057.828-4.131,1.614-6.177,2.471-.057.023-.031.116.029.093,2.076-.777,4.124-1.624,6.189-2.43.083-.032.043-.168-.041-.134" fill="#263238"/>
          <path id="Path_37887" data-name="Path 37887" d="M385.265,204.519a54.086,54.086,0,0,0-5.842,3.134.088.088,0,0,0,.092.149c1.9-1.114,3.846-2.183,5.824-3.164.081-.04.006-.156-.074-.119" fill="#263238"/>
          <rect id="Rectangle_28031" data-name="Rectangle 28031" width="47.379" height="49.94" transform="translate(337.391 303.234)" fill="#37474f"/>
          <rect id="Rectangle_28032" data-name="Rectangle 28032" width="2.424" height="85.54" transform="translate(334.13 320.905)" fill="#263238"/>
          <rect id="Rectangle_28033" data-name="Rectangle 28033" width="2.424" height="85.54" transform="translate(385.35 320.905)" fill="#263238"/>
          <rect id="Rectangle_28034" data-name="Rectangle 28034" width="2.424" height="85.54" transform="translate(361.03 320.905)" fill="#263238"/>
          <rect id="Rectangle_28035" data-name="Rectangle 28035" width="51.22" height="6.915" transform="translate(335.342 349.972)" fill="#263238"/>
        </g>
      </g>
      <g id="Group_15713" data-name="Group 15713">
        <g id="Group_15712" data-name="Group 15712" clip-path="url(#clip-path-2)">
          <path id="Path_37888" data-name="Path 37888" d="M287.621,54.546H124.449a16.657,16.657,0,0,0-16.5,16.813v335.89a16.67,16.67,0,0,0,16.5,16.814H287.621a16.686,16.686,0,0,0,16.524-16.814V71.359a16.673,16.673,0,0,0-16.524-16.813m6.2,342.318c0,8.841-6.621,15.993-14.787,15.993H133.058c-8.184,0-14.805-7.152-14.805-15.993V84.09c0-18.011,6.621-18.889,14.805-18.889H162.3c1.7,0,3.089,1.93,3.089,4.324v1.033c0,5.608,3.069,5.627,6.833,5.627h67.62c3.8,0,6.853-.019,6.853-5.627V69.525c0-2.394,1.371-4.324,3.1-4.324h29.235c8.166,0,14.787,2.394,14.787,18.889Z" fill="#263238"/>
          <path id="Path_37889" data-name="Path 37889" d="M293.827,84.365V397.139c0,8.841-6.621,15.993-14.786,15.993H133.068c-8.185,0-14.806-7.152-14.806-15.993V84.365c0-18.01,6.621-18.888,14.806-18.888h29.244c1.7,0,3.089,1.93,3.089,4.324v1.032c0,5.608,3.069,5.627,6.833,5.627h67.62c3.8,0,6.853-.019,6.853-5.627V69.8c0-2.394,1.371-4.324,3.1-4.324h29.236c8.165,0,14.786,2.393,14.786,18.888" fill="#fff"/>
          <path id="Path_37890" data-name="Path 37890" d="M293.827,84.369v28.376H118.262V84.369c0-18.01,6.621-18.888,14.806-18.888h29.244c1.7,0,3.089,1.93,3.089,4.323v1.033c0,5.608,3.069,5.627,6.833,5.627h67.62c3.8,0,6.853-.019,6.853-5.627V69.8c0-2.393,1.371-4.323,3.1-4.323h29.236c8.165,0,14.786,2.393,14.786,18.888" fill="#5f2d79"/>
          <path id="Path_37891" data-name="Path 37891" d="M215.263,69.181H196.818a1.139,1.139,0,0,1,0-2.279h18.445a1.139,1.139,0,0,1,0,2.279" fill="#fff"/>
          <path id="Path_37892" data-name="Path 37892" d="M157.253,72.226l-.283.281-.16.16a3.843,3.843,0,0,0-5.446,0c-.051-.053-.1-.107-.153-.16-.092-.094-.186-.187-.279-.28l-.008-.005v-.007l.02-.017c.12-.105.235-.215.358-.316a4.422,4.422,0,0,1,1.921-.9c.181-.033.365-.05.547-.072.062-.008.467-.009.479-.008.124.009.249.014.373.028a4.2,4.2,0,0,1,1.005.24,4.414,4.414,0,0,1,.679.318,4.292,4.292,0,0,1,.649.454c.1.086.2.179.3.268Z" fill="#fff"/>
          <path id="Path_37893" data-name="Path 37893" d="M152.26,73.555l-.447-.443a3.217,3.217,0,0,1,4.549-.006l-.448.446a2.584,2.584,0,0,0-3.654,0" fill="#fff"/>
          <path id="Path_37894" data-name="Path 37894" d="M155.468,74l-.444.444a1.321,1.321,0,0,0-1.872,0L152.709,74a1.939,1.939,0,0,1,2.759,0" fill="#fff"/>
          <path id="Path_37895" data-name="Path 37895" d="M154.489,74.848a.4.4,0,1,1-.4-.4.4.4,0,0,1,.4.4" fill="#fff"/>
          <path id="Path_37896" data-name="Path 37896" d="M129.7,73.08a1.164,1.164,0,1,1,1.163,1.163A1.163,1.163,0,0,1,129.7,73.08" fill="#fff"/>
          <path id="Path_37897" data-name="Path 37897" d="M133.369,73.08a1.163,1.163,0,1,1,1.164,1.163,1.163,1.163,0,0,1-1.164-1.163" fill="#fff"/>
          <path id="Path_37898" data-name="Path 37898" d="M137.034,73.08a1.163,1.163,0,1,1,1.163,1.163,1.163,1.163,0,0,1-1.163-1.163" fill="#fff"/>
          <path id="Path_37899" data-name="Path 37899" d="M140.7,73.08a1.163,1.163,0,1,1,1.163,1.163A1.163,1.163,0,0,1,140.7,73.08" fill="#fff"/>
          <path id="Path_37900" data-name="Path 37900" d="M144.363,73.08a1.163,1.163,0,1,1,1.164,1.163,1.163,1.163,0,0,1-1.164-1.163" fill="#fff"/>
          <path id="Path_37901" data-name="Path 37901" d="M280.651,75.62h-9.472V71.232h9.472Zm-8.989-.483h8.507V71.715h-8.507Z" fill="#fff"/>
          <rect id="Rectangle_28037" data-name="Rectangle 28037" width="6.106" height="2.897" transform="translate(271.964 71.977)" fill="#fff"/>
          <rect id="Rectangle_28038" data-name="Rectangle 28038" width="0.843" height="2.347" transform="translate(280.656 72.252)" fill="#fff"/>
          <path id="Path_37902" data-name="Path 37902" d="M134.891,101.888l-5.187-4.86,5.187-4.859.8.857-4.271,4,4.271,4Z" fill="#fff"/>
          <path id="Path_37903" data-name="Path 37903" d="M277.9,102.239h-3.5v-1.215a.279.279,0,0,0-.156-.246,4.036,4.036,0,0,1-.388-.225.278.278,0,0,0-.293-.013l-1.056.608-1.747-3.028,1.056-.609a.279.279,0,0,0,.132-.259c0-.077-.006-.15-.006-.224s0-.146.005-.218a.282.282,0,0,0-.132-.265l-1.055-.608,1.747-3.028,1.054.608a.278.278,0,0,0,.292-.013,4.321,4.321,0,0,1,.391-.226.278.278,0,0,0,.156-.246V91.817h3.5v1.215a.277.277,0,0,0,.155.246,4.321,4.321,0,0,1,.391.226.278.278,0,0,0,.292.013l1.054-.608,1.747,3.028-1.057.609a.28.28,0,0,0-.133.261c0,.075.006.148.006.221s0,.146-.005.219a.279.279,0,0,0,.13.262l1.058.611-1.746,3.028-1.056-.608a.28.28,0,0,0-.291.012,3.77,3.77,0,0,1-.39.226.279.279,0,0,0-.155.246Zm-2.747-.75h2v-.465a1.023,1.023,0,0,1,.565-.914,3.485,3.485,0,0,0,.319-.185,1.025,1.025,0,0,1,1.077-.035l.4.234,1-1.729-.409-.237a1.024,1.024,0,0,1-.5-.947l0-.183-.005-.185a1.027,1.027,0,0,1,.507-.947l.406-.234-1-1.729-.4.233a1.025,1.025,0,0,1-1.077-.034,3.264,3.264,0,0,0-.321-.185,1.023,1.023,0,0,1-.565-.915v-.465h-2v.465a1.022,1.022,0,0,1-.567.915,3.366,3.366,0,0,0-.32.185,1.021,1.021,0,0,1-1.077.034l-.4-.233-1,1.729.4.233a1.029,1.029,0,0,1,.507.95l-.005.183.005.188a1.026,1.026,0,0,1-.506.945l-.405.234,1,1.729.4-.234a1.023,1.023,0,0,1,1.077.035,3.5,3.5,0,0,0,.32.185,1.025,1.025,0,0,1,.565.914Zm1-1.837a2.625,2.625,0,1,1,2.626-2.624,2.627,2.627,0,0,1-2.626,2.624m0-4.5a1.875,1.875,0,1,0,1.876,1.875,1.876,1.876,0,0,0-1.876-1.875" fill="#fff"/>
          <rect id="Rectangle_28039" data-name="Rectangle 28039" width="18.256" height="18.256" transform="translate(143.402 330.642)" fill="#ebebeb"/>
          <rect id="Rectangle_28040" data-name="Rectangle 28040" width="18.256" height="18.256" transform="translate(170.084 330.642)" fill="#ebebeb"/>
          <rect id="Rectangle_28041" data-name="Rectangle 28041" width="18.256" height="18.256" transform="translate(196.766 330.642)" fill="#ebebeb"/>
          <rect id="Rectangle_28042" data-name="Rectangle 28042" width="18.256" height="18.256" transform="translate(223.448 330.642)" fill="#ebebeb"/>
          <rect id="Rectangle_28043" data-name="Rectangle 28043" width="18.256" height="18.256" transform="translate(250.13 330.642)" fill="#ebebeb"/>
          <rect id="Rectangle_28044" data-name="Rectangle 28044" width="124.984" height="1.97" transform="translate(142.841 358.518)" fill="#ebebeb"/>
          <rect id="Rectangle_28045" data-name="Rectangle 28045" width="124.984" height="1.97" transform="translate(142.841 363.723)" fill="#ebebeb"/>
          <rect id="Rectangle_28046" data-name="Rectangle 28046" width="124.984" height="1.97" transform="translate(142.841 368.928)" fill="#ebebeb"/>
          <rect id="Rectangle_28047" data-name="Rectangle 28047" width="58.021" height="1.97" transform="translate(142.841 374.132)" fill="#ebebeb"/>
        </g>
      </g>
      <g id="Group_15715" data-name="Group 15715">
        <g id="Group_15714" data-name="Group 15714" clip-path="url(#clip-path-2)">
          <path id="Path_37904" data-name="Path 37904" d="M324.047,121.6a16.455,16.455,0,0,1-.495-4.267,16.283,16.283,0,0,1,.5-4.266,16.28,16.28,0,0,1,.495,4.267,16.455,16.455,0,0,1-.5,4.266" fill="#263238"/>
          <path id="Path_37905" data-name="Path 37905" d="M315.36,124.1a16.489,16.489,0,0,1-2.562-3.448,16.27,16.27,0,0,1-1.7-3.946,16.263,16.263,0,0,1,2.561,3.447,16.488,16.488,0,0,1,1.7,3.947" fill="#263238"/>
          <path id="Path_37906" data-name="Path 37906" d="M309.088,130.614a18.467,18.467,0,0,1-7.383-4.274,16.287,16.287,0,0,1,3.942,1.7,16.462,16.462,0,0,1,3.441,2.57" fill="#263238"/>
          <path id="Path_37907" data-name="Path 37907" d="M306.911,139.392a16.44,16.44,0,0,1-4.265.495,16.276,16.276,0,0,1-4.265-.5,16.273,16.273,0,0,1,4.266-.495,16.44,16.44,0,0,1,4.264.5" fill="#263238"/>
          <path id="Path_37908" data-name="Path 37908" d="M309.414,148.083a16.516,16.516,0,0,1-3.446,2.563,16.282,16.282,0,0,1-3.945,1.7,18.466,18.466,0,0,1,7.391-4.259" fill="#263238"/>
          <path id="Path_37909" data-name="Path 37909" d="M315.925,154.358a16.464,16.464,0,0,1-1.7,3.943,16.274,16.274,0,0,1-2.568,3.443,16.253,16.253,0,0,1,1.7-3.943,16.5,16.5,0,0,1,2.569-3.443" fill="#263238"/>
          <path id="Path_37910" data-name="Path 37910" d="M324.7,156.535a16.457,16.457,0,0,1,.495,4.267,16.281,16.281,0,0,1-.5,4.266,16.279,16.279,0,0,1-.495-4.267,16.453,16.453,0,0,1,.5-4.266" fill="#263238"/>
          <path id="Path_37911" data-name="Path 37911" d="M333.388,154.031a16.489,16.489,0,0,1,2.562,3.448,16.27,16.27,0,0,1,1.695,3.946,16.263,16.263,0,0,1-2.561-3.447,16.489,16.489,0,0,1-1.7-3.947" fill="#263238"/>
          <path id="Path_37912" data-name="Path 37912" d="M339.66,147.518a18.435,18.435,0,0,1,7.383,4.274,16.25,16.25,0,0,1-3.942-1.705,16.456,16.456,0,0,1-3.441-2.569" fill="#263238"/>
          <path id="Path_37913" data-name="Path 37913" d="M341.836,138.739a16.44,16.44,0,0,1,4.265-.495,16.271,16.271,0,0,1,4.265.5,16.272,16.272,0,0,1-4.266.495,16.439,16.439,0,0,1-4.264-.5" fill="#263238"/>
          <path id="Path_37914" data-name="Path 37914" d="M339.333,130.048a16.483,16.483,0,0,1,3.446-2.563,16.266,16.266,0,0,1,3.945-1.7,18.466,18.466,0,0,1-7.391,4.259" fill="#263238"/>
          <path id="Path_37915" data-name="Path 37915" d="M332.822,123.773a16.474,16.474,0,0,1,1.7-3.942,16.274,16.274,0,0,1,2.568-3.443,18.439,18.439,0,0,1-4.272,7.385" fill="#263238"/>
        </g>
      </g>
      <g id="Group_15717" data-name="Group 15717">
        <g id="Group_15716" data-name="Group 15716" clip-path="url(#clip-path-2)">
          <path id="Path_37920" data-name="Path 37920" d="M18.438,152.49a24.835,24.835,0,0,0,39.646,19.945l12.17,3.108L65.188,164.21a24.844,24.844,0,1,0-46.75-11.72" fill="#fff"/>
          <path id="Path_37921" data-name="Path 37921" d="M18.438,152.49a24.969,24.969,0,0,0,3.756,13,22.3,22.3,0,0,0,4.362,5.238,23.114,23.114,0,0,0,5.624,3.836,24.493,24.493,0,0,0,6.447,2.143,24.011,24.011,0,0,0,3.38.359,21.378,21.378,0,0,0,3.4-.057,24.473,24.473,0,0,0,12.469-4.856l.133-.1.168.042,12.191,3.027-.509.6-5.106-11.316-.1-.214.112-.211A24.83,24.83,0,0,0,67.629,153.4a24.534,24.534,0,0,0-2.043-10.783,25.6,25.6,0,0,0-6.549-8.837,24.427,24.427,0,0,0-9.783-5.1,24.785,24.785,0,0,0-11.075-.325A24.679,24.679,0,0,0,18.438,152.49m0,0a24.986,24.986,0,0,1,9.529-19.631,24.8,24.8,0,0,1,21.42-4.709,25.068,25.068,0,0,1,10.13,5.059,25.416,25.416,0,0,1,6.876,9.049,25.119,25.119,0,0,1-.782,22.18l.016-.425,5.028,11.35.37.836-.879-.231-12.151-3.187.3-.06a25.057,25.057,0,0,1-12.854,4.757,21.909,21.909,0,0,1-3.456,0,24.931,24.931,0,0,1-15.525-6.648,28,28,0,0,1-2.377-2.481,27.7,27.7,0,0,1-1.969-2.812,25.007,25.007,0,0,1-3.677-13.046" fill="#263238"/>
          <path id="Path_37922" data-name="Path 37922" d="M39.963,137.51h5.813l-.392,21.42h-5.03Z" fill="#5f2d79"/>
          <rect id="Rectangle_28052" data-name="Rectangle 28052" width="5.026" height="5.026" transform="translate(40.356 161.614)" fill="#5f2d79"/>
        </g>
      </g>
      <path id="Path_37923" data-name="Path 37923" d="M111.209,341.08l2.382,14.285,16.137,87.145h2.6l-11.734-87.145-1.734-14.285Z" fill="#c7c7c7"/>
      <path id="Path_37924" data-name="Path 37924" d="M118.86,341.08h-7.652l2.382,14.285h7Z" fill="#a6a6a6"/>
      <path id="Path_37925" data-name="Path 37925" d="M60.534,442.511h2.6l16.137-87.146,2.382-14.284H74l-1.734,14.284Z" fill="#c7c7c7"/>
      <path id="Path_37926" data-name="Path 37926" d="M74,341.08l-1.734,14.285h7l2.382-14.285Z" fill="#a6a6a6"/>
      <path id="Path_37927" data-name="Path 37927" d="M12.132,442.511h2.6L30.87,355.365l2.382-14.284H25.6l-1.734,14.284Z" fill="#c7c7c7"/>
      <path id="Path_37928" data-name="Path 37928" d="M23.866,355.365h7l2.382-14.285H25.6Z" fill="#a6a6a6"/>
      <path id="Path_37929" data-name="Path 37929" d="M16.257,347.792H134.5v-12.46H90.237L75.361,248.778h-54.6Z" fill="#c7c7c7"/>
      <path id="Path_37930" data-name="Path 37930" d="M16.257,347.792H22.7l4.2-99.014H20.765Z" fill="#a6a6a6"/>
      <g id="Group_15719" data-name="Group 15719">
        <g id="Group_15718" data-name="Group 15718" clip-path="url(#clip-path-2)">
          <g id="Group_15752" data-name="Group 15752" transform="translate(-24.771 21.319)">
            <path id="Path_37917" data-name="Path 37917" d="M230.816,152.49l-35.17,60.917h70.34Z" fill="#c8375b"/>
            <path id="Path_37918" data-name="Path 37918" d="M232.943,163.566l-27.528,47.681h55.056Z" transform="translate(-2.127 -2.412)" fill="#fff"/>
            <path id="Path_37919" data-name="Path 37919" d="M237.04,181.2h5.578l-.375,20.555h-4.827Z" transform="translate(-9.013 -6.252)" fill="#ea3224"/>
            <rect id="Rectangle_28051" data-name="Rectangle 28051" width="4.823" height="4.823" transform="translate(228.405 198.082)" fill="#ea3224"/>
          </g>
          <text id="Order_Cancelled_" data-name="Order Cancelled " transform="translate(137.045 282.097)" fill="#0e1740" font-size="16" font-family="Montserrat-SemiBold, Montserrat" font-weight="600"><tspan x="0" y="0">Order Cancelled </tspan></text>
          <path id="Path_37931" data-name="Path 37931" d="M245.65,446.486c-2.119.749-64.628-.127-66.969-1.576-.28-.156-.7-12.118-.7-12.118-.022-1.166-1.264-8.546-1.264-8.546-5.588-13.434-18.91-37.124-18.91-37.124l40.979,1.093L218,426.32s8.51,3.4,15.926,6.787c.009.009.018.009.018.017a87.262,87.262,0,0,1,9.467,4.685c2.384,1.851,4.357,7.946,2.237,8.677" fill="#ad6359"/>
          <path id="Path_37932" data-name="Path 37932" d="M245.858,446.618c-2.2.728-65.094.395-67.478-1.138-.916-.567-1.662-21.033-1.663-21.149l40.578-.237-.02.687s24.011,10.881,26.455,12.843c2.425,1.954,4.33,8.276,2.128,8.994" fill="#2c3341"/>
          <path id="Path_37933" data-name="Path 37933" d="M245.161,444.179c-10.6-.316-53.386-.592-63.89-.1-.084,0-.084.062,0,.067,10.5.542,53.286.472,63.889.207.223-.006.225-.167,0-.174" fill="#263238"/>
          <path id="Path_37934" data-name="Path 37934" d="M221.811,424.233c-4.167-.8-9.274-.187-12.479,2.765-.124.114.04.288.176.247a58.731,58.731,0,0,1,12.283-2.486.266.266,0,0,0,.02-.526" fill="#fff"/>
          <path id="Path_37935" data-name="Path 37935" d="M224.811,426.062c-4.168-.8-9.274-.187-12.479,2.765-.125.114.04.288.176.247a58.729,58.729,0,0,1,12.283-2.486.266.266,0,0,0,.02-.526" fill="#fff"/>
          <path id="Path_37936" data-name="Path 37936" d="M227.812,427.89c-4.167-.8-9.274-.187-12.479,2.765-.124.114.04.288.176.247a58.731,58.731,0,0,1,12.283-2.486.266.266,0,0,0,.02-.526" fill="#fff"/>
          <path id="Path_37937" data-name="Path 37937" d="M219.015,424.582l-48.562.408s-31.621-75.607-34.719-79.716c-1.55-2.055-73.108-12.651-85.618-23.25-16.251-13.768-4.256-39.416-4.256-39.416l45.9-.179s-2.047,9.861-.333,11.243c1.13.923,67.4,16.4,79.03,30.855,16.685,20.747,48.562,100.055,48.562,100.055" fill="#0e1740"/>
          <path id="Path_37938" data-name="Path 37938" d="M213.148,416.674c-2.575-.143-5.182-.04-7.761-.045s-5.175-.009-7.762,0c-5.175.009-10.348.056-15.523.1-2.933.025-5.857.2-8.784.322a.086.086,0,1,0,0,.171c5.179.237,10.34.378,15.527.345s10.349-.12,15.521-.285c2.917-.093,5.879-.073,8.783-.347a.129.129,0,1,0,0-.257" fill="#263238"/>
          <path id="Path_37939" data-name="Path 37939" d="M170.8,402.868c-1.247-3.238-2.608-6.435-4.009-9.609-2.753-6.235-5.659-12.4-8.573-18.562q-4.562-9.643-9.139-19.281-2.256-4.732-4.513-9.465a17.219,17.219,0,0,0-2.048-3.49,8.379,8.379,0,0,0-3.557-2.512,46.89,46.89,0,0,0-4.532-1.367q-2.5-.7-5.011-1.37-5.018-1.346-10.061-2.594c-6.725-1.656-52.135-10.678-59.645-13.931a18.747,18.747,0,0,1-9.862-10.364c-2.318-6.286-2.134-13-1.37-19.564.2-1.693.462-3.379.717-5.065.017-.108-.149-.15-.166-.041-1.005,6.626-2.161,13.394-1.065,20.086.9,5.5,3.907,11.243,8.728,14.218,9.624,5.938,61.746,15.232,75.2,18.885,1.651.448,3.3.9,4.946,1.368a10.017,10.017,0,0,1,4.323,2.114,12.277,12.277,0,0,1,2.374,3.621c.74,1.528,1.452,3.069,2.177,4.6q4.551,9.641,9.128,19.269c5.992,12.6,12.084,25.183,17.23,38.157.618,1.558,1.23,3.114,1.872,4.661.081.194.383.114.32-.1-.989-3.28-2.233-6.477-3.464-9.672" fill="#263238"/>
          <path id="Path_37940" data-name="Path 37940" d="M192.837,456.969c-2.13.717-63.063-.142-65.382-1.626-2.539-2.416-3.616-59.9-3.616-59.9l39.2-.324,2.444,41.274s8.46,3.523,15.827,7.025c.009.009.018.009.018.018a87.236,87.236,0,0,1,9.4,4.826c2.357,1.887,4.241,8.01,2.111,8.709" fill="#ad6359"/>
          <path id="Path_37941" data-name="Path 37941" d="M194.086,457.012c-2.2.729-65.1.427-67.483-1.1-.917-.566-1.407-9.721-1.681-20.8l-.006-.347L165.5,434.5l-.019.687s24.024,10.869,26.471,12.83c2.427,1.952,4.338,8.273,2.137,8.992" fill="#2c3341"/>
          <path id="Path_37942" data-name="Path 37942" d="M193.386,454.574c-10.6-.311-53.39-.566-63.893-.069-.085,0-.086.062,0,.067,10.5.537,53.29.446,63.892.175.224-.005.225-.166,0-.173" fill="#263238"/>
          <path id="Path_37943" data-name="Path 37943" d="M170.014,434.64c-4.169-.8-9.274-.182-12.478,2.771-.124.114.041.288.176.247a58.746,58.746,0,0,1,12.282-2.492.266.266,0,0,0,.02-.526" fill="#fff"/>
          <path id="Path_37944" data-name="Path 37944" d="M173.016,436.467c-4.168-.8-9.274-.183-12.477,2.77-.124.115.041.289.176.247A58.729,58.729,0,0,1,173,436.993a.266.266,0,0,0,.019-.526" fill="#fff"/>
          <path id="Path_37945" data-name="Path 37945" d="M176.019,438.294c-4.169-.8-9.275-.182-12.477,2.771-.124.114.041.288.176.247A58.73,58.73,0,0,1,176,438.82a.266.266,0,0,0,.019-.526" fill="#fff"/>
          <path id="Path_37946" data-name="Path 37946" d="M167.662,434.9l-44.4.236s.753-79.915-2.712-84.34c-4.619-5.9-69.257-5.764-83.121-25-12.451-17.279.007-43.365.007-43.365H84.487A103.491,103.491,0,0,1,79.9,298s61.349,13.584,75.485,28.93c11.192,12.151,12.28,107.969,12.28,107.969" fill="#0e1740"/>
          <path id="Path_37947" data-name="Path 37947" d="M88.5,294.652a23.481,23.481,0,0,0-4.148,1.328c-1.4.535-2.789,1.143-4.141,1.8a81.956,81.956,0,0,0-7.744,4.375c-.078.049,0,.157.077.116,2.647-1.374,5.383-2.609,8.123-3.789q1.977-.851,3.954-1.7a42.46,42.46,0,0,0,4-1.765c.165-.094.075-.4-.121-.366" fill="#263238"/>
          <path id="Path_37948" data-name="Path 37948" d="M85.571,282.586c-.56,2.231-1.052,4.48-1.691,6.691-.293,1.015-.582,2.047-.966,3.031-.324.831-.815,1.779-1.778,1.965-1.109.214-1.426-.735-1.336-1.65.1-1.021.362-2.045.564-3.05.233-1.158,1.508-6.786,1.319-6.986a.084.084,0,0,0-.1-.008,10.156,10.156,0,0,0-.825,2.319c-.309,1.065-.611,2.133-.882,3.208s-.535,2.151-.8,3.227a5.034,5.034,0,0,0-.215,2.479,1.892,1.892,0,0,0,1.754,1.427c-.038.073-.084.142-.118.217-.1.22-.169.454-.251.679s-.162.461-.229.7a2.017,2.017,0,0,0-.064.345c-.015.129.011.255,0,.385a.186.186,0,0,0,.346.124c.059-.115.144-.2.209-.312a1.978,1.978,0,0,0,.16-.373c.076-.223.14-.446.2-.675s.126-.452.168-.68c.025-.137.03-.274.042-.412a2.558,2.558,0,0,0,1.288-.49,4.3,4.3,0,0,0,1.335-2.038c.337-.929.6-1.891.86-2.843a41.872,41.872,0,0,0,1.424-7.19.207.207,0,0,0-.4-.088" fill="#263238"/>
          <path id="Path_37949" data-name="Path 37949" d="M56.46,288.047c-.2,1.107-.331,2.226-.586,3.324-.25,1.074-.542,2.148-.9,3.193a11.392,11.392,0,0,1-1.363,2.876,10.767,10.767,0,0,1-2.168,2.206,18.577,18.577,0,0,1-5.248,2.919,24.574,24.574,0,0,1-2.916.852q-.772.174-1.559.273a3.319,3.319,0,0,0-1.255.29.253.253,0,0,0,.024.434,4.544,4.544,0,0,0,2.321.074,17.1,17.1,0,0,0,2.48-.435,18.005,18.005,0,0,0,4.686-1.973,14.785,14.785,0,0,0,3.918-3.2,11.092,11.092,0,0,0,2.094-4.586,22.569,22.569,0,0,0,.682-6.229.109.109,0,0,0-.214-.017" fill="#263238"/>
          <path id="Path_37950" data-name="Path 37950" d="M129.813,379.646q-.654-10.41-1.732-20.789c-.177-1.706-.349-3.414-.56-5.117a16.05,16.05,0,0,0-.86-3.888c-1.018-2.6-3.186-3.914-5.805-4.576-3.093-.781-6.292-1.247-9.439-1.757-3.216-.521-6.442-.986-9.669-1.435-6.536-.91-13.083-1.75-19.591-2.845a156.254,156.254,0,0,1-19.222-4.322c-5.782-1.743-11.713-3.9-16.341-7.907-9.962-8.623-10.327-23.075-9.109-35.167.172-1.707.382-3.41.588-5.114.011-.088-.127-.119-.137-.029-.789,6.808-1.706,13.659-1.028,20.519a33.467,33.467,0,0,0,5.447,15.894c3.372,4.832,8.368,7.954,13.759,10.129A108.214,108.214,0,0,0,74.45,338.52c12.92,2.7,26.1,3.846,39.1,6.069q2.406.411,4.8.876a19.862,19.862,0,0,1,4.33,1.158c2.953,1.319,3.766,4.19,4.131,7.156.849,6.886,1.425,13.818,1.924,20.737,1.006,13.947,1.54,27.969,1.514,41.954,0,1.726-.045,5.08-.061,6.806,0,.154.233.139.238-.013.422-14.006.266-29.631-.612-43.617" fill="#263238"/>
          <path id="Path_37951" data-name="Path 37951" d="M166.521,388.159q-1.35-18.385-4.014-36.645c-.858-5.883-1.673-11.824-2.914-17.642a15.246,15.246,0,0,0-2.9-6.566,30.149,30.149,0,0,0-6.936-6c-21.588-13.375-67.153-22.821-68.544-23.151a.086.086,0,0,0-.042.166c11.057,2.734,49.5,13.269,65.055,22.258,2.358,1.362,8.738,4.729,11.092,9.572,1.194,2.457,1.749,6.213,2.2,8.893q.777,4.579,1.469,9.171,2.71,17.963,4.145,36.084c.956,12.063,1.894,31.513,1.916,33.038a.3.3,0,0,0,.607-.015c.157-12.34-.238-16.851-1.141-29.159" fill="#263238"/>
          <path id="Path_37952" data-name="Path 37952" d="M164.535,426.247c-2.383-.2-4.8-.161-7.2-.226s-4.8-.129-7.195-.185c-4.8-.111-9.6-.185-14.394-.261-2.72-.043-5.436.068-8.153.117a.086.086,0,0,0,0,.171c4.8.358,9.576.619,14.386.706s9.6.121,14.4.077c2.707-.025,5.453.065,8.153-.142a.129.129,0,0,0,.005-.257" fill="#263238"/>
          <path id="Path_37953" data-name="Path 37953" d="M131.116,204.735,118.4,230.583a1,1,0,0,0,.589,1.645l14.1,3.009a2.332,2.332,0,0,0,2.265-1.035l12.715-25.849a1,1,0,0,0-.588-1.644l-14.1-3.009a2.332,2.332,0,0,0-2.266,1.035" fill="#37474f"/>
          <path id="Path_37954" data-name="Path 37954" d="M132.792,205.078l-12.715,25.848a1,1,0,0,0,.589,1.645l14.1,3.009a2.332,2.332,0,0,0,2.265-1.035L149.742,208.7a1,1,0,0,0-.587-1.645l-14.1-3.009a2.332,2.332,0,0,0-2.266,1.035" fill="#263238"/>
          <path id="Path_37955" data-name="Path 37955" d="M136.391,207.151a1.225,1.225,0,1,1-.91-1.474,1.225,1.225,0,0,1,.91,1.474" fill="#455a64"/>
          <path id="Path_37956" data-name="Path 37956" d="M76.847,236.4c4.185,18.729,17.158,44.729,24.531,46.473,3.508.83,9.605,3.071,15.123.056,12.041-6.579,24.222-21.577,28.092-30.855,1.376-3.3-13.682-14.467-16.773-12.219-7.24,5.265-16.823,16.625-17.829,16.319-3.721-1.131-15.779-16.754-24.177-27.736-10.2-13.332-10.635.5-8.967,7.962" fill="#ad6359"/>
          <path id="Path_37957" data-name="Path 37957" d="M148.962,234.41c-.215-7.37-1.4-9.229,1.72-15.545,2.048-4.145.28-7.231-3.61-4.406-6.364,4.621-8.083,14.187-7.724,17.676Z" fill="#ad6359"/>
          <path id="Path_37958" data-name="Path 37958" d="M143.11,254.885s5.28-9.027,5.827-16.9c.379-5.447-.118-17.388-13.546-26.623-3.185-2.19-9.276-3.053-5.374,2.414,2.772,3.883,5.7,5.508,6.9,8.06,0,0-7.878-.177-9.948,3.1a71.431,71.431,0,0,0-4.8,8.947,15.117,15.117,0,0,0,1.594,1.048s-1.841,3.129-.407,8.467Z" fill="#ad6359"/>
          <path id="Path_37959" data-name="Path 37959" d="M148.468,232.725c-1.728-2.281-5.471-7.055-9.891-9.894-4.909-3.155-15.217-7.908-17.508-4.26-1.68,2.675,2.1,4.836,2.1,4.836s-4.674-1.067-5.663,1.682c-.9,2.5,2.12,4,2.12,4s-2.948-.16-3.351,2.42c-.485,3.1,5.77,2.928,7.994,6.5.5.8,24.2-5.28,24.2-5.28" fill="#ad6359"/>
          <path id="Path_37960" data-name="Path 37960" d="M136.11,228.574a23.251,23.251,0,0,0-12.838-5.225c-.12-.005-.188.082-.079.11a57.306,57.306,0,0,1,12.887,5.161c.028.016.052-.025.03-.046" fill="#263238"/>
          <path id="Path_37961" data-name="Path 37961" d="M132.782,233.438a26.094,26.094,0,0,0-13.127-4.45c-.119,0-.182.092-.072.115a61.367,61.367,0,0,1,13.172,4.383c.029.014.051-.03.027-.048" fill="#263238"/>
          <path id="Path_37962" data-name="Path 37962" d="M104.079,247.752,84.428,267.1s-8.817-29.016-9-38.281c-.208-10.427,5.169-8.253,12.376-1.446s16.277,20.382,16.277,20.382" fill="#5f2d79"/>
          <path id="Path_37963" data-name="Path 37963" d="M83.6,260.767c.575-.775,6.6-6.9,7.945-8.2s6.761-6.681,8.256-7.911a.068.068,0,0,1,.1.093c-1.23,1.481-6.685,6.921-8.021,8.276s-7.438,7.283-8.2,7.843c-.064.047-.12-.046-.081-.1" fill="#263238"/>
          <path id="Path_37964" data-name="Path 37964" d="M92.959,289.335c-1.382,1.339-60.461,7.452-60.753,7.055-.784-1.074,10.29-56.5,33.959-75.587,4.171-3.364,11.123-1.946,14.27.08,1.573,1.013,6.649,9.36,7.894,16.441s5.5,51.158,4.63,52.011" fill="#5f2d79"/>
          <path id="Path_37965" data-name="Path 37965" d="M46.45,249.132l43.373.37c-.116-1.071-.223-2.091-.334-3.072l-41.61-.355c-.493,1.008-.966,2.027-1.429,3.057" fill="#fff"/>
          <path id="Path_37966" data-name="Path 37966" d="M43.8,255.26l46.67.383c-.117-1.041-.214-2.07-.324-3.071L45.079,252.2c-.443,1.011-.867,2.034-1.28,3.057" fill="#fff"/>
          <path id="Path_37967" data-name="Path 37967" d="M82.514,221.881c2.321,2.386,2.71,9.778-2.146,10.878S69.481,225.661,69,221.4s8.369-4.8,13.509.485" fill="#5f2d79"/>
          <path id="Path_37968" data-name="Path 37968" d="M80.488,230.869c-3.451.5-8.8-5.166-10.727-9.548-.13-.3,2.068-11.662,2.269-13.959.039-.471,14.117,4.763,14.117,4.763a36.726,36.726,0,0,0-2.167,8.7c-.023.336-.157,9.561-3.492,10.048" fill="#ad6359"/>
          <path id="Path_37969" data-name="Path 37969" d="M72.483,207.39c.4,3.768,2.2,13.62,10.03,14.5a9.2,9.2,0,0,0,1.42.04c.035-.629.044-1.039.049-1.109a36.754,36.754,0,0,1,2.16-8.689c-.009-.01-.019-.011-.039-.013a2.071,2.071,0,0,0-.235-.086c-.009-.011-.029-.012-.039-.013-.107-.048-.234-.087-.39-.148-.049-.024-.1-.037-.156-.061-.1-.037-.206-.075-.313-.113-.127-.049-.254-.1-.391-.148-.205-.074-.42-.15-.655-.237a1.839,1.839,0,0,0-.244-.087c-.166-.062-.332-.124-.508-.187-.616-.224-1.28-.471-1.984-.722-.254-.088-.508-.186-.762-.274-.323-.114-.646-.227-.968-.35l-.969-.339c-.039-.013-.078-.026-.127-.039-.557-.2-1.115-.39-1.643-.578-.186-.063-.372-.127-.548-.189-.362-.126-.715-.241-1.048-.355q-.368-.117-.705-.231c-.54-.168-1.011-.312-1.383-.429-.109-.027-.207-.054-.305-.081s-.168-.042-.247-.058" fill="#263238"/>
          <path id="Path_37970" data-name="Path 37970" d="M73.637,189.677c-2.59,4.695-2.988,19.746-.1,23.729,4.194,5.773,12.581,8,17.877,2.625,5.132-5.215,5.305-24.839,1.932-28.615-4.969-5.562-15.888-4.673-19.713,2.261" fill="#ad6359"/>
          <path id="Path_37971" data-name="Path 37971" d="M85.66,201.472c-.008-.039-.083.045-.083.087-.007,1.023-.188,2.193-1.125,2.5-.028.01-.028.061.006.058,1.134-.115,1.358-1.671,1.2-2.641" fill="#263238"/>
          <path id="Path_37972" data-name="Path 37972" d="M84.788,200.37c-1.638-.188-1.9,3.1-.377,3.276,1.494.172,1.75-3.118.377-3.276" fill="#263238"/>
          <path id="Path_37973" data-name="Path 37973" d="M91.549,201.847c.011-.038.076.055.071.1-.119,1.016-.083,2.2.81,2.615.028.013.021.064-.013.056-1.112-.253-1.143-1.824-.868-2.768" fill="#263238"/>
          <path id="Path_37974" data-name="Path 37974" d="M92.549,200.86c1.649.014,1.5,3.311-.028,3.3-1.5-.013-1.354-3.31.028-3.3" fill="#263238"/>
          <path id="Path_37975" data-name="Path 37975" d="M86.114,199.042a12.95,12.95,0,0,1-1.313.335,2.188,2.188,0,0,1-1.4.086.7.7,0,0,1-.376-.765,1.733,1.733,0,0,1,1.352-1.117,2.544,2.544,0,0,1,1.829.1.745.745,0,0,1-.088,1.359" fill="#263238"/>
          <path id="Path_37976" data-name="Path 37976" d="M94.1,198.173a12.82,12.82,0,0,1-1.281-.441,2.19,2.19,0,0,1-1.221-.7.7.7,0,0,1,.106-.846A1.731,1.731,0,0,1,93.448,196a2.546,2.546,0,0,1,1.473,1.09.745.745,0,0,1-.82,1.087" fill="#263238"/>
          <path id="Path_37977" data-name="Path 37977" d="M84.876,209.566a8.641,8.641,0,0,1,4.021.07c.119-.009.242-.233.27-.343v-.007c0-.037.088-2.159.088-2.159.273.162,1.672.915,1.678.508a51.717,51.717,0,0,0-.593-10.475.094.094,0,0,0-.186.013c-.165,3.236.241,6.479.127,9.732A6.023,6.023,0,0,0,88.7,206.3c-.112.024.024,2.29-.038,2.635a5.007,5.007,0,0,0-3.768.187c-.455.246-.649.645-.015.445" fill="#263238"/>
          <path id="Path_37978" data-name="Path 37978" d="M82.205,211.7c.226.252.447.594.811.649a2.667,2.667,0,0,0,1.1-.183.036.036,0,0,1,.04.055,1.363,1.363,0,0,1-1.318.464,1.078,1.078,0,0,1-.736-.946c-.012-.059.067-.076.1-.039" fill="#263238"/>
          <path id="Path_37979" data-name="Path 37979" d="M87.31,208.661c-.952-.081-4.148.264-3.818,1.8.144.673,1.229.6,2.186-.042a6.5,6.5,0,0,0,1.632-1.758" fill="#263238"/>
          <path id="Path_37980" data-name="Path 37980" d="M85.2,210.689c-.814.38-1.591.335-1.711-.227a.964.964,0,0,1,.4-1c.577.062,1.778.305,1.313,1.228" fill="#ff9abb"/>
          <path id="Path_37981" data-name="Path 37981" d="M70.748,202.394c-.223-1.41-2.034-16.539-1.458-18.1.524-1.419,2.052-.635,2.086-.716s.237-1.407,1.12-1.809a2.249,2.249,0,0,1,1.781.241s.415-1.375,1.343-1.652a1.794,1.794,0,0,1,1.682.573,2.367,2.367,0,0,1,1.606-1.51,1.536,1.536,0,0,1,1.628.847s.531-1.3,1.483-1.447,1.631.931,1.631.931a2.035,2.035,0,0,1,1.769-1.045c1.143.116,1.412,1.387,1.412,1.387a2.423,2.423,0,0,1,1.855-1.01c1.054.092,1.266,1.444,1.266,1.444s.565-1.119,1.544-.927,1.053,1.6,1.053,1.6.7-1.22,1.823-.708c1.718.787.948,9.348.923,13.1,0,0-.292-1.831-1.042-1.986s-1.456,1.021-2.907,1.135c-3.635.287-5.665-2.462-8.509-2.192-2.764.262-4.2,2.778-5.667,6.9-1.652,4.646-5.892,8.284-6.422,4.936" fill="#263238"/>
          <path id="Path_37982" data-name="Path 37982" d="M74.252,202.141s-2.4-5.33-4.763-4.562-1.177,8.059,1.156,9.468a2.6,2.6,0,0,0,3.681-.723Z" fill="#ad6359"/>
          <path id="Path_37983" data-name="Path 37983" d="M69.88,199.661c-.04-.011-.058.044-.026.065,1.625,1.045,2.243,2.85,2.571,4.663a1.436,1.436,0,0,0-2.036-.784c-.052.024-.021.1.03.1a1.6,1.6,0,0,1,1.625.875,7.735,7.735,0,0,1,.563,1.552c.052.173.352.143.327-.05l-.007-.043c.469-2.232-.68-5.7-3.047-6.381" fill="#263238"/>
          <path id="Path_37984" data-name="Path 37984" d="M59.862,232.093c-2.369,11.623-3.432,52.988,4.4,59.4,7.933,6.492,15.336,4.054,16.278-4,.778-6.647-7.3-46.906-10.15-56.467-2.712-9.1-7.757-12.515-10.526,1.07" fill="#ad6359"/>
          <path id="Path_37985" data-name="Path 37985" d="M78.632,257.061l-25.854,9.593s3.848-30.081,7.476-38.608c4.083-9.6,8.1-5.41,11.881,3.753s6.5,25.262,6.5,25.262" fill="#5f2d79"/>
          <path id="Path_37986" data-name="Path 37986" d="M54.618,260.541c.843-.471,8.852-3.587,10.608-4.226s8.907-3.324,10.775-3.833a.068.068,0,0,1,.053.126c-1.731.847-8.935,3.574-10.71,4.262s-9.768,3.6-10.691,3.8c-.079.016-.092-.092-.035-.124" fill="#263238"/>
          <path id="Path_37987" data-name="Path 37987" d="M76.484,257.632c.757-.345,1.958-.837,1.958-.837-1.088-3.7-1.8-7.536-2.724-11.275-.942-3.807-1.767-7.633-2.663-11.45a.047.047,0,0,1,.092-.022q.966,3.193,1.893,6.382c-.03-.279-.057-.558-.088-.836-.11-.993-.191-1.988-.334-2.978-.012-.082.109-.115.128-.03a23.269,23.269,0,0,1,.535,2.973c.07.707.09,1.412.1,2.119.345,1.224.7,2.444,1.014,3.681.965,3.788,2.324,7.918,2.992,11.771,0,0-1.886.524-2.862.686a.1.1,0,0,1-.044-.184" fill="#263238"/>
          <path id="Path_37988" data-name="Path 37988" d="M58.268,264.617q-2.664,1.234-5.376,2.341l-.478.2.042-.536c.363-4.594.953-9.161,1.694-13.708.378-2.271.794-4.538,1.3-6.787.484-2.253,1.046-4.493,1.738-6.691l-1.088,6.81-.995,6.816c-.661,4.543-1.3,9.092-2,13.633l-.436-.341q2.776-.933,5.6-1.732" fill="#263238"/>
          <path id="Path_37989" data-name="Path 37989" d="M55.159,243.013c.117.944.133,1.867.161,2.79s.034,1.831.07,2.78a5.185,5.185,0,0,1-.428-1.358,9.044,9.044,0,0,1-.142-1.41,9.558,9.558,0,0,1,.339-2.8" fill="#263238"/>
          <path id="Path_37990" data-name="Path 37990" d="M65.288,285.109c-1.812,8.695,6.437,12.114,11.852,9.087,12.708-7.106,23.912-23.642,29.737-36.7C108.6,253.627,85.2,245.6,82.6,249.311c-3.635,5.178-13.631,18.157-17.308,35.8" fill="#ad6359"/>
          <path id="Path_37991" data-name="Path 37991" d="M90.953,237.734c-1,1.217-1.649.7-1.583-2.1.059-2.835,2.7-13.84-1.228-14.433S80.72,236.228,80.969,240.9s2.291,12.15,2.291,12.15c1.29-2.9,5.09-9.652,7.693-15.319" fill="#ad6359"/>
          <path id="Path_37992" data-name="Path 37992" d="M105.562,260.147c4.434-8.6,7.989-18.463,6.471-28.456a5,5,0,0,0-1.451-2.938c-.6-4.491-2.9-5.556-2.9-5.556-1.84-4.011-4.343-4.777-4.343-4.777s-.763-5.264-4.022-5.331c-3.654-.087-1.867,7.323-3.377,12-3.46,10.713-11.374,24.974-12.679,27.965Z" fill="#ad6359"/>
          <path id="Path_37993" data-name="Path 37993" d="M100.2,238.863a72.521,72.521,0,0,0,2.5-9.551,72.753,72.753,0,0,0,.551-10.8.088.088,0,0,1,.175-.012,38.278,38.278,0,0,1-3.08,20.41c-.066.146-.191.114-.143-.046" fill="#263238"/>
          <path id="Path_37994" data-name="Path 37994" d="M106.366,241.891c.758-3.139,2.056-8.665,1.207-18.685,0-.033.052-.048.06-.013a34.353,34.353,0,0,1-1.118,18.734c-.063.192-.2.173-.149-.036" fill="#263238"/>
          <path id="Path_37995" data-name="Path 37995" d="M109.708,243.457c1.086-5.387,1.089-8.92.852-14.68,0-.032.055-.044.06-.008.957,6.517.565,8.99-.732,14.751-.045.2-.222.147-.18-.063" fill="#263238"/>
          <path id="Path_37996" data-name="Path 37996" d="M95.341,226.853a19.692,19.692,0,0,0,1-5.491,35.334,35.334,0,0,1,.375-5.668,6.613,6.613,0,0,1,.458-1.4,2.763,2.763,0,0,1,.992-1.193,2.948,2.948,0,0,1,1.5-.37,2.44,2.44,0,0,1,1.447.506,5.188,5.188,0,0,1,1.59,2.42,14.459,14.459,0,0,1,.634,2.764,17.948,17.948,0,0,0-.911-2.652,4.87,4.87,0,0,0-1.583-2.148,2.145,2.145,0,0,0-1.184-.361,2.441,2.441,0,0,0-1.2.313,3.479,3.479,0,0,0-1.147,2.25,42.169,42.169,0,0,0-.505,5.566,15.533,15.533,0,0,1-1.468,5.465" fill="#263238"/>
          <path id="Path_37997" data-name="Path 37997" d="M82.981,229.084a22.369,22.369,0,0,1,1.843-5.48,6.238,6.238,0,0,1,1.874-2.311,2.321,2.321,0,0,1,1.562-.379,2.037,2.037,0,0,1,1.38.893,6.357,6.357,0,0,1,.914,2.878,17.826,17.826,0,0,1,.083,2.938c-.134,1.96-.426,3.848-.679,5.746a15.691,15.691,0,0,0-.2,2.793,8.539,8.539,0,0,0,.177,1.363,1.423,1.423,0,0,0,.2.5c.042.038.01.01,0,.019a.329.329,0,0,0,.134-.078,7.827,7.827,0,0,0,1.342-2.334c.4-.867.778-1.747,1.149-2.63.746-1.765,1.437-3.555,2.115-5.347a30.037,30.037,0,0,0,1.626-5.505,26.85,26.85,0,0,1-1.29,5.62c-.58,1.836-1.239,3.644-1.918,5.445-.343.9-.693,1.8-1.066,2.688-.186.447-.384.888-.6,1.329a7.041,7.041,0,0,1-.37.673,2.955,2.955,0,0,1-.537.621.982.982,0,0,1-.5.237.742.742,0,0,1-.63-.254,1.982,1.982,0,0,1-.374-.806A9.285,9.285,0,0,1,89,236.218a16.3,16.3,0,0,1,.165-2.947c.2-1.914.579-3.816.714-5.69a17.056,17.056,0,0,0-.04-2.815,6.2,6.2,0,0,0-.741-2.585,1.4,1.4,0,0,0-.932-.676,1.75,1.75,0,0,0-1.186.245,5.828,5.828,0,0,0-1.792,2.058,25.131,25.131,0,0,0-2.208,5.276" fill="#263238"/>
          <path id="Path_37998" data-name="Path 37998" d="M67.081,278.815c.457-1.813,1.049-3.584,1.68-5.34s1.343-3.482,2.094-5.191c.768-1.7,1.589-3.382,2.5-5.015a45.033,45.033,0,0,1,2.988-4.738c-.39.852-.841,1.663-1.22,2.515-.422.827-.814,1.669-1.208,2.509-.77,1.689-1.565,3.364-2.311,5.063Z" fill="#263238"/>
          <path id="Path_37999" data-name="Path 37999" d="M95.023,277.509c1.171-1.838,2.335-3.671,3.469-5.522s2.272-3.7,3.333-5.589c1.119-1.858,2.154-3.764,3.187-5.671,1.052-1.9,2.009-3.846,3.024-5.776a59.761,59.761,0,0,1-2.51,6.037c-.932,1.973-1.979,3.889-3.053,5.786-1.122,1.871-2.257,3.734-3.5,5.526a62.413,62.413,0,0,1-3.95,5.209" fill="#263238"/>
        </g>
      </g>
    </g>
  </g>
</svg>
