<svg id="Group_15754" data-name="Group 15754" xmlns="http://www.w3.org/2000/svg" xmlns:xlink="http://www.w3.org/1999/xlink" width="1920" height="592" viewBox="0 0 1920 592">
  <defs>
    <clipPath id="clip-path">
      <rect width="952" height="320.847" fill="none"/>
    </clipPath>
    <clipPath id="clip-path-2">
      <rect id="Rectangle_27773" data-name="Rectangle 27773" width="418.095" height="469.45" fill="none"/>
    </clipPath>
    <clipPath id="clip-path-7">
      <rect id="Rectangle_27767" data-name="Rectangle 27767" width="88.353" height="60.372" transform="translate(28.879 289.753)" fill="none"/>
    </clipPath>
    <clipPath id="clip-path-8">
      <rect id="Rectangle_27768" data-name="Rectangle 27768" width="49.667" height="59.985" transform="translate(62.029 236.142)" fill="none"/>
    </clipPath>
  </defs>
  <rect id="Rectangle_1" data-name="Rectangle 1" width="1920" height="592" fill="#f5f9f9"/>
  <g id="Group_15753" data-name="Group 15753">
    <g id="En_Logo_White-01" transform="translate(968 191.603)" clip-path="url(#clip-path)">
      <g id="En_Logo_White-01-2" data-name="En_Logo_White-01" transform="translate(-0.12 -1.23)">
        <path id="Path_890" data-name="Path 890" d="M148.288,180.009a23.419,23.419,0,0,1-25.526-5.837,22.07,22.07,0,0,1-6.079-15.573V90.4a24.011,24.011,0,0,0-7.217-17.462A22.1,22.1,0,0,0,93.99,66.691a23,23,0,0,0-16.541,6.733A22.141,22.141,0,0,0,70.74,89.674V158.6q0,28.59,20.15,48.776c13.441,13.441,29.692,20.44,48.776,20.15a75.426,75.426,0,0,0,27.415-5.3c15.282-6.224,18.261-26.616,5.74-37.345-.605-.509-1.187-1.017-1.792-1.526C164.708,177.951,156.014,176.958,148.288,180.009Z" transform="translate(100.411 93.074)" fill="#efeaf1"/>
        <path id="Path_891" data-name="Path 891" d="M70.7,65.8A22.946,22.946,0,0,1,93.663,42.82,22.946,22.946,0,0,1,116.623,65.8H128.1a22.9,22.9,0,0,1,22.959,22.959A22.9,22.9,0,0,1,128.1,111.722H116.623v80.842a22.987,22.987,0,0,0,22.983,22.983,22.528,22.528,0,0,0,16.323-6.66l7.7-9.542a21.8,21.8,0,0,1,16.2-6.781,23.069,23.069,0,0,1,17.558,37.9,78.419,78.419,0,0,1-8.961,10.923q-20.235,20.089-48.824,20.1T90.83,241.339q-20.162-20.162-20.15-48.776V65.8Z" transform="translate(100.326 59.135)" fill="#efeaf1"/>
        <path id="Path_892" data-name="Path 892" d="M188.49,207.41q-20.089,20.089-48.825,20.1-28.59,0-48.776-20.15Q70.728,187.2,70.74,158.585V89.659A22.9,22.9,0,0,1,93.7,66.7a22.9,22.9,0,0,1,22.959,22.959v68.926a22.982,22.982,0,0,0,39.234,16.251,22.163,22.163,0,0,0,6.733-16.251V101.672a22.959,22.959,0,1,1,45.918,0v56.914Q208.616,187.32,188.49,207.41Z" transform="translate(100.411 93.089)" fill="#efeaf1"/>
        <path id="Path_893" data-name="Path 893" d="M116.618,125.125V111.732H128.1a22.9,22.9,0,0,0,22.959-22.959A22.9,22.9,0,0,0,128.1,65.813h-11.48A22.946,22.946,0,0,0,93.659,42.83,22.946,22.946,0,0,0,70.7,65.813v61.346C73.63,126.554,113.712,125.439,116.618,125.125Z" transform="translate(100.354 59.149)" fill="#efeaf1"/>
        <path id="Path_894" data-name="Path 894" d="M283.3,202.52q-20.089,20.089-48.824,20.1-28.59,0-48.776-20.15Q165.538,182.31,165.55,153.7V93.779a22.959,22.959,0,1,1,45.918,0V153.7a22.983,22.983,0,0,0,45.967,0V127.758c0-6.345,2.228-24.7,6.709-29.183a22.959,22.959,0,0,1,39.21,16.251V153.72Q303.426,182.419,283.3,202.52Z" transform="translate(235.217 98.947)" fill="#efeaf1"/>
        <path id="Path_895" data-name="Path 895" d="M234.49,192.582c0-8.089-4.65-15.209-11.7-19.181a21.246,21.246,0,0,1-4.553-3.439,22.2,22.2,0,0,1-6.733-16.251V94.521a24.011,24.011,0,0,0-7.217-17.462,22.1,22.1,0,0,0-15.476-6.248,23.05,23.05,0,0,0-16.565,6.733,22.14,22.14,0,0,0-6.709,16.251v59.917q0,28.59,20.15,48.776a71.176,71.176,0,0,0,15.742,11.988c14.846,8.21,33.01-3.076,33.01-20.029v-1.865Z" transform="translate(235.203 98.932)" fill="#efeaf1"/>
        <path id="Path_896" data-name="Path 896" d="M305.433,77.381q20.09-20.089,48.825-20.1,28.59,0,48.776,20.15,20.163,20.162,20.15,48.776v35.868a22.959,22.959,0,1,1-45.918,0V126.206a22.983,22.983,0,0,0-45.967,0v92.951a22.959,22.959,0,1,1-45.918,0V126.206Q285.271,97.471,305.433,77.381Z" transform="translate(405.597 79.695)" fill="#efeaf1"/>
        <path id="Path_897" data-name="Path 897" d="M356.659,87.3c4.262-18.43-14.483-34.124-31.605-26.132A69.276,69.276,0,0,0,305.461,74.9c-13.466,13.32-20.1,29.668-20.1,48.825v92.224a24.085,24.085,0,0,0,7.193,17.462,22.1,22.1,0,0,0,15.476,6.248,23.051,23.051,0,0,0,16.565-6.733,22.141,22.141,0,0,0,6.709-16.251V123.721c.024-11.552,6.781-17.68,13.126-20.61a22.381,22.381,0,0,0,12.133-15.355C356.586,87.611,356.635,87.441,356.659,87.3Z" transform="translate(405.569 82.18)" fill="#efeaf1"/>
        <path id="Path_898" data-name="Path 898" d="M441.02,193.311q-20.09,20.089-48.825,20.1-28.589,0-48.776-20.15-20.162-20.162-20.15-48.776V99.609a22.959,22.959,0,1,1,45.918,0v44.9a22.983,22.983,0,0,0,45.967,0V129.664a22.959,22.959,0,1,1,45.918,0V144.51Q461.146,173.209,441.02,193.311Z" transform="translate(459.472 107.236)" fill="#efeaf1"/>
        <path id="Path_899" data-name="Path 899" d="M268.79,68.99l.048.121A.623.623,0,0,0,268.79,68.99Z" transform="translate(382.009 96.345)" fill="#efeaf1"/>
        <circle id="Ellipse_281" data-name="Ellipse 281" cx="27.9" cy="27.9" r="27.9" transform="translate(731.931 1.23)" fill="#efeaf1"/>
        <path id="Path_900" data-name="Path 900" d="M99.2,192.182c0-8.089,4.65-15.209,11.7-19.181a21.248,21.248,0,0,0,4.553-3.439,22.2,22.2,0,0,0,6.733-16.251V94.121A24.012,24.012,0,0,1,129.4,76.659a22.1,22.1,0,0,1,15.476-6.248,23.051,23.051,0,0,1,16.566,6.733,22.139,22.139,0,0,1,6.709,16.25v59.917q0,28.59-20.15,48.776a71.173,71.173,0,0,1-15.742,11.988c-14.846,8.21-33.01-3.076-33.01-20.029v-1.865Z" transform="translate(140.877 98.363)" fill="#efeaf1"/>
        <path id="Path_901" data-name="Path 901" d="M292.46,174.11a22.983,22.983,0,0,1-45.967,0V114.726a11.48,11.48,0,0,0-22.959,0v80.405a22.983,22.983,0,0,1-45.967,0V114.726a11.48,11.48,0,0,0-22.959,0V174.11a22.982,22.982,0,0,1-39.21,16.251,22.14,22.14,0,0,1-6.709-16.251V114.726q0-22.959,17.244-40.2,17.219-17.219,40.2-17.244,19.653,0,34.463,11.383,14.822-11.371,34.463-11.383a55.39,55.39,0,0,1,40.615,16.832,55.351,55.351,0,0,1,16.832,40.614V174.11Z" transform="translate(154.371 79.695)" fill="#efeaf1"/>
        <path id="Path_902" data-name="Path 902" d="M292.46,135.046a22.983,22.983,0,0,1-45.967,0V114.726a11.48,11.48,0,0,0-22.959,0v20.319a22.983,22.983,0,0,1-45.967,0V114.726a11.48,11.48,0,0,0-22.959,0v20.319A22.982,22.982,0,0,1,115.4,151.3a22.14,22.14,0,0,1-6.709-16.251V114.726q0-22.959,17.244-40.2,17.219-17.219,40.2-17.244,19.653,0,34.463,11.383,14.822-11.371,34.463-11.383a55.39,55.39,0,0,1,40.615,16.832,55.351,55.351,0,0,1,16.832,40.614v20.319Z" transform="translate(154.371 79.695)" fill="#efeaf1"/>
        <circle id="Ellipse_282" data-name="Ellipse 282" cx="27.9" cy="27.9" r="27.9" transform="translate(233.126 1.593)" fill="#efeaf1"/>
        <circle id="Ellipse_283" data-name="Ellipse 283" cx="27.9" cy="27.9" r="27.9" transform="translate(168.027 1.593)" fill="#efeaf1"/>
        <g id="Group_1621" data-name="Group 1621" transform="translate(0.12 137.048)">
          <g id="Group_1619" data-name="Group 1619" transform="translate(0.024)">
            <path id="Path_903" data-name="Path 903" d="M.13,164.937V132.823q0-30.951,24.17-53.232T82.812,57.31q32.077,0,54.928,20.3t22.838,51c0,7.484-.945,13.635-2.834,18.5s-4.8,8.283-8.694,10.269a35.667,35.667,0,0,1-10.753,3.73,87.113,87.113,0,0,1-12.836.751H48.833v5.667q0,16.239,12.085,26.253,12.061,10.027,32.09,10a61.462,61.462,0,0,0,28.311-7.169c9.3-4.771,15.355-7.169,18.115-7.169q7.919,0,13.223,7.362,5.268,7.375,5.28,14.168,0,10.571-19.06,20.949t-47.371,10.39q-40.4,0-65.874-21.336Q.13,199.691.13,164.937Zm48.7-31.726h55.121c4.02,0,6.854-.654,8.5-1.937,1.623-1.284,2.446-3.827,2.446-7.581a24.622,24.622,0,0,0-9.615-20.1Q95.66,95.854,81.7,95.842a36.673,36.673,0,0,0-23.032,7.58,23.932,23.932,0,0,0-9.809,19.932v9.857Z" transform="translate(-0.13 -57.31)" fill="#efeaf1"/>
          </g>
          <g id="Group_1620" data-name="Group 1620" transform="translate(0 73.939)">
            <path id="Path_904" data-name="Path 904" d="M139.449,146.061q-4.178,0-18.115,7.169A61.237,61.237,0,0,1,93.022,160.4q-20.017,0-32.09-10-12.1-9.99-12.085-26.253V112.2A24.367,24.367,0,0,0,24.484,87.84h0A24.367,24.367,0,0,0,.12,112.2v9.324q0,34.729,25.478,56.066,25.5,21.324,65.874,21.337,28.336,0,47.371-10.39,19.072-10.39,19.06-20.949,0-6.793-5.28-14.168Q147.393,146.049,139.449,146.061Z" transform="translate(-0.12 -87.84)" fill="#efeaf1"/>
          </g>
        </g>
        <path id="Path_905" data-name="Path 905" d="M116.754,143.878a21.652,21.652,0,0,1-6.66,15.863,22.285,22.285,0,0,1-16.372,6.66,22.247,22.247,0,0,1-16.372-6.66,21.692,21.692,0,0,1-6.66-15.863V58.483A21.692,21.692,0,0,1,77.35,42.62a22.285,22.285,0,0,1,16.372-6.66,22.247,22.247,0,0,1,16.372,6.66,21.691,21.691,0,0,1,6.66,15.863Z" transform="translate(100.34 49.381)" fill="#efeaf1"/>
        <path id="Path_906" data-name="Path 906" d="M314.479,82.367l-.049-.1Z" transform="translate(446.903 115.227)" fill="#efeaf1"/>
        <g id="Group_1622" data-name="Group 1622" transform="translate(874.508 137.279)">
          <path id="Path_907" data-name="Path 907" d="M486.732,75.071l2.374,3.972,19.907,11.673,17.656,1.7c-9.591-13.635-29.329-24.267-29.329-24.267h0c-1.744-1.017-3.1-1.7-3.8-2.01-66.48-28.7-133.759,16.929-132.355,84.886.872,42.431,31.073,79.727,68.418,86.823h0c-.581-.436-1.163-.9-1.72-1.356l-.024-.024c-.557-.46-1.066-.92-1.6-1.38-.025,0-.025-.024-.049-.049-.509-.46-1.017-.944-1.478-1.429-.024-.024-.024-.048-.048-.048-.46-.484-.921-.969-1.356-1.453-.024-.048-.073-.073-.1-.121-.412-.484-.824-.945-1.187-1.453a.518.518,0,0,1-.1-.145c-.363-.484-.727-.969-1.066-1.477l-.145-.218c-.315-.484-.63-.969-.921-1.453a1.813,1.813,0,0,0-.169-.291,15.965,15.965,0,0,1-.751-1.429,2.685,2.685,0,0,1-.17-.388c-.218-.46-.411-.92-.605-1.4-.072-.17-.121-.339-.169-.484-.17-.46-.315-.9-.46-1.356-.049-.194-.1-.387-.146-.581-.121-.436-.242-.9-.339-1.356a6.567,6.567,0,0,1-.1-.678q-.109-.654-.218-1.308c-.024-.266-.048-.557-.048-.824-.024-.412-.072-.823-.1-1.235,0-.339,0-.7.024-1.041,0-.363,0-.7.024-1.066.024-.46.073-.92.121-1.4q.037-.4.073-.8c.1-.751.242-1.5.387-2.277a26.115,26.115,0,0,1,1.623-5.038L431.78,220.6l27.875-5.764-1.308-19.883a45.309,45.309,0,0,1-26.107-4.747c-.557-.291-1.09-.581-1.647-.9-.436-.242-.848-.484-1.284-.727a45.786,45.786,0,0,1,41.9-81.18v-.048a46.356,46.356,0,0,1,17.389,13.2l9.2-3.439-12.521-14.386L475.858,86.5l-2.955.872a26.948,26.948,0,0,1,1.453-2.519A22.524,22.524,0,0,1,486.732,75.071Z" transform="translate(-361.161 -57.406)" fill="#efeaf1"/>
          <path id="Path_908" data-name="Path 908" d="M512.349,142.473c.048-10.68-.605-21.167-3.947-31.436-5.062-15.6-12.957-29.014-25.018-39.258-7.023-5.982-16.347-9.058-25.4-7.314A23.793,23.793,0,0,0,441.8,75.508a26.082,26.082,0,0,0-3.415,7.556,17.482,17.482,0,0,0-.412,1.889,24.979,24.979,0,0,0-.388,3.778v.1a13.926,13.926,0,0,0,6.757,12.158,45.8,45.8,0,0,1-18.527,84.644,44.912,44.912,0,0,1-17.825-1.477c-6.805-1.962-14.337-.242-18.648,5.377a19.135,19.135,0,0,0-1.357,1.986,25.913,25.913,0,0,0-3.318,8.452c-.169.775-.291,1.526-.388,2.277q-.036.4-.073.8c-.048.46-.1.945-.121,1.4-.024.363,0,.7-.024,1.066,0,.339-.024.7-.024,1.041.024.412.048.823.1,1.235.024.266.024.557.048.823a12.422,12.422,0,0,0,.218,1.308,6.527,6.527,0,0,1,.1.678c.1.46.218.9.339,1.356l.145.581c.146.46.291.92.46,1.356a2.836,2.836,0,0,0,.169.484c.194.484.388.944.605,1.4a2.73,2.73,0,0,0,.169.388c.243.484.485.969.751,1.429a1.824,1.824,0,0,0,.17.291c.291.484.581.969.92,1.453l.146.218c.339.509.7.993,1.066,1.477a.515.515,0,0,1,.1.145c.388.484.775.969,1.186,1.453.025.048.073.073.1.121.436.484.9.969,1.356,1.453.024.024.024.049.049.049.484.484.968.969,1.477,1.429l.048.048q.763.69,1.6,1.38l.024.024c.267.242.582.46.848.678H396.2a2.077,2.077,0,0,0,.242.194c.218.17.412.339.63.509h0a6.131,6.131,0,0,0,.848.218c1.817.7,5.4,1.719,12.255,2.567q2.47.327,4.941.509c.29.024.533.049.823.073v-.024c14.507.993,28.723-1.889,42.624-7.823,4-1.7,6.346-2.083,9.93,1.114,8.452,7.532,18.527,9.13,28.772,4.069,10.026-4.965,15.282-13.175,15.16-24.8C512.18,183.765,512.252,163.107,512.349,142.473Z" transform="translate(-328.63 -48.058)" fill="#efeaf1"/>
        </g>
        <g id="Group_1623" data-name="Group 1623" transform="translate(492.63 137.594)">
          <path id="Path_909" data-name="Path 909" d="M329.052,75.2l2.373,3.972,19.908,11.673,17.655,1.7c-9.591-13.635-29.329-24.267-29.329-24.267h0c-1.744-1.017-3.1-1.7-3.8-2.01C269.377,37.566,202.1,83.194,203.5,151.151c.872,42.431,31.072,79.728,68.418,86.823h0c-.581-.436-1.163-.9-1.72-1.356l-.024-.024c-.557-.46-1.066-.92-1.6-1.38-.024,0-.024-.024-.049-.048-.508-.46-1.017-.945-1.477-1.429-.024-.024-.024-.048-.049-.048-.46-.484-.92-.969-1.356-1.453-.024-.048-.073-.073-.1-.121-.411-.484-.823-.944-1.186-1.453a.507.507,0,0,1-.1-.145c-.363-.484-.726-.969-1.065-1.477l-.145-.218c-.315-.484-.63-.969-.92-1.453a1.819,1.819,0,0,0-.169-.291c-.266-.46-.533-.945-.751-1.429a2.681,2.681,0,0,1-.169-.387c-.218-.46-.412-.92-.606-1.4-.072-.17-.121-.339-.169-.484-.17-.46-.315-.9-.46-1.356l-.145-.581c-.121-.436-.242-.9-.339-1.356a6.434,6.434,0,0,1-.1-.678q-.109-.654-.218-1.308c-.024-.266-.049-.557-.049-.823-.024-.412-.073-.823-.1-1.235,0-.339,0-.7.024-1.041,0-.363,0-.7.024-1.066.024-.46.072-.92.121-1.4l.073-.8c.1-.751.242-1.5.388-2.276a26.109,26.109,0,0,1,1.623-5.038L274.1,220.73l27.875-5.764-1.308-19.883a45.31,45.31,0,0,1-26.108-4.747c-.557-.291-1.09-.581-1.647-.9-.436-.242-.848-.484-1.284-.726a45.785,45.785,0,0,1,41.9-81.181v-.048a46.356,46.356,0,0,1,17.389,13.2l9.2-3.439L327.6,102.859l-9.421-16.226-2.955.872a26.9,26.9,0,0,1,1.453-2.519A22.716,22.716,0,0,1,329.052,75.2Z" transform="translate(-203.481 -57.536)" fill="#efeaf1"/>
          <path id="Path_910" data-name="Path 910" d="M354.669,142.6c.049-10.68-.605-21.167-3.947-31.436-5.062-15.6-12.957-29.014-25.018-39.258-7.023-5.982-16.348-9.058-25.406-7.314a23.8,23.8,0,0,0-16.178,11.044,26.094,26.094,0,0,0-3.415,7.556,17.541,17.541,0,0,0-.412,1.889,25,25,0,0,0-.387,3.778v.1a13.923,13.923,0,0,0,6.757,12.158,45.8,45.8,0,0,1-18.527,84.644,44.914,44.914,0,0,1-17.825-1.477c-6.805-1.962-14.337-.242-18.648,5.376a19.144,19.144,0,0,0-1.356,1.986,25.912,25.912,0,0,0-3.318,8.452c-.169.775-.29,1.526-.387,2.276q-.036.4-.073.8c-.049.46-.1.945-.121,1.4-.024.363,0,.7-.024,1.066,0,.339-.024.7-.024,1.041.024.412.049.824.1,1.235.024.266.024.557.049.823a12.252,12.252,0,0,0,.218,1.308,6.622,6.622,0,0,1,.1.678c.1.46.218.9.339,1.356l.145.581c.145.46.29.92.46,1.356a2.858,2.858,0,0,0,.169.484c.194.484.388.945.606,1.4a2.7,2.7,0,0,0,.169.388c.242.484.484.969.751,1.429a1.814,1.814,0,0,0,.169.291c.291.484.581.969.92,1.453l.145.218c.339.508.7.993,1.066,1.477a.5.5,0,0,1,.1.145c.388.484.775.969,1.187,1.453.024.048.073.073.1.121.436.484.9.969,1.356,1.453.025.024.025.048.049.048.484.484.969.969,1.477,1.429l.048.048q.763.69,1.6,1.38l.024.024c.266.242.581.46.848.678h-.024a2.1,2.1,0,0,0,.242.194c.218.17.412.339.63.509h0a6.129,6.129,0,0,0,.848.218c1.816.7,5.4,1.72,12.254,2.567q2.471.327,4.941.509c.291.024.533.048.824.073v-.024c14.507.993,28.723-1.889,42.624-7.822,4-1.7,6.345-2.083,9.93,1.114,8.452,7.532,18.527,9.13,28.772,4.069,10.027-4.965,15.282-13.175,15.161-24.8C354.5,183.9,354.573,163.237,354.669,142.6Z" transform="translate(-170.95 -48.188)" fill="#efeaf1"/>
        </g>
      </g>
    </g>
    <g id="Group_15295" data-name="Group 15295" transform="translate(1200 61)">
      <g id="Group_15294" data-name="Group 15294" clip-path="url(#clip-path-2)">
        <path id="Path_36478" data-name="Path 36478" d="M282.846,380.081H410.953l4.121-81.288H278.725Z" fill="#ebebeb"/>
        <path id="Path_36479" data-name="Path 36479" d="M287.716,308.283H402.843L401.095,335.5H289.214Z" fill="none" stroke="#dbdbdb" stroke-width="1"/>
        <path id="Path_36480" data-name="Path 36480" d="M291.243,343.5l1.218,24.474H399.566l1.529-24.474Z" fill="none" stroke="#dbdbdb" stroke-width="1"/>
        <path id="Path_36481" data-name="Path 36481" d="M357.688,324.453H334.65l-.749-5.806h24.536Z" fill="none" stroke="#dbdbdb" stroke-width="1"/>
        <path id="Path_36482" data-name="Path 36482" d="M357.688,358.635H334.65l-.749-5.806h24.536Z" fill="none" stroke="#dbdbdb" stroke-width="1"/>
        <path id="Path_36483" data-name="Path 36483" d="M300.612,380.081l-1.244,8.856-2.5,17.793h-4.892V380.081Z" fill="#ebebeb"/>
        <path id="Path_36484" data-name="Path 36484" d="M300.612,380.081l-1.244,8.856h-7.394v-8.856Z" fill="#dbdbdb"/>
        <path id="Path_36485" data-name="Path 36485" d="M393.187,380.081l1.244,8.856,2.5,17.793h4.892V380.081Z" fill="#ebebeb"/>
        <path id="Path_36486" data-name="Path 36486" d="M393.187,380.081l1.244,8.856h7.394v-8.856Z" fill="#dbdbdb"/>
        <g id="Group_15277" data-name="Group 15277">
          <g id="Group_15276" data-name="Group 15276" clip-path="url(#clip-path-2)">
            <path id="Path_36487" data-name="Path 36487" d="M41.754,327.056l-13.125.279-6.661.112c-2.226.047-4.463.037-6.694.055l-.444,0,0-.449-.054-11.19,0-.5.5,0,13.24.063c4.413.005,8.827.112,13.24.163l.276,0,0,.27c-.019,1.9-.086,3.787-.131,5.654Zm0,0-.142-5.654c-.045-1.863-.112-3.705-.131-5.536l.273.273c-4.413.051-8.827.159-13.24.164l-13.24.063.5-.5-.054,11.19-.445-.446c2.181.018,4.357.008,6.545.055l6.579.112Z" fill="#ebebeb"/>
            <path id="Path_36488" data-name="Path 36488" d="M26.982,341.165l-13.125.279-6.661.112c-2.226.047-4.463.037-6.694.055l-.444,0,0-.449L0,329.975l0-.5.5,0,13.24.063c4.413.005,8.826.112,13.24.163l.276,0,0,.269c-.019,1.9-.086,3.787-.131,5.654Zm0,0-.142-5.654c-.045-1.862-.112-3.7-.131-5.536l.273.273c-4.414.051-8.827.159-13.24.164L.5,330.475l.5-.5-.054,11.19L.5,340.719c2.181.018,4.357.008,6.545.055l6.579.112Z" fill="#ebebeb"/>
            <path id="Path_36489" data-name="Path 36489" d="M365.663,202.493l-13.125.279-6.661.112c-2.226.047-4.463.037-6.694.055l-.444,0,0-.449-.054-11.19,0-.5.5,0,13.24.063c4.413,0,8.826.112,13.24.163l.276,0,0,.27c-.019,1.9-.086,3.787-.131,5.654Zm0,0-.142-5.654c-.045-1.863-.112-3.705-.131-5.536l.273.273c-4.414.051-8.827.159-13.24.164l-13.24.063.5-.5-.054,11.19-.445-.446c2.181.018,4.357.008,6.545.055l6.579.112Z" fill="#ebebeb"/>
            <path id="Path_36490" data-name="Path 36490" d="M350.892,216.6l-13.125.279-6.661.112c-2.226.047-4.463.037-6.694.055l-.444,0,0-.449-.054-11.19,0-.5.5,0,13.24.063c4.413.005,8.826.112,13.24.163l.276,0,0,.269c-.019,1.9-.086,3.787-.131,5.654Zm0,0-.142-5.654c-.045-1.862-.112-3.705-.131-5.536l.273.273c-4.414.051-8.827.159-13.24.164l-13.24.063.5-.5-.054,11.19-.445-.446c2.181.018,4.357.008,6.545.055l6.579.112Z" fill="#ebebeb"/>
            <path id="Path_36491" data-name="Path 36491" d="M336.178,202.493l-13.125.279-6.661.112c-2.226.047-4.463.037-6.694.055l-.444,0,0-.449L309.2,191.3l0-.5.5,0,13.24.063c4.413,0,8.826.112,13.24.163l.276,0,0,.27c-.019,1.9-.086,3.787-.131,5.654Zm0,0-.142-5.654c-.045-1.863-.112-3.705-.131-5.536l.273.273c-4.414.051-8.827.159-13.24.164l-13.24.063.5-.5-.054,11.19-.445-.446c2.181.018,4.357.008,6.545.055l6.579.112Z" fill="#ebebeb"/>
            <path id="Path_36492" data-name="Path 36492" d="M417.82,341.165l-13.125.279-6.661.112c-2.226.047-4.463.037-6.694.055l-.444,0,0-.449-.054-11.19,0-.5.5,0,13.24.063c4.413.005,8.827.112,13.24.163l.276,0,0,.269c-.019,1.9-.086,3.787-.131,5.654Zm0,0-.142-5.654c-.045-1.862-.112-3.7-.131-5.536l.273.273c-4.413.051-8.827.159-13.24.164l-13.24.063.5-.5-.054,11.19-.445-.446c2.181.018,4.357.008,6.545.055l6.579.112Z" fill="#ebebeb"/>
            <path id="Path_36493" data-name="Path 36493" d="M403.048,67.486l-13.125.279-6.661.112c-2.226.047-4.463.037-6.694.055l-.444,0,0-.449-.054-11.19,0-.5.5,0,13.24.063c4.413.005,8.827.112,13.24.163l.276,0,0,.27c-.019,1.9-.086,3.787-.131,5.654Zm0,0-.142-5.654c-.045-1.863-.112-3.705-.131-5.536l.273.273c-4.413.051-8.827.159-13.24.164l-13.24.063.5-.5-.054,11.19-.445-.446c2.181.018,4.357.008,6.545.055l6.579.112Z" fill="#ebebeb"/>
            <path id="Path_36494" data-name="Path 36494" d="M417.82,81.6l-13.125.279-6.661.112c-2.226.047-4.463.037-6.694.055l-.444,0,0-.449-.054-11.19,0-.5.5,0,13.24.063c4.413,0,8.827.112,13.24.163l.276,0,0,.27c-.019,1.9-.086,3.787-.131,5.654Zm0,0-.142-5.654c-.045-1.863-.112-3.705-.131-5.536l.273.273c-4.413.051-8.827.159-13.24.164l-13.24.063.5-.5-.054,11.19-.445-.446c2.181.018,4.357.008,6.545.055l6.579.112Z" fill="#ebebeb"/>
            <path id="Path_36495" data-name="Path 36495" d="M41.754,67.486l-13.125.279-6.661.112c-2.226.047-4.463.037-6.694.055l-.444,0,0-.449L14.774,56.3l0-.5.5,0,13.24.063c4.413.005,8.827.112,13.24.163l.276,0,0,.27c-.019,1.9-.086,3.787-.131,5.654Zm0,0-.142-5.654c-.045-1.863-.112-3.705-.131-5.536l.273.273c-4.413.051-8.827.159-13.24.164l-13.24.063.5-.5-.054,11.19-.445-.446c2.181.018,4.357.008,6.545.055l6.579.112Z" fill="#ebebeb"/>
            <rect id="Rectangle_27728" data-name="Rectangle 27728" width="1.202" height="114.237" transform="translate(26.117)" fill="#ebebeb"/>
            <rect id="Rectangle_27729" data-name="Rectangle 27729" width="6.681" height="4.517" transform="translate(23.377 108.88)" fill="#dbdbdb"/>
            <rect id="Rectangle_27730" data-name="Rectangle 27730" width="6.681" height="3.015" transform="translate(23.377 110.382)" fill="#c7c7c7"/>
            <path id="Path_36496" data-name="Path 36496" d="M21.571,143.294a5.144,5.144,0,1,0,5.143-5.143,5.143,5.143,0,0,0-5.143,5.143" fill="#ebebeb"/>
            <path id="Path_36497" data-name="Path 36497" d="M9.976,143.294H43.454L37.39,132.547,32.445,112.6H20.984l-4.946,19.949Z" fill="#dbdbdb"/>
            <rect id="Rectangle_27731" data-name="Rectangle 27731" width="1.202" height="93.67" transform="translate(65.467)" fill="#ebebeb"/>
            <rect id="Rectangle_27732" data-name="Rectangle 27732" width="6.681" height="4.517" transform="translate(62.727 88.314)" fill="#dbdbdb"/>
            <rect id="Rectangle_27733" data-name="Rectangle 27733" width="6.681" height="3.014" transform="translate(62.727 89.817)" fill="#c7c7c7"/>
            <path id="Path_36498" data-name="Path 36498" d="M60.922,122.727a5.143,5.143,0,1,0,5.143-5.143,5.144,5.144,0,0,0-5.143,5.143" fill="#ebebeb"/>
            <path id="Path_36499" data-name="Path 36499" d="M49.326,122.727H82.8L76.741,111.98,71.8,92.031H60.335L55.389,111.98Z" fill="#dbdbdb"/>
            <rect id="Rectangle_27734" data-name="Rectangle 27734" width="1.202" height="72.632" transform="translate(102.281)" fill="#ebebeb"/>
            <rect id="Rectangle_27735" data-name="Rectangle 27735" width="6.681" height="4.517" transform="translate(99.541 67.276)" fill="#dbdbdb"/>
            <rect id="Rectangle_27736" data-name="Rectangle 27736" width="6.681" height="3.015" transform="translate(99.541 68.778)" fill="#c7c7c7"/>
            <path id="Path_36500" data-name="Path 36500" d="M97.736,101.689a5.144,5.144,0,1,0,5.143-5.143,5.144,5.144,0,0,0-5.143,5.143" fill="#ebebeb"/>
            <path id="Path_36501" data-name="Path 36501" d="M86.14,101.689h33.478l-6.063-10.747-4.946-19.949H97.149L92.2,90.942Z" fill="#dbdbdb"/>
            <rect id="Rectangle_27737" data-name="Rectangle 27737" width="47.542" height="57.668" transform="translate(344.732 65.493)" fill="#ebebeb"/>
            <rect id="Rectangle_27738" data-name="Rectangle 27738" width="36.677" height="47.142" transform="translate(350.164 70.756)" fill="#fff"/>
            <rect id="Rectangle_27739" data-name="Rectangle 27739" width="1.431" height="47.142" transform="translate(350.164 70.756)" fill="#c7c7c7"/>
            <rect id="Rectangle_27740" data-name="Rectangle 27740" width="1.431" height="57.668" transform="translate(392.274 65.493)" fill="#c7c7c7"/>
            <rect id="Rectangle_27741" data-name="Rectangle 27741" width="8.648" height="25.766" transform="translate(369.321 81.657)" fill="#ebebeb"/>
            <rect id="Rectangle_27742" data-name="Rectangle 27742" width="23.06" height="12.623" transform="translate(358.683 77.255)" fill="none" stroke="#ebebeb" stroke-width="1"/>
            <rect id="Rectangle_27743" data-name="Rectangle 27743" width="47.542" height="57.668" transform="translate(344.732 207.61)" fill="#ebebeb"/>
            <rect id="Rectangle_27744" data-name="Rectangle 27744" width="36.677" height="47.142" transform="translate(350.164 212.873)" fill="#fff"/>
            <rect id="Rectangle_27745" data-name="Rectangle 27745" width="1.431" height="47.142" transform="translate(350.164 212.873)" fill="#c7c7c7"/>
            <rect id="Rectangle_27746" data-name="Rectangle 27746" width="1.431" height="57.668" transform="translate(392.274 207.61)" fill="#c7c7c7"/>
            <rect id="Rectangle_27747" data-name="Rectangle 27747" width="8.648" height="25.765" transform="translate(362.456 223.774)" fill="#ebebeb"/>
            <rect id="Rectangle_27748" data-name="Rectangle 27748" width="23.06" height="12.623" transform="translate(358.683 219.372)" fill="none" stroke="#ebebeb" stroke-width="1"/>
            <rect id="Rectangle_27749" data-name="Rectangle 27749" width="47.542" height="57.668" transform="translate(344.732 136.811)" fill="#ebebeb"/>
            <rect id="Rectangle_27750" data-name="Rectangle 27750" width="36.677" height="47.142" transform="translate(350.164 142.074)" fill="#fff"/>
            <rect id="Rectangle_27751" data-name="Rectangle 27751" width="1.431" height="47.142" transform="translate(350.164 142.074)" fill="#c7c7c7"/>
            <rect id="Rectangle_27752" data-name="Rectangle 27752" width="1.431" height="57.668" transform="translate(392.274 136.811)" fill="#c7c7c7"/>
            <rect id="Rectangle_27753" data-name="Rectangle 27753" width="7.409" height="18.733" transform="translate(364.951 154.26)" fill="#ebebeb"/>
            <rect id="Rectangle_27754" data-name="Rectangle 27754" width="19.903" height="12.913" transform="translate(360.259 165.646)" fill="none" stroke="#dbdbdb" stroke-width="1"/>
          </g>
        </g>
        <g id="Group_15279" data-name="Group 15279">
          <g id="Group_15278" data-name="Group 15278" clip-path="url(#clip-path-2)">
            <path id="Path_36502" data-name="Path 36502" d="M407.475,449.032c0,11.277-88.788,20.418-198.314,20.418S10.846,460.309,10.846,449.032s88.789-20.419,198.315-20.419,198.314,9.142,198.314,20.419" fill="#ebebeb"/>
          </g>
        </g>
        <path id="Path_36503" data-name="Path 36503" d="M104.906,406.114l-52.128.088-52.127.243,52.127.243,52.128.088,104.255.168,104.255-.167,52.127-.087,52.128-.245-52.128-.245-52.127-.088-104.255-.166Z" fill="#263238"/>
        <g id="Group_15281" data-name="Group 15281">
          <g id="Group_15280" data-name="Group 15280" clip-path="url(#clip-path-2)">
            <path id="Path_36504" data-name="Path 36504" d="M293.681,52.69H124.621a17.259,17.259,0,0,0-17.1,17.42V418.12a17.272,17.272,0,0,0,17.1,17.42h169.06a17.289,17.289,0,0,0,17.12-17.42V70.11a17.276,17.276,0,0,0-17.12-17.42m6.42,354.67c0,9.16-6.86,16.57-15.32,16.57H133.541c-8.48,0-15.34-7.41-15.34-16.57V83.3c0-18.66,6.86-19.57,15.34-19.57h30.3c1.76,0,3.2,2,3.2,4.48v1.07c0,5.81,3.18,5.83,7.08,5.83h70.06c3.94,0,7.1-.02,7.1-5.83V68.21c0-2.48,1.42-4.48,3.21-4.48h30.29c8.46,0,15.32,2.48,15.32,19.57Z" fill="#455a64"/>
            <path id="Path_36505" data-name="Path 36505" d="M300.1,83.3V407.36c0,9.16-6.86,16.57-15.32,16.57H133.541c-8.48,0-15.34-7.41-15.34-16.57V83.3c0-18.66,6.86-19.57,15.34-19.57h30.3c1.76,0,3.2,2,3.2,4.48v1.07c0,5.81,3.18,5.83,7.08,5.83h70.06c3.94,0,7.1-.02,7.1-5.83V68.21c0-2.48,1.42-4.48,3.21-4.48h30.29c8.46,0,15.32,2.48,15.32,19.57" fill="#fff"/>
            <path id="Path_36506" data-name="Path 36506" d="M300.1,83.3v36.495H118.2V83.3c0-18.66,6.86-19.57,15.34-19.57h30.3c1.76,0,3.2,2,3.2,4.48v1.07c0,5.81,3.18,5.83,7.08,5.83h70.06c3.94,0,7.1-.02,7.1-5.83V68.21c0-2.48,1.42-4.48,3.21-4.48h30.29c8.46,0,15.32,2.48,15.32,19.57" fill="#5f2d79"/>
            <path id="Path_36507" data-name="Path 36507" d="M158.609,71.009l-.293.291-.166.166a3.983,3.983,0,0,0-5.643,0c-.052-.054-.1-.11-.158-.164-.1-.1-.192-.194-.289-.291l-.009,0V71a.191.191,0,0,0,.022-.018c.123-.109.243-.222.37-.327a4.547,4.547,0,0,1,1.991-.927c.187-.035.377-.052.566-.075.065-.008.484-.01.5-.009.128.01.258.015.386.029a4.389,4.389,0,0,1,1.041.249,4.6,4.6,0,0,1,.7.329,4.48,4.48,0,0,1,.672.471c.1.09.206.185.309.278Z" fill="#fff"/>
            <path id="Path_36508" data-name="Path 36508" d="M153.436,72.386l-.463-.459a3.263,3.263,0,0,1,1.882-.945,3.3,3.3,0,0,1,2.831.939l-.464.462a2.679,2.679,0,0,0-3.786,0" fill="#fff"/>
            <path id="Path_36509" data-name="Path 36509" d="M156.759,72.848l-.46.46a1.369,1.369,0,0,0-1.94,0l-.459-.459a2.009,2.009,0,0,1,2.859,0" fill="#fff"/>
            <path id="Path_36510" data-name="Path 36510" d="M155.745,73.726a.415.415,0,1,1-.416-.416.416.416,0,0,1,.416.416" fill="#fff"/>
            <path id="Path_36511" data-name="Path 36511" d="M130.065,71.893A1.205,1.205,0,1,1,131.27,73.1a1.2,1.2,0,0,1-1.205-1.206" fill="#fff"/>
            <path id="Path_36512" data-name="Path 36512" d="M133.863,71.893a1.2,1.2,0,1,1,1.2,1.206,1.2,1.2,0,0,1-1.2-1.206" fill="#fff"/>
            <path id="Path_36513" data-name="Path 36513" d="M137.66,71.893a1.205,1.205,0,1,1,1.2,1.206,1.2,1.2,0,0,1-1.2-1.206" fill="#fff"/>
            <path id="Path_36514" data-name="Path 36514" d="M141.457,71.893a1.205,1.205,0,1,1,1.205,1.206,1.2,1.2,0,0,1-1.205-1.206" fill="#fff"/>
            <path id="Path_36515" data-name="Path 36515" d="M145.254,71.893a1.205,1.205,0,1,1,1.205,1.206,1.205,1.205,0,0,1-1.205-1.206" fill="#fff"/>
            <path id="Path_36516" data-name="Path 36516" d="M286.459,74.525h-9.814V69.979h9.814Zm-9.314-.5h8.814V70.479h-8.814Z" fill="#fff"/>
            <rect id="Rectangle_27757" data-name="Rectangle 27757" width="6.326" height="3.002" transform="translate(277.459 70.751)" fill="#fff"/>
            <rect id="Rectangle_27758" data-name="Rectangle 27758" width="0.873" height="2.432" transform="translate(286.464 71.036)" fill="#fff"/>
            <path id="Path_36517" data-name="Path 36517" d="M134.783,109.545l-5.374-5.035,5.374-5.035.834.888-4.425,4.147,4.425,4.147Z" fill="#fff"/>
            <path id="Path_36518" data-name="Path 36518" d="M283.538,99.475l5.374,5.035-5.374,5.035-.834-.888,4.425-4.147-4.425-4.147Z" fill="#fff"/>
            <path id="Path_36519" data-name="Path 36519" d="M198.947,102.441a3.594,3.594,0,0,1,0,4.95,3.206,3.206,0,0,1-2.337,1.046,3.306,3.306,0,0,1-2.4-1.046,3.648,3.648,0,0,1,0-4.95,3.268,3.268,0,0,1,2.4-1.046,3.169,3.169,0,0,1,2.337,1.046m-.127,2.475a2.536,2.536,0,0,0-.665-1.712,2.108,2.108,0,0,0-1.545-.694,2.131,2.131,0,0,0-1.585.694,2.494,2.494,0,0,0-.665,1.712,2.451,2.451,0,0,0,.665,1.7,2.14,2.14,0,0,0,1.585.7,2.118,2.118,0,0,0,1.545-.7,2.492,2.492,0,0,0,.665-1.7" fill="#fff"/>
            <path id="Path_36520" data-name="Path 36520" d="M206.393,107.625a.541.541,0,0,1-.343.685.9.9,0,0,1-.215.029h-.01a.713.713,0,0,1-.381-.108.957.957,0,0,1-.313-.342,2.629,2.629,0,0,1-.206-1.174.812.812,0,0,0-.117-.42.907.907,0,0,0-.293-.284,1.881,1.881,0,0,0-.548-.235h-1.155V107.9a.545.545,0,0,1-.547.538.537.537,0,0,1-.538-.538v-5.771a.531.531,0,0,1,.538-.538h1.751a2.092,2.092,0,0,1,1.33,3.707,1.52,1.52,0,0,1,.342.362,1.849,1.849,0,0,1,.323,1.056,2.493,2.493,0,0,0,.039.577.529.529,0,0,1,.343.333m-1.37-3.932a1.008,1.008,0,0,0-1.007-1.017h-1.2v2.015h1.2a1,1,0,0,0,1.007-1" fill="#fff"/>
            <path id="Path_36521" data-name="Path 36521" d="M207.977,107.9v-5.77a.531.531,0,0,1,.538-.538h1.155a3.423,3.423,0,0,1,0,6.846h-1.155a.536.536,0,0,1-.538-.538m1.086-.547h.607a2.338,2.338,0,0,0,0-4.675h-.607Z" fill="#fff"/>
            <path id="Path_36522" data-name="Path 36522" d="M214.523,107.9v-5.771a.53.53,0,0,1,.537-.538h3.2a.542.542,0,0,1,.537.538.55.55,0,0,1-.537.548h-2.651v1.79h2.279a.543.543,0,0,1,0,1.086h-2.279v1.8h2.651a.543.543,0,0,1,0,1.085H215.09c-.019,0-.019-.01-.019-.01l-.011.01a.536.536,0,0,1-.537-.538" fill="#fff"/>
            <path id="Path_36523" data-name="Path 36523" d="M225.047,107.625a.54.54,0,0,1-.343.685.9.9,0,0,1-.214.029h-.01a.716.716,0,0,1-.382-.108.966.966,0,0,1-.313-.342,2.645,2.645,0,0,1-.205-1.174.811.811,0,0,0-.118-.42.9.9,0,0,0-.293-.284,1.87,1.87,0,0,0-.548-.235h-1.154V107.9a.545.545,0,0,1-.548.538.537.537,0,0,1-.538-.538v-5.771a.531.531,0,0,1,.538-.538h1.751A2.092,2.092,0,0,1,224,105.3a1.524,1.524,0,0,1,.343.362,1.856,1.856,0,0,1,.322,1.056,2.554,2.554,0,0,0,.039.577.525.525,0,0,1,.343.333m-1.369-3.932a1.008,1.008,0,0,0-1.008-1.017h-1.2v2.015h1.2a1,1,0,0,0,1.008-1" fill="#fff"/>
            <path id="Path_36524" data-name="Path 36524" d="M218.712,67.854H199.6a1.181,1.181,0,1,1,0-2.361h19.11a1.181,1.181,0,0,1,0,2.361" fill="#263238"/>
            <path id="Path_36525" data-name="Path 36525" d="M148.017,252.339l-2.4,3.291v3.162a.635.635,0,0,1-.644.645.65.65,0,0,1-.644-.645V255.63l-2.378-3.291a.615.615,0,0,1,.129-.89.625.625,0,0,1,.89.14l2,2.741,2-2.741a.642.642,0,0,1,1.042.75" fill="#263238"/>
            <path id="Path_36526" data-name="Path 36526" d="M148.512,258.582a2.926,2.926,0,0,1-.808-2.061,3.022,3.022,0,0,1,.808-2.049,2.736,2.736,0,0,1,2.015-.891,2.589,2.589,0,0,1,1.956.891,2.924,2.924,0,0,1,.82,2.049,2.835,2.835,0,0,1-.82,2.061,2.592,2.592,0,0,1-1.956.891,2.739,2.739,0,0,1-2.015-.891m.469-2.061a1.892,1.892,0,0,0,.422,1.242,1.587,1.587,0,0,0,1.124.433,1.539,1.539,0,0,0,1.078-.433,1.8,1.8,0,0,0,.457-1.242,1.763,1.763,0,0,0-.457-1.219,1.658,1.658,0,0,0-1.078-.444,1.7,1.7,0,0,0-1.124.444,1.852,1.852,0,0,0-.422,1.219" fill="#263238"/>
            <path id="Path_36527" data-name="Path 36527" d="M157.43,259.437A2.45,2.45,0,0,1,154.994,257v-2.8a.632.632,0,0,1,.62-.62.624.624,0,0,1,.621.62V257a1.185,1.185,0,0,0,1.195,1.2,1.216,1.216,0,0,0,1.23-1.2v-2.8a.614.614,0,0,1,.609-.62.65.65,0,0,1,.632.62V257a2.473,2.473,0,0,1-2.471,2.437" fill="#263238"/>
            <path id="Path_36528" data-name="Path 36528" d="M165.9,254.2a.625.625,0,0,1-.621.621,1.124,1.124,0,0,0-.7.222,1.779,1.779,0,0,0-.539.563,3.639,3.639,0,0,0-.48.983v2.226a.638.638,0,0,1-.644.621.625.625,0,0,1-.621-.621V254.2a.615.615,0,0,1,.621-.609.627.627,0,0,1,.644.609v.082a1.5,1.5,0,0,1,.246-.234,2.575,2.575,0,0,1,1.476-.457.607.607,0,0,1,.621.609" fill="#263238"/>
            <path id="Path_36529" data-name="Path 36529" d="M171.493,258.582a2.926,2.926,0,0,1-.808-2.061,3.022,3.022,0,0,1,.808-2.049,2.737,2.737,0,0,1,2.015-.891,2.589,2.589,0,0,1,1.956.891,2.924,2.924,0,0,1,.82,2.049,2.835,2.835,0,0,1-.82,2.061,2.592,2.592,0,0,1-1.956.891,2.741,2.741,0,0,1-2.015-.891m.469-2.061a1.892,1.892,0,0,0,.422,1.242,1.587,1.587,0,0,0,1.124.433,1.539,1.539,0,0,0,1.078-.433,1.8,1.8,0,0,0,.457-1.242,1.767,1.767,0,0,0-.457-1.219,1.658,1.658,0,0,0-1.078-.444,1.7,1.7,0,0,0-1.124.444,1.852,1.852,0,0,0-.422,1.219" fill="#263238"/>
            <path id="Path_36530" data-name="Path 36530" d="M181.652,254.2a.625.625,0,0,1-.621.621,1.124,1.124,0,0,0-.7.222,1.779,1.779,0,0,0-.539.563,3.639,3.639,0,0,0-.48.983v2.226a.638.638,0,0,1-.644.621.625.625,0,0,1-.621-.621V254.2a.615.615,0,0,1,.621-.609.627.627,0,0,1,.644.609v.082a1.5,1.5,0,0,1,.246-.234,2.575,2.575,0,0,1,1.476-.457.607.607,0,0,1,.621.609" fill="#263238"/>
            <path id="Path_36531" data-name="Path 36531" d="M188.2,258.8a.633.633,0,0,1-1.253.129,2.861,2.861,0,0,1-1.593.5,2.93,2.93,0,0,1,0-5.857,2.779,2.779,0,0,1,1.57.492v-2.2a.638.638,0,0,1,1.276,0V258.8Zm-2.846-3.947a1.514,1.514,0,0,0-1.1.48,1.7,1.7,0,0,0,0,2.343,1.518,1.518,0,0,0,1.1.48,1.5,1.5,0,0,0,1.1-.48,1.7,1.7,0,0,0,0-2.343,1.5,1.5,0,0,0-1.1-.48" fill="#263238"/>
            <path id="Path_36532" data-name="Path 36532" d="M190.045,256.508a2.9,2.9,0,0,1,2.858-2.927,2.8,2.8,0,0,1,2.823,2.716v.06a.315.315,0,0,1-.012.105.565.565,0,0,1-.609.469h-3.724a1.528,1.528,0,0,0,.4.772,1.812,1.812,0,0,0,1.124.528,1.918,1.918,0,0,0,1.218-.293A.664.664,0,0,1,195,257.9a.537.537,0,0,1,0,.762,2.961,2.961,0,0,1-2.1.773,2.908,2.908,0,0,1-2.858-2.929m1.277-.573h3.315a1.915,1.915,0,0,0-1.734-1.242,1.637,1.637,0,0,0-1.581,1.242" fill="#263238"/>
            <path id="Path_36533" data-name="Path 36533" d="M200.954,254.2a.625.625,0,0,1-.621.621,1.124,1.124,0,0,0-.7.222,1.768,1.768,0,0,0-.539.563,3.609,3.609,0,0,0-.48.983v2.226a.638.638,0,0,1-.644.621.626.626,0,0,1-.621-.621V254.2a.615.615,0,0,1,.621-.609.628.628,0,0,1,.644.609v.082a1.5,1.5,0,0,1,.246-.234,2.575,2.575,0,0,1,1.476-.457.608.608,0,0,1,.621.609" fill="#263238"/>
            <path id="Path_36534" data-name="Path 36534" d="M207.283,252.117a.633.633,0,0,1-.633.644.64.64,0,0,1-.632-.644v-.246a.63.63,0,0,1,.632-.633.624.624,0,0,1,.633.633Zm0,2.12V258.8a.624.624,0,0,1-.633.633.63.63,0,0,1-.632-.633v-4.568a.633.633,0,1,1,1.265,0" fill="#263238"/>
            <path id="Path_36535" data-name="Path 36535" d="M209.018,257.763a.608.608,0,0,1,.878-.094,2.161,2.161,0,0,0,1.288.516,1.56,1.56,0,0,0,.8-.224.474.474,0,0,0,.209-.351.176.176,0,0,0-.034-.117c-.011-.035-.059-.082-.152-.14a2.724,2.724,0,0,0-.937-.328h-.011a4.532,4.532,0,0,1-1.02-.3,1.968,1.968,0,0,1-.808-.68,1.42,1.42,0,0,1-.2-.738,1.644,1.644,0,0,1,.691-1.288,2.52,2.52,0,0,1,1.44-.434,3.008,3.008,0,0,1,1.757.645.644.644,0,0,1,.187.866.619.619,0,0,1-.866.164,2.007,2.007,0,0,0-1.078-.433,1.19,1.19,0,0,0-.7.21.36.36,0,0,0-.188.27.124.124,0,0,0,.024.094.317.317,0,0,0,.128.117,2.4,2.4,0,0,0,.855.281l.012.012h.012a4.23,4.23,0,0,1,1.09.339,1.832,1.832,0,0,1,.831.691,1.512,1.512,0,0,1,.222.773,1.689,1.689,0,0,1-.738,1.359,2.663,2.663,0,0,1-1.523.469,3.406,3.406,0,0,1-2.084-.809.623.623,0,0,1-.082-.866" fill="#263238"/>
            <path id="Path_36536" data-name="Path 36536" d="M218.171,256.521a2.98,2.98,0,0,1,2.975-2.94,3.087,3.087,0,0,1,1.862.644.643.643,0,0,1,.129.866.624.624,0,0,1-.878.118,1.869,1.869,0,0,0-1.113-.375,1.682,1.682,0,1,0,0,3.362,1.9,1.9,0,0,0,1.113-.375.637.637,0,0,1,.878.129.647.647,0,0,1-.129.867,3.224,3.224,0,0,1-1.862.621,2.968,2.968,0,0,1-2.975-2.917" fill="#263238"/>
            <path id="Path_36537" data-name="Path 36537" d="M225.635,258.582a2.927,2.927,0,0,1-.809-2.061,3.023,3.023,0,0,1,.809-2.049,2.737,2.737,0,0,1,2.015-.891,2.592,2.592,0,0,1,1.957.891,2.927,2.927,0,0,1,.819,2.049,2.838,2.838,0,0,1-.819,2.061,2.6,2.6,0,0,1-1.957.891,2.741,2.741,0,0,1-2.015-.891m.47-2.061a1.892,1.892,0,0,0,.422,1.242,1.585,1.585,0,0,0,1.123.433,1.535,1.535,0,0,0,1.077-.433,1.8,1.8,0,0,0,.459-1.242,1.764,1.764,0,0,0-.459-1.219,1.654,1.654,0,0,0-1.077-.444,1.7,1.7,0,0,0-1.123.444,1.852,1.852,0,0,0-.422,1.219" fill="#263238"/>
            <path id="Path_36538" data-name="Path 36538" d="M237.3,256.017v2.8a.615.615,0,0,1-.609.621.632.632,0,0,1-.62-.621v-2.8a1.2,1.2,0,0,0-1.218-1.184,1.17,1.17,0,0,0-1.171,1.184v2.8a.225.225,0,0,1-.024.117.641.641,0,0,1-.621.5.618.618,0,0,1-.621-.621V254.2a.618.618,0,0,1,.621-.62.633.633,0,0,1,.574.363,2.334,2.334,0,0,1,1.242-.363,2.451,2.451,0,0,1,2.447,2.436" fill="#263238"/>
            <path id="Path_36539" data-name="Path 36539" d="M241.525,253.194v.164h.352a.642.642,0,0,1,.644.644.649.649,0,0,1-.644.644h-.352v4.135a.644.644,0,0,1-1.288,0v-4.135h-.3a.652.652,0,0,1-.656-.644.645.645,0,0,1,.656-.644h.3v-.164a2.413,2.413,0,0,1,.223-1.148,1.393,1.393,0,0,1,.843-.726,2.375,2.375,0,0,1,.7-.093.65.65,0,0,1,0,1.3.82.82,0,0,0-.3.036.113.113,0,0,0-.07.035c-.012,0-.106.164-.106.6" fill="#263238"/>
            <path id="Path_36540" data-name="Path 36540" d="M245.123,252.117a.633.633,0,0,1-.632.644.641.641,0,0,1-.634-.644v-.246a.631.631,0,0,1,.634-.633.624.624,0,0,1,.632.633Zm0,2.12V258.8a.624.624,0,0,1-.632.633.631.631,0,0,1-.634-.633v-4.568a.626.626,0,0,1,.634-.644.619.619,0,0,1,.632.644" fill="#263238"/>
            <path id="Path_36541" data-name="Path 36541" d="M250.747,254.2a.625.625,0,0,1-.621.621,1.122,1.122,0,0,0-.7.222,1.779,1.779,0,0,0-.539.563,3.568,3.568,0,0,0-.479.983v2.226a.639.639,0,0,1-.645.621.625.625,0,0,1-.621-.621V254.2a.615.615,0,0,1,.621-.609.629.629,0,0,1,.645.609v.082a1.457,1.457,0,0,1,.245-.234,2.575,2.575,0,0,1,1.476-.457.608.608,0,0,1,.621.609" fill="#263238"/>
            <path id="Path_36542" data-name="Path 36542" d="M257.181,256.005v2.811a.625.625,0,0,1-.621.621.643.643,0,0,1-.632-.621v-2.811a1.2,1.2,0,0,0-2.39.035v2.776c0,.023-.012.059-.012.082v.036c-.011.023-.011.046-.035.069v.059a.682.682,0,0,1-.585.375c-.047,0-.082-.012-.118-.012a.637.637,0,0,1-.5-.609v-4.6a.62.62,0,0,1,.621-.632.594.594,0,0,1,.562.352,2.461,2.461,0,0,1,1.253-.352,2.429,2.429,0,0,1,1.839.808,2.41,2.41,0,0,1,1.839-.808,2.447,2.447,0,0,1,2.436,2.459v2.776a.625.625,0,0,1-.62.621.635.635,0,0,1-.633-.621V256.04a1.2,1.2,0,0,0-1.183-1.206,1.215,1.215,0,0,0-1.218,1.171" fill="#263238"/>
            <path id="Path_36543" data-name="Path 36543" d="M263.019,256.508a2.9,2.9,0,0,1,2.858-2.927A2.8,2.8,0,0,1,268.7,256.3v.06a.314.314,0,0,1-.012.105.565.565,0,0,1-.609.469h-3.725a1.537,1.537,0,0,0,.4.772,1.812,1.812,0,0,0,1.124.528,1.918,1.918,0,0,0,1.218-.293.663.663,0,0,1,.878-.036.535.535,0,0,1,0,.762,2.958,2.958,0,0,1-2.1.773,2.908,2.908,0,0,1-2.858-2.929m1.277-.573h3.315a1.915,1.915,0,0,0-1.734-1.242,1.635,1.635,0,0,0-1.581,1.242" fill="#263238"/>
            <path id="Path_36544" data-name="Path 36544" d="M275.873,258.8a.634.634,0,0,1-1.254.129,2.861,2.861,0,0,1-1.593.5,2.93,2.93,0,0,1,0-5.857,2.777,2.777,0,0,1,1.57.492v-2.2a.639.639,0,0,1,1.277,0V258.8Zm-2.847-3.947a1.514,1.514,0,0,0-1.1.48,1.7,1.7,0,0,0,0,2.343,1.518,1.518,0,0,0,1.1.48,1.5,1.5,0,0,0,1.1-.48,1.7,1.7,0,0,0,0-2.343,1.5,1.5,0,0,0-1.1-.48" fill="#263238"/>
            <path id="Path_36545" data-name="Path 36545" d="M180.879,236.885h-2.471a.287.287,0,0,1,0-.574h5.5a.287.287,0,0,1,0,.574h-2.472v7.344a.281.281,0,0,1-.562,0Z" fill="#263238"/>
            <path id="Path_36546" data-name="Path 36546" d="M190.207,241.032a1.827,1.827,0,0,0-3.643,0v3.233c0,.023-.012.035-.012.046s-.011.036-.023.048a.268.268,0,0,1-.176.14.038.038,0,0,1-.023.012h-.059a.32.32,0,0,1-.222-.094.331.331,0,0,1-.047-.094.251.251,0,0,1-.012-.094v-7.636a.287.287,0,0,1,.574,0v3.022a2.37,2.37,0,0,1,1.816-.844,2.289,2.289,0,0,1,2.4,2.261v3.2a.287.287,0,0,1-.574,0Z" fill="#263238"/>
            <path id="Path_36547" data-name="Path 36547" d="M198.457,239.053v5.176a.281.281,0,1,1-.562,0v-.855a2.678,2.678,0,0,1-2.155,1.137,2.874,2.874,0,0,1,0-5.74A2.67,2.67,0,0,1,197.9,239.9v-.843a.281.281,0,1,1,.562,0m-.562,2.588a2.16,2.16,0,1,0-2.155,2.307,2.242,2.242,0,0,0,2.155-2.307" fill="#263238"/>
            <path id="Path_36548" data-name="Path 36548" d="M204.879,241.114a1.768,1.768,0,0,0-1.769-1.769,1.8,1.8,0,0,0-1.78,1.769v3.162a.262.262,0,0,1-.058.129.252.252,0,0,1-.211.106h-.071a.311.311,0,0,1-.187-.152.044.044,0,0,1-.012-.036.038.038,0,0,0-.012-.023v-5.236a.278.278,0,0,1,.282-.281.275.275,0,0,1,.269.281v.551a2.328,2.328,0,0,1,4.111,1.5v3.115a.281.281,0,1,1-.562,0Z" fill="#263238"/>
            <path id="Path_36549" data-name="Path 36549" d="M207.963,236.593a.287.287,0,0,1,.574,0v5.517l3.4-3.385a.281.281,0,0,1,.4.4l-2.214,2.214,2.226,2.705a.275.275,0,0,1-.211.469.245.245,0,0,1-.223-.106l-2.2-2.659-1.171,1.172v1.311a.287.287,0,0,1-.574,0Z" fill="#263238"/>
            <path id="Path_36550" data-name="Path 36550" d="M217.561,239.04a.272.272,0,0,1,.269-.269.279.279,0,0,1,.294.269v3.116a1.756,1.756,0,0,0,1.756,1.768,1.775,1.775,0,0,0,1.78-1.768V239.04a.2.2,0,0,1,.048-.14c0-.012.011-.024.011-.036s.012-.011.023-.011a.22.22,0,0,1,.106-.071h.024c.011,0,.023-.011.034-.011h.071a.725.725,0,0,1,.141.058.283.283,0,0,1,.069.094.222.222,0,0,1,.036.117v5.013a2.7,2.7,0,0,1-2.73,2.694,2.852,2.852,0,0,1-1.182-.27.289.289,0,0,1-.117-.374.3.3,0,0,1,.363-.14,2.125,2.125,0,0,0,.936.222,2.154,2.154,0,0,0,2.167-2.132v-.375a2.372,2.372,0,0,1-1.78.82,2.344,2.344,0,0,1-2.319-2.342Z" fill="#263238"/>
            <path id="Path_36551" data-name="Path 36551" d="M227.029,238.771a2.874,2.874,0,1,1-2.717,2.87,2.807,2.807,0,0,1,2.717-2.87m0,5.177a2.319,2.319,0,1,0-2.155-2.307,2.245,2.245,0,0,0,2.155,2.307" fill="#263238"/>
            <path id="Path_36552" data-name="Path 36552" d="M231.6,239.04a.281.281,0,0,1,.562,0v3.128a1.769,1.769,0,1,0,3.537,0V239.04a.284.284,0,0,1,.281-.281.281.281,0,0,1,.293.281v3.128a2.337,2.337,0,1,1-4.673,0Z" fill="#263238"/>
            <path id="Path_36553" data-name="Path 36553" d="M238.9,236.593a.287.287,0,0,1,.574,0v5.879a.287.287,0,1,1-.574,0Zm0,7.355a.287.287,0,0,1,.574,0v.281a.287.287,0,0,1-.574,0Z" fill="#263238"/>
            <path id="Path_36554" data-name="Path 36554" d="M206.906,208.894l-8.45-8.553,2.839-2.8,4.936,5,10.255-16.076,3.365,2.145Z" fill="#5f2d79"/>
            <path id="Path_36555" data-name="Path 36555" d="M209.153,219.765a22.09,22.09,0,1,1,22.089-22.09,22.114,22.114,0,0,1-22.089,22.09m0-41.179a19.09,19.09,0,1,0,19.089,19.089,19.111,19.111,0,0,0-19.089-19.089" fill="#5f2d79"/>
            <rect id="Rectangle_27759" data-name="Rectangle 27759" width="6.561" height="1" transform="translate(174.828 197.175)" fill="#5f2d79"/>
            <rect id="Rectangle_27760" data-name="Rectangle 27760" width="1" height="6.561" transform="translate(178.408 183.971) rotate(-44.994)" fill="#5f2d79"/>
            <rect id="Rectangle_27761" data-name="Rectangle 27761" width="6.561" height="1" transform="matrix(0.707, -0.707, 0.707, 0.707, 178.408, 211.16)" fill="#5f2d79"/>
            <rect id="Rectangle_27762" data-name="Rectangle 27762" width="6.561" height="1" transform="translate(236.917 197.175)" fill="#5f2d79"/>
            <rect id="Rectangle_27763" data-name="Rectangle 27763" width="6.561" height="1" transform="matrix(0.707, -0.707, 0.707, 0.707, 234.552, 187.904)" fill="#5f2d79"/>
            <rect id="Rectangle_27764" data-name="Rectangle 27764" width="1" height="6.561" transform="matrix(0.707, -0.707, 0.707, 0.707, 234.552, 207.228)" fill="#5f2d79"/>
            <rect id="Rectangle_27765" data-name="Rectangle 27765" width="59.668" height="20.049" transform="translate(179.319 299.02)" fill="#0e1740"/>
            <path id="Path_36556" data-name="Path 36556" d="M193.5,312.617v-6.91a.635.635,0,0,1,.644-.645h1.382a4.1,4.1,0,0,1,0,8.2h-1.382a.642.642,0,0,1-.644-.644m1.3-.656h.726a2.8,2.8,0,0,0,0-5.6H194.8Z" fill="#fff"/>
            <path id="Path_36557" data-name="Path 36557" d="M208.219,306.081a4.3,4.3,0,0,1,0,5.926,3.837,3.837,0,0,1-2.8,1.253,3.957,3.957,0,0,1-2.87-1.253,4.367,4.367,0,0,1,0-5.926,3.907,3.907,0,0,1,2.87-1.253,3.789,3.789,0,0,1,2.8,1.253m-.152,2.963a3.027,3.027,0,0,0-.8-2.049,2.522,2.522,0,0,0-1.85-.832,2.548,2.548,0,0,0-1.9.832,2.98,2.98,0,0,0-.8,2.049,2.932,2.932,0,0,0,.8,2.038,2.5,2.5,0,0,0,3.748,0,2.979,2.979,0,0,0,.8-2.038" fill="#fff"/>
            <path id="Path_36558" data-name="Path 36558" d="M212.7,312.617a.639.639,0,1,1-1.277,0V305.8a.636.636,0,0,1,.258-.539.646.646,0,0,1,.89.14l3.784,5.236v-4.826a.637.637,0,0,1,.632-.632.648.648,0,0,1,.645.632v6.806a.65.65,0,0,1-.645.644.634.634,0,0,1-.48-.235.3.3,0,0,1-.059-.069l-3.748-5.2Z" fill="#fff"/>
            <path id="Path_36559" data-name="Path 36559" d="M219.685,312.617v-6.91a.635.635,0,0,1,.645-.645h3.83a.65.65,0,0,1,.644.645.66.66,0,0,1-.644.655h-3.175v2.144h2.729a.65.65,0,0,1,0,1.3h-2.729v2.155h3.175a.65.65,0,0,1,0,1.3h-3.795c-.024,0-.024-.012-.024-.012l-.011.012a.643.643,0,0,1-.645-.644" fill="#fff"/>
            <path id="Path_36560" data-name="Path 36560" d="M154,271.5l-1.524-2.082a.168.168,0,0,1,.033-.221.149.149,0,0,1,.22.027l1.42,1.952,1.427-1.952a.149.149,0,0,1,.22-.027.156.156,0,0,1,.033.221l-1.518,2.068v2.037a.154.154,0,0,1-.156.156.158.158,0,0,1-.155-.156Z" fill="#c7c7c7"/>
            <path id="Path_36561" data-name="Path 36561" d="M157.241,270.5a1.591,1.591,0,1,1-1.505,1.589,1.554,1.554,0,0,1,1.505-1.589m0,2.866a1.284,1.284,0,1,0-1.193-1.277,1.243,1.243,0,0,0,1.193,1.277" fill="#c7c7c7"/>
            <path id="Path_36562" data-name="Path 36562" d="M159.769,270.652a.156.156,0,1,1,.312,0v1.731a.98.98,0,1,0,1.959,0v-1.731a.157.157,0,0,1,.155-.156.155.155,0,0,1,.162.156v1.731a1.294,1.294,0,1,1-2.588,0Z" fill="#c7c7c7"/>
            <path id="Path_36563" data-name="Path 36563" d="M166.818,273.654a.113.113,0,0,1-.064-.071l-1.194-2.84a.159.159,0,0,1,.078-.2.153.153,0,0,1,.2.084l1.057,2.5.733-1.746a.17.17,0,0,1,.149-.1.173.173,0,0,1,.156.1l.733,1.746,1.05-2.5a.159.159,0,0,1,.2-.084.156.156,0,0,1,.084.2l-1.187,2.827a.186.186,0,0,1-.059.078.129.129,0,0,1-.078.032h-.032a.147.147,0,0,1-.123-.1l-.007-.006-.739-1.758-.732,1.751a.024.024,0,0,0-.007.013.154.154,0,0,1-.136.1.206.206,0,0,1-.059-.012.036.036,0,0,1-.026-.014" fill="#c7c7c7"/>
            <path id="Path_36564" data-name="Path 36564" d="M170.942,269.62a.159.159,0,0,1,.318,0v.149a.159.159,0,1,1-.318,0Zm0,1.037a.159.159,0,0,1,.318,0v2.867a.159.159,0,0,1-.318,0Z" fill="#c7c7c7"/>
            <path id="Path_36565" data-name="Path 36565" d="M172.667,269.3a.159.159,0,0,1,.317,0v4.229a.159.159,0,0,1-.317,0Z" fill="#c7c7c7"/>
            <path id="Path_36566" data-name="Path 36566" d="M174.282,269.3a.159.159,0,0,1,.317,0v4.229a.159.159,0,0,1-.317,0Z" fill="#c7c7c7"/>
            <path id="Path_36567" data-name="Path 36567" d="M177.8,272.162V269.3a.159.159,0,0,1,.317,0v1.829a1.515,1.515,0,0,1,1.22-.623,1.59,1.59,0,0,1,0,3.178,1.512,1.512,0,0,1-1.22-.616v.461a.159.159,0,0,1-.317,0Zm.317-.064a1.252,1.252,0,1,0,0-.052Z" fill="#c7c7c7"/>
            <path id="Path_36568" data-name="Path 36568" d="M181.849,272.1a1.538,1.538,0,0,1,3.074-.117v.026a.147.147,0,0,1-.156.143h-2.606a1.249,1.249,0,0,0,1.231,1.218,1.194,1.194,0,0,0,1.025-.577.15.15,0,0,1,.207-.051.163.163,0,0,1,.052.22,1.512,1.512,0,0,1-1.284.72,1.564,1.564,0,0,1-1.543-1.582m.331-.253h2.405a1.225,1.225,0,0,0-1.193-1.031,1.238,1.238,0,0,0-1.212,1.031" fill="#c7c7c7"/>
            <path id="Path_36569" data-name="Path 36569" d="M187.97,270.664a.154.154,0,0,1,.162-.155.152.152,0,0,1,.15.155v.7a.433.433,0,0,1,.044-.077,1.533,1.533,0,0,1,1.272-.778.153.153,0,0,1,.155.155.157.157,0,0,1-.155.155,1.148,1.148,0,0,0-.921.52,2.839,2.839,0,0,0-.383.739.1.1,0,0,0-.012.052v1.394a.153.153,0,0,1-.15.156.155.155,0,0,1-.162-.156Z" fill="#c7c7c7"/>
            <path id="Path_36570" data-name="Path 36570" d="M190.265,272.1a1.538,1.538,0,0,1,3.074-.117v.026a.147.147,0,0,1-.155.143h-2.607a1.249,1.249,0,0,0,1.232,1.218,1.191,1.191,0,0,0,1.024-.577.151.151,0,0,1,.208-.051.164.164,0,0,1,.052.22,1.513,1.513,0,0,1-1.284.72,1.564,1.564,0,0,1-1.544-1.582m.331-.253H193a1.226,1.226,0,0,0-1.193-1.031,1.24,1.24,0,0,0-1.213,1.031" fill="#c7c7c7"/>
            <path id="Path_36571" data-name="Path 36571" d="M194.214,272.084a1.6,1.6,0,0,1,1.635-1.582,1.637,1.637,0,0,1,1.011.35.147.147,0,0,1,.02.214.158.158,0,0,1-.214.026,1.3,1.3,0,1,0-.817,2.276,1.339,1.339,0,0,0,.817-.278.161.161,0,0,1,.214.025.155.155,0,0,1-.033.228,1.641,1.641,0,0,1-1,.337,1.6,1.6,0,0,1-1.635-1.6" fill="#c7c7c7"/>
            <path id="Path_36572" data-name="Path 36572" d="M197.82,272.1a1.538,1.538,0,0,1,3.074-.117v.026a.147.147,0,0,1-.155.143h-2.608a1.251,1.251,0,0,0,1.233,1.218,1.192,1.192,0,0,0,1.024-.577.151.151,0,0,1,.208-.051.164.164,0,0,1,.052.22,1.513,1.513,0,0,1-1.284.72,1.564,1.564,0,0,1-1.544-1.582m.331-.253h2.406a1.226,1.226,0,0,0-1.193-1.031,1.24,1.24,0,0,0-1.213,1.031" fill="#c7c7c7"/>
            <path id="Path_36573" data-name="Path 36573" d="M202,269.62a.158.158,0,0,1,.316,0v.149a.158.158,0,1,1-.316,0Zm0,1.037a.158.158,0,0,1,.316,0v2.867a.158.158,0,0,1-.316,0Z" fill="#c7c7c7"/>
            <path id="Path_36574" data-name="Path 36574" d="M204.837,273.654a.177.177,0,0,1-.052-.071l-1.194-2.84a.159.159,0,0,1,.078-.2.152.152,0,0,1,.2.084l1.058,2.5,1.056-2.5a.155.155,0,0,1,.2-.084.152.152,0,0,1,.077.2l-1.187,2.814a.22.22,0,0,1-.039.078.135.135,0,0,1-.1.045.149.149,0,0,1-.052-.006c-.007,0-.007,0-.014-.006s-.019-.007-.031-.014" fill="#c7c7c7"/>
            <path id="Path_36575" data-name="Path 36575" d="M207.6,269.62a.159.159,0,0,1,.318,0v.149a.159.159,0,1,1-.318,0Zm0,1.037a.159.159,0,0,1,.318,0v2.867a.159.159,0,0,1-.318,0Z" fill="#c7c7c7"/>
            <path id="Path_36576" data-name="Path 36576" d="M211.684,271.8a.979.979,0,0,0-.98-.979,1,1,0,0,0-.985.979v1.751a.149.149,0,0,1-.032.071.139.139,0,0,1-.117.059h-.039a.172.172,0,0,1-.1-.084.025.025,0,0,1-.007-.02.026.026,0,0,0-.006-.013v-2.9a.153.153,0,0,1,.156-.155.151.151,0,0,1,.149.155v.3a1.29,1.29,0,0,1,2.277.83v1.726a.156.156,0,0,1-.312,0Z" fill="#c7c7c7"/>
            <path id="Path_36577" data-name="Path 36577" d="M216.165,273.427a1.493,1.493,0,0,1-1.5,1.491,1.639,1.639,0,0,1-.662-.149.168.168,0,0,1-.065-.208.145.145,0,0,1,.208-.071,1.147,1.147,0,0,0,.519.117,1.177,1.177,0,0,0,1.186-1.18v-.389a1.44,1.44,0,0,1-1.186.622,1.582,1.582,0,0,1,0-3.158,1.453,1.453,0,0,1,1.186.623v-.468a.159.159,0,0,1,.162-.155.157.157,0,0,1,.15.155Zm-.312-1.349a1.187,1.187,0,1,0-1.186,1.277,1.222,1.222,0,0,0,1.186-1.277" fill="#c7c7c7"/>
            <path id="Path_36578" data-name="Path 36578" d="M222.28,270.657v2.868a.156.156,0,0,1-.312,0v-.474a1.483,1.483,0,0,1-1.193.629,1.591,1.591,0,0,1,0-3.178,1.475,1.475,0,0,1,1.193.623v-.468a.156.156,0,0,1,.312,0m-.312,1.434a1.2,1.2,0,1,0-1.193,1.277,1.241,1.241,0,0,0,1.193-1.277" fill="#c7c7c7"/>
            <path id="Path_36579" data-name="Path 36579" d="M225.346,272.084a1.6,1.6,0,0,1,1.634-1.582,1.64,1.64,0,0,1,1.012.35.146.146,0,0,1,.019.214.158.158,0,0,1-.214.026,1.295,1.295,0,1,0-.817,2.276,1.334,1.334,0,0,0,.817-.278.161.161,0,0,1,.214.025.154.154,0,0,1-.032.228,1.644,1.644,0,0,1-1,.337,1.6,1.6,0,0,1-1.634-1.6" fill="#c7c7c7"/>
            <path id="Path_36580" data-name="Path 36580" d="M230.534,270.5a1.591,1.591,0,1,1-1.5,1.589,1.554,1.554,0,0,1,1.5-1.589m0,2.866a1.284,1.284,0,1,0-1.193-1.277,1.243,1.243,0,0,0,1.193,1.277" fill="#c7c7c7"/>
            <path id="Path_36581" data-name="Path 36581" d="M235.5,271.8a.978.978,0,0,0-.98-.979,1,1,0,0,0-.985.979v1.751a.15.15,0,0,1-.033.071.137.137,0,0,1-.116.059h-.039a.172.172,0,0,1-.1-.084.025.025,0,0,1-.007-.02.026.026,0,0,0-.006-.013v-2.9a.153.153,0,1,1,.3,0v.3a1.289,1.289,0,0,1,2.276.83v1.726a.155.155,0,0,1-.311,0Z" fill="#c7c7c7"/>
            <path id="Path_36582" data-name="Path 36582" d="M238.607,269.309a.157.157,0,0,1-.155.156.492.492,0,0,0-.4.123.782.782,0,0,0-.129.526v.337h.447a.159.159,0,1,1,0,.317h-.447v2.763a.159.159,0,0,1-.318,0v-2.763h-.422a.159.159,0,0,1-.155-.162.157.157,0,0,1,.155-.155h.422v-.337a1.127,1.127,0,0,1,.207-.74.843.843,0,0,1,.643-.227.159.159,0,0,1,.155.162" fill="#c7c7c7"/>
            <path id="Path_36583" data-name="Path 36583" d="M239.56,269.62a.159.159,0,0,1,.318,0v.149a.159.159,0,1,1-.318,0Zm0,1.037a.159.159,0,0,1,.318,0v2.867a.159.159,0,0,1-.318,0Z" fill="#c7c7c7"/>
            <path id="Path_36584" data-name="Path 36584" d="M241.376,270.664a.154.154,0,0,1,.161-.155.151.151,0,0,1,.149.155v.7a.448.448,0,0,1,.046-.077,1.53,1.53,0,0,1,1.271-.778.153.153,0,0,1,.155.155.157.157,0,0,1-.155.155,1.15,1.15,0,0,0-.922.52,2.828,2.828,0,0,0-.382.739.1.1,0,0,0-.013.052v1.394a.152.152,0,0,1-.149.156.155.155,0,0,1-.161-.156Z" fill="#c7c7c7"/>
            <path id="Path_36585" data-name="Path 36585" d="M248.768,271.8a1,1,0,0,0-.986-.985.988.988,0,0,0-.979.985v1.751a.02.02,0,0,1-.007.013v.013a.16.16,0,0,1-.078.084.17.17,0,0,1-.077.02h-.033a.024.024,0,0,1-.013-.007c-.013,0-.026-.013-.039-.019a.031.031,0,0,1-.019-.013l-.02-.02c-.006-.006-.006-.012-.013-.012s0-.007-.007-.013a.026.026,0,0,0,0-.014.023.023,0,0,0-.007-.019V271.8a.979.979,0,1,0-1.958,0v1.732a.142.142,0,0,1-.071.123.083.083,0,0,1-.04.019c-.006.007-.012.007-.026.007h-.039a.171.171,0,0,1-.129-.117v-2.906a.153.153,0,0,1,.3,0v.306a1.266,1.266,0,0,1,.978-.454,1.291,1.291,0,0,1,1.136.674,1.313,1.313,0,0,1,1.141-.674,1.29,1.29,0,0,1,1.291,1.29v1.732a.153.153,0,0,1-.157.149.15.15,0,0,1-.148-.149Z" fill="#c7c7c7"/>
            <path id="Path_36586" data-name="Path 36586" d="M253.055,270.657v2.868a.156.156,0,0,1-.312,0v-.474a1.483,1.483,0,0,1-1.193.629,1.591,1.591,0,0,1,0-3.178,1.475,1.475,0,0,1,1.193.623v-.468a.156.156,0,0,1,.312,0m-.312,1.434a1.2,1.2,0,1,0-1.193,1.277,1.241,1.241,0,0,0,1.193-1.277" fill="#c7c7c7"/>
            <path id="Path_36587" data-name="Path 36587" d="M255.511,270.657a.168.168,0,0,1-.155.156h-.409v2.316a.249.249,0,0,0,.233.233.179.179,0,0,1,.162.162.174.174,0,0,1-.162.156.541.541,0,0,1-.558-.551v-2.316h-.395c-.155,0-.155-.078-.155-.156s0-.155.155-.155h.395v-1.181a.168.168,0,0,1,.157-.155.175.175,0,0,1,.168.155V270.5h.409a.167.167,0,0,1,.155.155" fill="#c7c7c7"/>
            <path id="Path_36588" data-name="Path 36588" d="M257,269.62a.156.156,0,0,1,.155-.155.159.159,0,0,1,.162.155v.149a.165.165,0,0,1-.162.168.163.163,0,0,1-.155-.168Zm0,1.037a.153.153,0,0,1,.155-.155.155.155,0,0,1,.162.155v2.867a.16.16,0,0,1-.162.156.157.157,0,0,1-.155-.156Z" fill="#c7c7c7"/>
            <path id="Path_36589" data-name="Path 36589" d="M260.173,270.5a1.591,1.591,0,1,1-1.5,1.589,1.554,1.554,0,0,1,1.5-1.589m0,2.866a1.284,1.284,0,1,0-1.192-1.277,1.243,1.243,0,0,0,1.192,1.277" fill="#c7c7c7"/>
            <path id="Path_36590" data-name="Path 36590" d="M265.141,271.8a.979.979,0,0,0-.979-.979,1,1,0,0,0-.986.979v1.751a.15.15,0,0,1-.033.071.137.137,0,0,1-.116.059h-.039a.172.172,0,0,1-.1-.084.025.025,0,0,1-.007-.02.026.026,0,0,0-.006-.013v-2.9a.153.153,0,1,1,.3,0v.3a1.289,1.289,0,0,1,2.276.83v1.726a.156.156,0,0,1-.311,0Z" fill="#c7c7c7"/>
            <path id="Path_36591" data-name="Path 36591" d="M171.324,279.879a1.538,1.538,0,0,1,3.074-.117v.026a.147.147,0,0,1-.155.143h-2.608a1.251,1.251,0,0,0,1.233,1.218,1.192,1.192,0,0,0,1.024-.577.151.151,0,0,1,.208-.051.164.164,0,0,1,.052.22,1.513,1.513,0,0,1-1.284.72,1.564,1.564,0,0,1-1.544-1.582m.331-.253h2.406a1.226,1.226,0,0,0-1.193-1.031,1.24,1.24,0,0,0-1.213,1.031" fill="#c7c7c7"/>
            <path id="Path_36592" data-name="Path 36592" d="M180.046,279.58a.983.983,0,1,0-1.965,0v1.751a.02.02,0,0,1-.007.013v.013a.157.157,0,0,1-.078.084.17.17,0,0,1-.077.02h-.032a.024.024,0,0,1-.014-.007c-.013,0-.025-.013-.039-.019a.027.027,0,0,1-.018-.013l-.02-.02c-.007-.006-.007-.012-.014-.012s0-.007-.006-.013a.024.024,0,0,0-.006-.014.023.023,0,0,0-.007-.019V279.58a.979.979,0,1,0-1.958,0v1.731a.143.143,0,0,1-.071.124.083.083,0,0,1-.04.019c-.006.007-.012.007-.026.007h-.038a.171.171,0,0,1-.13-.117v-2.906a.15.15,0,0,1,.15-.148.148.148,0,0,1,.155.148v.306a1.268,1.268,0,0,1,.979-.454,1.291,1.291,0,0,1,1.135.674,1.314,1.314,0,0,1,1.142-.674,1.289,1.289,0,0,1,1.29,1.29v1.731a.152.152,0,0,1-.156.15.15.15,0,0,1-.149-.15Z" fill="#c7c7c7"/>
            <path id="Path_36593" data-name="Path 36593" d="M184.332,278.438v2.868a.156.156,0,0,1-.311,0v-.474a1.485,1.485,0,0,1-1.193.629,1.591,1.591,0,0,1,0-3.178,1.476,1.476,0,0,1,1.193.623v-.468a.156.156,0,0,1,.311,0m-.311,1.434a1.2,1.2,0,1,0-1.193,1.277,1.241,1.241,0,0,0,1.193-1.277" fill="#c7c7c7"/>
            <path id="Path_36594" data-name="Path 36594" d="M185.687,277.4a.159.159,0,0,1,.317,0v.149a.159.159,0,1,1-.317,0Zm0,1.037a.153.153,0,0,1,.155-.155.155.155,0,0,1,.162.155v2.867a.159.159,0,0,1-.317,0Z" fill="#c7c7c7"/>
            <path id="Path_36595" data-name="Path 36595" d="M187.412,277.077a.159.159,0,0,1,.318,0v4.229a.159.159,0,0,1-.318,0Z" fill="#c7c7c7"/>
            <path id="Path_36596" data-name="Path 36596" d="M191.99,281.435a.113.113,0,0,1-.064-.071l-1.194-2.84a.159.159,0,0,1,.078-.2.153.153,0,0,1,.2.084l1.057,2.5.733-1.746a.17.17,0,0,1,.149-.1.173.173,0,0,1,.156.1l.733,1.746,1.05-2.5a.159.159,0,0,1,.2-.084.156.156,0,0,1,.084.2l-1.187,2.827a.186.186,0,0,1-.059.078.128.128,0,0,1-.078.032h-.032a.147.147,0,0,1-.123-.1l-.007-.006-.739-1.758-.732,1.751a.024.024,0,0,0-.007.013.154.154,0,0,1-.136.1.207.207,0,0,1-.059-.012.036.036,0,0,1-.026-.014" fill="#c7c7c7"/>
            <path id="Path_36597" data-name="Path 36597" d="M196.114,277.4a.159.159,0,0,1,.318,0v.149a.159.159,0,1,1-.318,0Zm0,1.037a.159.159,0,0,1,.318,0v2.867a.159.159,0,0,1-.318,0Z" fill="#c7c7c7"/>
            <path id="Path_36598" data-name="Path 36598" d="M199.039,278.439a.168.168,0,0,1-.156.156h-.408v2.316a.249.249,0,0,0,.233.233.179.179,0,0,1,.162.162.173.173,0,0,1-.162.155.541.541,0,0,1-.558-.55V278.6h-.395c-.155,0-.155-.078-.155-.156s0-.155.155-.155h.395V277.1a.168.168,0,0,1,.156-.155.175.175,0,0,1,.169.155v1.181h.408a.168.168,0,0,1,.156.155" fill="#c7c7c7"/>
            <path id="Path_36599" data-name="Path 36599" d="M202.728,279.535a1.011,1.011,0,0,0-2.017,0v1.79a.152.152,0,0,1-.005.025c-.007.013-.007.02-.014.027a.149.149,0,0,1-.1.077.024.024,0,0,1-.013.007h-.033a.179.179,0,0,1-.123-.052.252.252,0,0,1-.026-.052.151.151,0,0,1-.006-.052v-4.228a.159.159,0,0,1,.317,0v1.673a1.317,1.317,0,0,1,1.006-.467,1.267,1.267,0,0,1,1.329,1.252v1.77a.159.159,0,0,1-.318,0Z" fill="#c7c7c7"/>
            <path id="Path_36600" data-name="Path 36600" d="M207.669,278.284a1.591,1.591,0,1,1-1.505,1.589,1.554,1.554,0,0,1,1.505-1.589m0,2.866a1.284,1.284,0,1,0-1.193-1.277,1.243,1.243,0,0,0,1.193,1.277" fill="#c7c7c7"/>
            <path id="Path_36601" data-name="Path 36601" d="M210.237,278.446a.154.154,0,0,1,.162-.155.152.152,0,0,1,.15.155v.7a.44.44,0,0,1,.045-.077,1.532,1.532,0,0,1,1.271-.778.153.153,0,0,1,.155.155.157.157,0,0,1-.155.155,1.149,1.149,0,0,0-.921.52,2.871,2.871,0,0,0-.383.739.1.1,0,0,0-.012.052v1.394a.153.153,0,0,1-.15.156.155.155,0,0,1-.162-.156Z" fill="#c7c7c7"/>
            <path id="Path_36602" data-name="Path 36602" d="M215.463,280.845a1.51,1.51,0,0,1-1.219.616,1.589,1.589,0,0,1,0-3.177,1.513,1.513,0,0,1,1.219.623v-1.83a.159.159,0,0,1,.318,0v4.229a.159.159,0,0,1-.318,0Zm0-.914v-.1a1.266,1.266,0,1,0,0,.1" fill="#c7c7c7"/>
            <path id="Path_36603" data-name="Path 36603" d="M216.878,279.879a1.538,1.538,0,0,1,3.074-.117v.026a.147.147,0,0,1-.156.143h-2.607a1.25,1.25,0,0,0,1.232,1.218,1.2,1.2,0,0,0,1.025-.577.15.15,0,0,1,.207-.051.163.163,0,0,1,.052.22,1.512,1.512,0,0,1-1.284.72,1.563,1.563,0,0,1-1.543-1.582m.331-.253h2.4a1.225,1.225,0,0,0-1.193-1.031,1.238,1.238,0,0,0-1.212,1.031" fill="#c7c7c7"/>
            <path id="Path_36604" data-name="Path 36604" d="M220.917,278.446a.154.154,0,0,1,.162-.155.152.152,0,0,1,.15.155v.7a.432.432,0,0,1,.044-.077,1.533,1.533,0,0,1,1.272-.778.153.153,0,0,1,.155.155.157.157,0,0,1-.155.155,1.148,1.148,0,0,0-.921.52,2.84,2.84,0,0,0-.383.739.1.1,0,0,0-.012.052v1.394a.153.153,0,0,1-.15.156.155.155,0,0,1-.162-.156Z" fill="#c7c7c7"/>
            <path id="Path_36605" data-name="Path 36605" d="M228.251,280.845a1.512,1.512,0,0,1-1.22.616,1.589,1.589,0,0,1,0-3.177,1.515,1.515,0,0,1,1.22.623v-1.83a.159.159,0,0,1,.317,0v4.229a.159.159,0,0,1-.317,0Zm0-.914v-.1a1.266,1.266,0,1,0,0,.1" fill="#c7c7c7"/>
            <path id="Path_36606" data-name="Path 36606" d="M229.665,279.879a1.538,1.538,0,0,1,3.074-.117v.026a.147.147,0,0,1-.156.143h-2.607a1.251,1.251,0,0,0,1.233,1.218,1.193,1.193,0,0,0,1.024-.577.15.15,0,0,1,.207-.051.163.163,0,0,1,.052.22,1.51,1.51,0,0,1-1.283.72,1.564,1.564,0,0,1-1.544-1.582m.331-.253H232.4a1.227,1.227,0,0,0-1.193-1.031A1.239,1.239,0,0,0,230,279.626" fill="#c7c7c7"/>
            <path id="Path_36607" data-name="Path 36607" d="M234.69,278.439a.168.168,0,0,1-.155.156h-.409v2.316a.249.249,0,0,0,.233.233.179.179,0,0,1,.162.162.173.173,0,0,1-.162.155.541.541,0,0,1-.558-.55V278.6h-.395c-.155,0-.155-.078-.155-.156s0-.155.155-.155h.395V277.1a.169.169,0,0,1,.157-.155.175.175,0,0,1,.168.155v1.181h.409a.168.168,0,0,1,.155.155" fill="#c7c7c7"/>
            <path id="Path_36608" data-name="Path 36608" d="M238.646,278.438v2.868a.155.155,0,0,1-.311,0v-.474a1.484,1.484,0,0,1-1.194.629,1.591,1.591,0,0,1,0-3.178,1.475,1.475,0,0,1,1.194.623v-.468a.155.155,0,0,1,.311,0m-.311,1.434a1.2,1.2,0,1,0-1.194,1.277,1.242,1.242,0,0,0,1.194-1.277" fill="#c7c7c7"/>
            <path id="Path_36609" data-name="Path 36609" d="M240,277.4a.159.159,0,0,1,.317,0v.149a.159.159,0,1,1-.317,0Zm0,1.037a.153.153,0,0,1,.155-.155.155.155,0,0,1,.162.155v2.867a.159.159,0,0,1-.317,0Z" fill="#c7c7c7"/>
            <path id="Path_36610" data-name="Path 36610" d="M241.725,277.077a.157.157,0,0,1,.155-.155.159.159,0,0,1,.162.155v4.229a.159.159,0,0,1-.317,0Z" fill="#c7c7c7"/>
            <path id="Path_36611" data-name="Path 36611" d="M243.075,280.8a.155.155,0,0,1,.221-.02,1.688,1.688,0,0,0,.972.37.958.958,0,0,0,.6-.2.479.479,0,0,0,.24-.388.5.5,0,0,0-.227-.39,1.563,1.563,0,0,0-.674-.233l-.013-.007a1.817,1.817,0,0,1-.72-.246.664.664,0,0,1-.343-.571.789.789,0,0,1,.343-.623,1.362,1.362,0,0,1,.778-.214,1.709,1.709,0,0,1,.947.344.165.165,0,0,1,.045.221.155.155,0,0,1-.214.045,1.386,1.386,0,0,0-.778-.318.956.956,0,0,0-.6.182.476.476,0,0,0-.2.363.383.383,0,0,0,.182.318,1.59,1.59,0,0,0,.648.22h.013a2.184,2.184,0,0,1,.771.26.792.792,0,0,1,.358.649.809.809,0,0,1-.364.641,1.3,1.3,0,0,1-.791.253,1.924,1.924,0,0,1-1.173-.454.144.144,0,0,1-.02-.207" fill="#c7c7c7"/>
            <path id="Path_36612" data-name="Path 36612" d="M246.738,280.813a.324.324,0,1,1-.324.324.321.321,0,0,1,.324-.324" fill="#c7c7c7"/>
          </g>
        </g>
        <path id="Path_36613" data-name="Path 36613" d="M99.545,349.735l2.373,14.231,16.076,86.819h2.592L108.9,363.966l-1.728-14.231Z" fill="#dbdbdb"/>
        <path id="Path_36614" data-name="Path 36614" d="M107.168,349.735H99.545l2.373,14.231H108.9Z" fill="#a6a6a6"/>
        <path id="Path_36615" data-name="Path 36615" d="M49.06,450.785h2.591l16.077-86.819L70.1,349.735H62.478L60.75,363.966Z" fill="#dbdbdb"/>
        <path id="Path_36616" data-name="Path 36616" d="M62.478,349.735l-1.727,14.231h6.977L70.1,349.735Z" fill="#a6a6a6"/>
        <path id="Path_36617" data-name="Path 36617" d="M14.258,349.735,12.53,363.967.84,450.785H3.431l16.077-86.818,2.373-14.232Z" fill="#dbdbdb"/>
        <path id="Path_36618" data-name="Path 36618" d="M12.53,363.966h6.977l2.374-14.231H14.258Z" fill="#a6a6a6"/>
        <path id="Path_36619" data-name="Path 36619" d="M4.95,356.422h117.8V344.009h-44.1L63.832,279.363H9.441Z" fill="#dbdbdb"/>
        <path id="Path_36620" data-name="Path 36620" d="M4.95,356.422h6.422l4.185-77.059H9.441Z" fill="#a6a6a6"/>
        <g id="Group_15289" data-name="Group 15289">
          <g id="Group_15288" data-name="Group 15288" clip-path="url(#clip-path-2)">
            <path id="Path_36621" data-name="Path 36621" d="M134.343,459.856c-2.219.756-67.529.775-69.951-.76-.29-.172-.272-8.118-.464-14.164-.294-9.24,12.078-50.389,12.078-50.389l40.525,1.974-11.3,41.473s9.333,4.135,17.036,7.754c.01.009.02.009.021.019a92.055,92.055,0,0,1,9.817,5c2.47,1.96,4.455,8.345,2.236,9.092" fill="#d3766a"/>
            <path id="Path_36622" data-name="Path 36622" d="M134.343,459.856c-2.219.756-67.529.775-69.951-.76-.29-.172-.423-6.07-.464-14.164,16.187,3.347,59.281,8.508,60.491,5.1.478-1.355-.57-2.879-2.129-4.274a92.055,92.055,0,0,1,9.817,5c2.47,1.96,4.455,8.345,2.236,9.092" fill="#263238"/>
            <path id="Path_36623" data-name="Path 36623" d="M37.586,330.181c7.992,7.954,42.26,24.352,44.867,30.106,2.3,5.073-13.567,59.668-13.567,59.668l39.218,7.5s23.544-63.868,17.552-83.588c-5.561-18.3-68.231-54.105-68.231-54.105H32.268s-10.43,24.769,5.318,40.423" fill="#d3766a"/>
            <g id="Group_15284" data-name="Group 15284" opacity="0.1">
              <g id="Group_15283" data-name="Group 15283">
                <g id="Group_15282" data-name="Group 15282" clip-path="url(#clip-path-7)">
                  <path id="Path_36624" data-name="Path 36624" d="M117.232,332.012c-14.435,5.174-34.248,13.615-48.354,18.113-11.341-6.875-26.339-15.019-31.287-19.947-15.756-15.653-5.327-40.425-5.327-40.425h25.16s41.286,23.583,59.808,42.259"/>
                </g>
              </g>
            </g>
            <path id="Path_36625" data-name="Path 36625" d="M212.929,448.452c-2.3.452-67.022-8.3-69.216-10.143-.264-.21.4-6.073,1.442-14.1l-11.471-48.89,42.628,5.232,13.41,42a102.851,102.851,0,0,0,13.137,10.3c.009.011.018.012.017.021a92.259,92.259,0,0,1,9.058,6.274c2.184,2.274,3.294,8.868.995,9.31" fill="#d3766a"/>
            <path id="Path_36626" data-name="Path 36626" d="M212.929,448.452c-2.3.452-67.022-8.3-69.216-10.143-.264-.21.4-6.073,1.442-14.1,15.591,5.491,57.6,16.389,59.258,13.18.656-1.278-.179-2.93-1.537-4.522a92.259,92.259,0,0,1,9.058,6.274c2.184,2.274,3.294,8.868.995,9.31" fill="#263238"/>
            <path id="Path_36627" data-name="Path 36627" d="M185.237,408.5l-42.052,7.358L125.8,362.7c.52-18.145-2.147-24.72-12.353-27.881-17.372-5.381-59.831,14.494-79.053,1.157-15.611-10.832-3.158-46.234-3.158-46.234H76.372s5.446,6.64,6.454,10.537c0,0,55.905-4.308,68.412,11.554,16.759,21.255,34,96.666,34,96.666" fill="#d3766a"/>
            <path id="Path_36628" data-name="Path 36628" d="M93.056,335.109a66.055,66.055,0,0,1,13.475-1.387,32.6,32.6,0,0,1,6.8.675,17.07,17.07,0,0,1,3.307,1.055,19.636,19.636,0,0,1,3.027,1.682,12.717,12.717,0,0,1,2.573,2.376,13.42,13.42,0,0,1,1.805,2.992,22.96,22.96,0,0,1,1.675,6.651,73.043,73.043,0,0,1,.08,13.551c-.049-2.255-.073-4.508-.213-6.753a61.14,61.14,0,0,0-.63-6.693,24.908,24.908,0,0,0-1.742-6.383,11.643,11.643,0,0,0-4.119-4.923,18.627,18.627,0,0,0-2.854-1.633,15.963,15.963,0,0,0-3.109-1.036,37.911,37.911,0,0,0-6.619-.8c-2.235-.1-4.482-.054-6.726.066-2.247.1-4.489.3-6.73.556" fill="#263238"/>
            <path id="Path_36629" data-name="Path 36629" d="M31.233,289.747s-12.279,32.063-.008,43.872S57.938,343.386,92.336,336c0,0,17.591-22.257,28.039-26.8a61.22,61.22,0,0,1,19.975-4.883s-19.994-6.473-57.288-5.111c0,0-2.773-5.869-6.691-9.464Z" fill="#263238"/>
            <path id="Path_36630" data-name="Path 36630" d="M74.768,266.1a38.976,38.976,0,0,1-7.512,4.668c4.076-6.878,3.459-22.418,2.962-20.2-2.384,10.6-9.049,22.2-11.584,22.773-.018,0-.026.008-.044.008a29.24,29.24,0,0,1-18.151-3.837.063.063,0,0,1,.018-.034c5.258-7.78,5.045-23.579,4.689-22.618-3.859,10.306-11.833,16.325-13.213,16.311h-.008c-5.116-4.894-7.826-9.778-7.095-10.272,5.307-3.6,9.825-12.9,13.9-22.731v-.008c4.03-9.689,6.065-18.907,11.733-27.553,5.188-7.916,15.547-9.414,21.412-5.367,15.39,10.617,6.175,66.291,2.891,68.862" fill="#263238"/>
            <path id="Path_36631" data-name="Path 36631" d="M58.763,197.665c-4.266,1-7.776,4.917-10.01,8.53-2.971,4.8-4.93,10.243-7.381,15.324a106.713,106.713,0,0,1-18.59,27.327.187.187,0,0,0,.254.273c8.276-6.235,13.951-15.186,18.6-24.388,2.377-4.7,4.244-9.626,6.492-14.388a31.942,31.942,0,0,1,4.545-7.314,19.709,19.709,0,0,1,6.366-4.637.4.4,0,0,0-.277-.727" fill="#263238"/>
            <path id="Path_36632" data-name="Path 36632" d="M116.284,214.394l-10.855,26.683a1,1,0,0,0,.7,1.6l14.274,2a2.335,2.335,0,0,0,2.187-1.193L133.447,216.8a1,1,0,0,0-.7-1.6l-14.274-2a2.329,2.329,0,0,0-2.186,1.193" fill="#37474f"/>
            <path id="Path_36633" data-name="Path 36633" d="M117.98,214.617,107.126,241.3a1,1,0,0,0,.7,1.6l14.274,2a2.335,2.335,0,0,0,2.187-1.193l10.854-26.683a1,1,0,0,0-.7-1.6l-14.274-2a2.331,2.331,0,0,0-2.187,1.193" fill="#455a64"/>
            <path id="Path_36634" data-name="Path 36634" d="M121.716,216.43a1.224,1.224,0,1,1-1.012-1.406,1.225,1.225,0,0,1,1.012,1.406" fill="#263238"/>
            <path id="Path_36635" data-name="Path 36635" d="M64.391,249.819c5.5,18.386,20.279,43.4,27.758,44.621,3.558.58,9.8,2.383,15.088-1.014,11.546-7.415,22.635-23.237,25.839-32.766,1.139-3.389-14.671-13.462-17.6-11-6.848,5.764-15.6,17.773-16.629,17.54-3.792-.865-16.924-15.6-26.079-25.956-11.114-12.578-10.573,1.249-8.381,8.576" fill="#d3766a"/>
            <path id="Path_36636" data-name="Path 36636" d="M136.184,242.732c-.736-7.336-2.051-9.106.616-15.628,1.749-4.279-.232-7.233-3.913-4.139-6.021,5.059-7.059,14.723-6.454,18.178Z" fill="#d3766a"/>
            <path id="Path_36637" data-name="Path 36637" d="M131.795,263.57s4.628-9.378,4.617-17.274c-.008-5.46-1.349-17.336-15.4-25.6-3.332-1.959-9.469-2.388-5.19,2.788,3.04,3.678,6.079,5.091,7.457,7.552,0,0-7.871.38-9.7,3.795a71.32,71.32,0,0,0-4.153,9.264,14.919,14.919,0,0,0,1.664.933s-1.616,3.251.193,8.474Z" fill="#d3766a"/>
            <path id="Path_36638" data-name="Path 36638" d="M135.573,241.086c-1.885-2.153-5.956-6.65-10.566-9.17-5.12-2.8-15.738-6.811-17.766-3.01-1.486,2.788,2.433,4.676,2.433,4.676s-4.738-.734-5.53,2.078c-.722,2.562,2.4,3.841,2.4,3.841s-2.951.049-3.171,2.651c-.265,3.129,5.963,2.512,8.433,5.913.555.764,23.769-6.979,23.769-6.979" fill="#d3766a"/>
            <path id="Path_36639" data-name="Path 36639" d="M122.952,237.82a23.242,23.242,0,0,0-13.175-4.3c-.12,0-.182.1-.072.115a57.319,57.319,0,0,1,13.221,4.236c.029.014.05-.029.026-.048" fill="#263238"/>
            <path id="Path_36640" data-name="Path 36640" d="M119.976,242.907a26.1,26.1,0,0,0-13.409-3.51c-.119.007-.175.1-.064.12a61.376,61.376,0,0,1,13.45,3.44c.029.012.048-.033.023-.05" fill="#263238"/>
            <path id="Path_36641" data-name="Path 36641" d="M132.166,267.856s-18,25.321-26.536,27.287-13.267.531-16.2-.37a8.193,8.193,0,0,1-2.944-2.009c-7.263-7.024-18.741-29.742-22.92-42.17-3.134-9.342-1.462-17.122,4.879-13.587a22.8,22.8,0,0,1,5.609,4.9c10.805,12.209,23.672,24.225,24.406,23.969S108,255.431,108,255.431Z" fill="#00a599"/>
            <path id="Path_36642" data-name="Path 36642" d="M127.983,272.331c-.842-.649-9.037-5.341-10.839-6.322s-9.131-5.062-11.072-5.919a.074.074,0,0,0-.075.128c1.746,1.2,9.127,5.34,10.943,6.377s10.022,5.5,10.989,5.865c.081.031.111-.085.054-.129" fill="#263238"/>
            <g id="Group_15287" data-name="Group 15287" opacity="0.1">
              <g id="Group_15286" data-name="Group 15286">
                <g id="Group_15285" data-name="Group 15285" clip-path="url(#clip-path-8)">
                  <path id="Path_36643" data-name="Path 36643" d="M111.7,291.52c-2.26,1.89-4.35,3.23-6.07,3.62-8.52,1.97-13.26.53-16.19-.37a7.993,7.993,0,0,1-2.95-2.01c-7.26-7.02-18.74-29.74-22.92-42.17-2.84-8.47-1.73-15.65,3.22-14.28,11.31,13.81,32.8,40.28,44.91,55.21"/>
                </g>
              </g>
            </g>
            <path id="Path_36644" data-name="Path 36644" d="M79.751,276.589l1.866,18.849-56.23,1.12S38.429,249.19,48.619,238.7c6.894-7.1,14.748-6.344,19.627-1.124,1.234,1.321,14.081,16.969,15.473,24.655,1.212,6.781-3.968,14.358-3.968,14.358" fill="#00a599"/>
            <path id="Path_36645" data-name="Path 36645" d="M73.172,274.38a50.3,50.3,0,0,0-7.387.978c-1.207.269-2.393.592-3.579.942-.591.174-1.183.328-1.78.479a7.946,7.946,0,0,1-1.9.3.044.044,0,0,0,0,.088,13.38,13.38,0,0,0,1.824.024,13.118,13.118,0,0,0,1.749-.274c1.226-.261,2.44-.579,3.664-.853,2.468-.552,4.936-1.1,7.44-1.477.115-.017.092-.213-.025-.2" fill="#263238"/>
            <path id="Path_36646" data-name="Path 36646" d="M77.546,276.486a34.3,34.3,0,0,0-4.859-.437,23.069,23.069,0,0,0-2.436.112c-.389.036-.777.081-1.164.131-.426.056-.848.184-1.275.232-.044.005-.047.092,0,.088.4-.03.81.024,1.214.024s.81,0,1.216,0c.812,0,1.622.008,2.434,0,1.626-.022,3.244-.024,4.868.025.088,0,.086-.155,0-.168" fill="#263238"/>
            <path id="Path_36647" data-name="Path 36647" d="M50.268,236.118C30.43,246.189,7.654,268.929,8.989,276.5c1.487,8.428,30-5.811,29.706-7.077-.247-1.076,5.742-10.128,14.305-23.1,8.71-13.192,2.174-12.694-2.732-10.2" fill="#00a599"/>
            <path id="Path_36648" data-name="Path 36648" d="M8.989,276.5c1.742,5.885,10.518,9.829,31.684,21.832,2.929,1.661,20.211-15.855,17.175-17.789-3.825-2.437-19.2-11.064-20.4-11.553C27.3,264.862,7.808,272.5,8.989,276.5" fill="#d3766a"/>
            <path id="Path_36649" data-name="Path 36649" d="M53.663,277.992s9.11,4.656,13.14,8.584a36.169,36.169,0,0,1,8.762,14.918c1.823,6.047,2.051,21.928-2.511,22.792-4.13.781-3.544-15.464-3.544-15.464s2.135,16.662-3.011,16.689-3.392-18.792-3.392-18.792,1.81,17.169-3.5,16.357c-4.013-.613-3.385-17.747-3.385-17.747s1.453,14.767-2.7,14.315c-4.592-.5-5-16.353-5-16.353-10.368-2.929-14.106-8.565-16.288-12.89-.528-1.047,21.436-12.409,21.436-12.409" fill="#d3766a"/>
            <path id="Path_36650" data-name="Path 36650" d="M69.141,303.012c.322,1.948.66,3.918.808,5.888s.226,3.947.189,5.921a33.739,33.739,0,0,1-.874,7.671c.708-4.539.29-11.6.143-13.571s-.2-3.939-.341-5.906c0-.05.067-.049.075,0" fill="#263238"/>
            <path id="Path_36651" data-name="Path 36651" d="M62.018,303.415c.3,2.505.7,4.981.888,7.5s.154,4.9.172,7.416c0,.194-.1.131-.112-.063-.119-2.511-.422-4.824-.57-7.333s-.2-5.026-.438-7.518c0-.039.055-.041.06,0" fill="#263238"/>
            <path id="Path_36652" data-name="Path 36652" d="M55.842,302.661a56.4,56.4,0,0,1,.48,11.573c-.006.192-.132.1-.137-.1-.087-3.851-.128-6.872-.476-11.45-.005-.072.119-.1.133-.023" fill="#263238"/>
            <path id="Path_36653" data-name="Path 36653" d="M58.2,278.495S33.83,297.058,33.571,296.964,9.373,282.81,8.989,276.5s19.441-11.042,28.442-7.556S58.2,278.495,58.2,278.495" fill="#00a599"/>
            <path id="Path_36654" data-name="Path 36654" d="M49.948,275.806c-.953.574-8.648,6.773-10.291,8.155s-8.414,6.972-9.989,8.537a.078.078,0,0,0,.1.122c1.837-1.243,8.682-6.861,10.385-8.236s9.178-7.673,9.9-8.476c.061-.068-.04-.141-.1-.1" fill="#263238"/>
            <path id="Path_36655" data-name="Path 36655" d="M26.591,268c2.092-.331,7.848-.812,12.517,1.531.052.026.028.093-.028.073a38.361,38.361,0,0,0-12.471-1.529c-.055.005-.071-.067-.018-.075" fill="#263238"/>
            <path id="Path_36656" data-name="Path 36656" d="M56.7,279.639l1.461-1.2.009.118-4.833-2.4q-2.421-1.189-4.865-2.325c-3.244-1.546-6.523-3.016-9.852-4.347l-.39-.156.2-.364c1.855-3.384,3.773-6.723,5.839-9.977a111.084,111.084,0,0,1,6.618-9.468q-3.213,4.8-6.136,9.763c-1.944,3.312-3.877,6.638-5.664,10.03L38.9,268.8c3.346,1.361,6.617,2.882,9.847,4.48q2.407,1.227,4.788,2.505c1.591.844,3.15,1.748,4.707,2.653l.1.056-.088.062Z" fill="#263238"/>
            <path id="Path_36657" data-name="Path 36657" d="M46.005,256.729a19.923,19.923,0,0,1,1.873-2.166,15.172,15.172,0,0,1,2.193-1.847,14.338,14.338,0,0,1-1.84,2.2c-.341.332-.684.663-1.056.966a7.5,7.5,0,0,1-1.17.846" fill="#263238"/>
            <path id="Path_36658" data-name="Path 36658" d="M26.518,292.6a20.035,20.035,0,0,1,2.937,1.55,19.766,19.766,0,0,1,2.676,1.976,19.728,19.728,0,0,1-2.937-1.55,20.03,20.03,0,0,1-2.676-1.976" fill="#263238"/>
            <path id="Path_36659" data-name="Path 36659" d="M57.144,235.887c.265,1.48,3.77,8.2,8.284,8.046,2.32-.078,2.366-8.208,2.366-8.208l.115-.6,1.6-8.366-11.391-6.745s-1.05,15.448-.974,15.871" fill="#d3766a"/>
            <path id="Path_36660" data-name="Path 36660" d="M57.734,225.782a17.117,17.117,0,0,0,10.179,9.347l1.6-8.368-11.4-6.747s-.18,2.638-.381,5.768" fill="#263238"/>
            <path id="Path_36661" data-name="Path 36661" d="M81.25,213.925c1.307,14.892-7.465,17.357-10.677,17.635-2.915.253-12.874.743-15.714-13.935s3.673-19.993,10.31-20.924,14.774,2.331,16.081,17.224" fill="#d3766a"/>
            <path id="Path_36662" data-name="Path 36662" d="M78.688,210.587a9.7,9.7,0,0,1-1.016-.184,1.659,1.659,0,0,1-1-.385.531.531,0,0,1-.018-.649,1.319,1.319,0,0,1,1.29-.346,1.942,1.942,0,0,1,1.236.65.568.568,0,0,1-.492.914" fill="#263238"/>
            <path id="Path_36663" data-name="Path 36663" d="M69.127,210.9a9.913,9.913,0,0,0,1-.242,1.668,1.668,0,0,0,.976-.443.532.532,0,0,0-.02-.649,1.319,1.319,0,0,0-1.308-.27,1.937,1.937,0,0,0-1.2.72.568.568,0,0,0,.544.884" fill="#263238"/>
            <path id="Path_36664" data-name="Path 36664" d="M71.227,214.617c-.01-.038-.077.052-.074.094.086,1.015.013,2.191-.889,2.577-.028.012-.022.063.011.056,1.114-.217,1.2-1.779.952-2.727" fill="#263238"/>
            <path id="Path_36665" data-name="Path 36665" d="M70.264,213.6c-1.641-.038-1.6,3.247-.077,3.283,1.5.035,1.453-3.251.077-3.283" fill="#263238"/>
            <path id="Path_36666" data-name="Path 36666" d="M69.621,213.785c-.285.19-.561.521-.907.56-.4.045-.707-.295-.972-.622-.028-.034-.056-.005-.056.038,0,.63.25,1.273.926,1.358.617.077,1.051-.486,1.2-1.121.028-.118-.077-.29-.191-.213" fill="#263238"/>
            <path id="Path_36667" data-name="Path 36667" d="M76.826,214.369c.007-.039.079.048.078.09-.027,1.017.114,2.188,1.037,2.521.028.01.026.061-.009.057-1.124-.152-1.295-1.708-1.106-2.668" fill="#263238"/>
            <path id="Path_36668" data-name="Path 36668" d="M77.729,213.3c1.637-.133,1.783,3.149.267,3.273-1.492.122-1.639-3.161-.267-3.273" fill="#263238"/>
            <path id="Path_36669" data-name="Path 36669" d="M78.423,213.486c.267.162.538.467.849.474.36.007.61-.36.824-.71.022-.037.049-.01.052.033.046.627-.133,1.289-.73,1.437-.545.134-.973-.386-1.15-1.005-.033-.114.047-.294.155-.229" fill="#263238"/>
            <path id="Path_36670" data-name="Path 36670" d="M70.933,222.637c.188.284.357.656.711.765a2.7,2.7,0,0,0,1.124-.02.035.035,0,0,1,.032.06,1.37,1.37,0,0,1-1.38.268,1.082,1.082,0,0,1-.592-1.048c0-.061.078-.066.1-.025" fill="#263238"/>
            <path id="Path_36671" data-name="Path 36671" d="M75.477,218.932s.248,1.515.266,2.232a3.86,3.86,0,0,1-3.784-1.065c-.059-.063.038-.145.1-.1a5.145,5.145,0,0,0,3.135.814c.045-.2-.512-2.58-.4-2.591a6.22,6.22,0,0,1,1.637.327c-.425-3.17-1.355-6.245-1.731-9.408a.1.1,0,0,1,.186-.051,51.747,51.747,0,0,1,2.295,10.054c.069.406-1.42-.1-1.71-.21" fill="#263238"/>
            <path id="Path_36672" data-name="Path 36672" d="M74.763,221.111a3.7,3.7,0,0,1-1.475,1.159,1.662,1.662,0,0,1-1.012.07c-.734-.187-.756-.859-.626-1.435a3.991,3.991,0,0,1,.322-.882,4.8,4.8,0,0,0,2.791,1.088" fill="#263238"/>
            <path id="Path_36673" data-name="Path 36673" d="M73.288,222.271a1.662,1.662,0,0,1-1.012.07c-.733-.187-.756-.859-.626-1.435a1.722,1.722,0,0,1,1.638,1.365" fill="#ff9bbc"/>
            <path id="Path_36674" data-name="Path 36674" d="M55.7,217.21c2.784.4,3.607-5.981,3.607-5.981s11.923-1.817,13.093-11.48a16.38,16.38,0,0,0,8.114,9.1s-.238-10.62-8.617-12.822c0,0-10.378-3.975-16.386,4.212s-1.68,16.7.189,16.97" fill="#263238"/>
            <path id="Path_36675" data-name="Path 36675" d="M72.449,199.033a10.528,10.528,0,0,1-.6,4.41,10.963,10.963,0,0,1-2.31,3.872,9.369,9.369,0,0,1-.816.79l-.418.383c-.15.116-.305.224-.46.333-.312.212-.615.439-.934.639-.331.179-.666.351-1,.519-.168.083-.333.173-.5.249l-.528.194-1.051.384c-.721.188-1.451.338-2.175.477.688-.287,1.391-.5,2.063-.788l.992-.462.495-.23c.159-.087.31-.188.466-.282.307-.191.616-.379.929-.56.3-.2.575-.433.864-.648l.43-.324.391-.371a9.07,9.07,0,0,0,.762-.757,12.579,12.579,0,0,0,2.325-3.6,13.141,13.141,0,0,0,.7-2.059,12.743,12.743,0,0,0,.384-2.165" fill="#263238"/>
            <path id="Path_36676" data-name="Path 36676" d="M57.47,216.681s-3.267-4.663-5.384-3.5.344,7.927,2.831,8.85a2.528,2.528,0,0,0,3.386-1.363Z" fill="#d3766a"/>
            <path id="Path_36677" data-name="Path 36677" d="M52.84,215.1c-.04,0-.048.053-.013.067a6.386,6.386,0,0,1,3.307,3.994,1.4,1.4,0,0,0-2.088-.379c-.046.032,0,.1.047.093a1.555,1.555,0,0,1,1.712.541,7.491,7.491,0,0,1,.821,1.384c.082.155.363.071.3-.108,0-.013-.01-.027-.014-.04.042-2.223-1.689-5.331-4.075-5.552" fill="#263238"/>
            <path id="Path_36678" data-name="Path 36678" d="M55.2,221.479a.642.642,0,1,0,.451-.787.642.642,0,0,0-.451.787" fill="#455a64"/>
            <path id="Path_36679" data-name="Path 36679" d="M55.526,221.39a.3.3,0,1,0,.213-.373.3.3,0,0,0-.213.373" fill="#263238"/>
            <path id="Path_36680" data-name="Path 36680" d="M54.076,220.7a.454.454,0,1,0,.319-.557.454.454,0,0,0-.319.557" fill="#455a64"/>
            <path id="Path_36681" data-name="Path 36681" d="M49.5,236.514s7.317,11.425,15.589,11.268c6.568-.125,7.058-7.889,7.058-7.889a16.078,16.078,0,0,0-12.129-6.375,17.921,17.921,0,0,0-10.518,3" fill="#d3766a"/>
          </g>
        </g>
        <g id="Group_15291" data-name="Group 15291">
          <g id="Group_15290" data-name="Group 15290" clip-path="url(#clip-path-2)">
            <path id="Path_36682" data-name="Path 36682" d="M129.155,181.341a21.734,21.734,0,0,1-36.323,13.751l-10.876,1.6,5.442-9.4a21.742,21.742,0,1,1,41.757-5.945" fill="#fff"/>
            <path id="Path_36683" data-name="Path 36683" d="M129.155,181.341a21.883,21.883,0,0,1-4.388,11.02,24.113,24.113,0,0,1-1.97,2.269,24.388,24.388,0,0,1-2.295,1.942,21.441,21.441,0,0,1-5.244,2.92,21.667,21.667,0,0,1-5.853,1.4,21.3,21.3,0,0,1-3.02.057,19,19,0,0,1-3.009-.313,21.935,21.935,0,0,1-10.756-5.31l.258.079-10.866,1.668-.788.121.4-.7,5.409-9.421-.025.372a21.986,21.986,0,0,1,1.339-19.377,22.24,22.24,0,0,1,6.809-7.25,22.117,22.117,0,0,1,19.109-2.573,22.2,22.2,0,0,1,8.384,5.141,21.869,21.869,0,0,1,6.507,17.954m0,0A21.506,21.506,0,0,0,104.5,157.813a21.377,21.377,0,0,0-8.979,3.547,22.4,22.4,0,0,0-6.5,7.1,21.464,21.464,0,0,0-2.76,9.2,21.743,21.743,0,0,0,1.53,9.471l.079.194-.1.178-5.474,9.384-.389-.574,10.887-1.524.15-.021.107.1a21.416,21.416,0,0,0,10.41,5.362,18.746,18.746,0,0,0,2.95.359,21.1,21.1,0,0,0,2.975,0,21.4,21.4,0,0,0,5.806-1.278,20.237,20.237,0,0,0,5.244-2.827,19.5,19.5,0,0,0,4.273-4.162,21.843,21.843,0,0,0,4.453-10.97" fill="#263238"/>
            <path id="Path_36684" data-name="Path 36684" d="M104.988,191.478l-9.285-9.4L98.822,179l5.424,5.49,11.269-17.667,3.7,2.358Z" fill="#00a599"/>
          </g>
        </g>
        <g id="Group_15293" data-name="Group 15293">
          <g id="Group_15292" data-name="Group 15292" clip-path="url(#clip-path-2)">
            <path id="Path_36685" data-name="Path 36685" d="M374.339,339s10.01-35.93,18-48.132,22.9-25.606,22.9-25.606-.349,55.4-40.9,73.738" fill="#00a599"/>
            <path id="Path_36686" data-name="Path 36686" d="M375.056,338.385a171.88,171.88,0,0,0,9.125-17.409,121.649,121.649,0,0,1,4.972-18.893c.042-.115.2-.052.176.063-1.328,5.677-2.873,11.3-4.277,16.962,4.041-8.744,7.882-17.6,12.7-25.866a55.221,55.221,0,0,1,4.64-11.5c.053-.1.227-.049.176.063a73.681,73.681,0,0,0-3.122,8.624,86.038,86.038,0,0,1,7.6-10.506c.175-.206.526.022.353.243-6.435,8.213-10.877,17.555-15.107,27.015a143.722,143.722,0,0,0,12.56-15.7.053.053,0,0,1,.088.06,128.848,128.848,0,0,1-13.45,17.437c-3.081,6.931-6.11,13.891-9.783,20.483,7.34-6.2,12.985-14.23,18.574-21.976a.167.167,0,0,1,.275.19c-5.59,8.5-11.376,16.5-19.419,22.8a89.1,89.1,0,0,1-5.375,8.4.429.429,0,0,1-.706-.485" fill="#263238"/>
            <path id="Path_36687" data-name="Path 36687" d="M371.236,342.236s17.993-33.13,12.766-65.25-10.823-43.558-10.823-43.558-28.283,49.959-1.943,108.808" fill="#00a599"/>
            <path id="Path_36688" data-name="Path 36688" d="M363.85,290.153A156.735,156.735,0,0,0,370.8,316.9c.05-11.788.275-23.576.59-35.362a91.134,91.134,0,0,1-3.4-21.953c-.008-.218.317-.2.335.006a125.069,125.069,0,0,0,3.151,18.891q.411-14.588.95-29.167a.127.127,0,0,1,.254.005c-.015,15.188-.007,30.38-.1,45.571a121.663,121.663,0,0,0,5.187-18.046.054.054,0,0,1,.1.016c-.54,7.094-2.7,13.953-5.31,20.535-.07,9.711-.175,19.42-.392,29.128,3.044-10.323,6.3-20.32,7.176-31.228a.114.114,0,0,1,.228,0c-.239,12.03-3.339,24.24-7.307,35.552a.65.65,0,0,1-.2.285q-.135,5.324-.31,10.645a.4.4,0,0,1-.79-.014q-.21-10.89-.177-21.78a97.574,97.574,0,0,1-7.094-29.82c-.008-.09.144-.108.158-.019" fill="#263238"/>
            <path id="Path_36689" data-name="Path 36689" d="M365.083,285.029a61.9,61.9,0,0,1,1.256,8.753c.005.1-.147.113-.171.02a61.966,61.966,0,0,1-1.48-8.727c-.026-.224.351-.266.4-.046" fill="#263238"/>
            <path id="Path_36690" data-name="Path 36690" d="M375.6,260.812c.017-.1.169-.068.171.026a22.5,22.5,0,0,1-.9,6.037c-.044.16-.275.086-.244-.072.393-1.991.635-3.995.976-5.991" fill="#263238"/>
            <path id="Path_36691" data-name="Path 36691" d="M364.675,344.772s.734-34.582-9.187-51.772-26.376-25.948-26.376-25.948,6.635,60.96,35.563,77.72" fill="#00a599"/>
            <path id="Path_36692" data-name="Path 36692" d="M346.6,315.2a128.42,128.42,0,0,0,13.425,17.018q-2.97-10.608-6.867-20.857c-5.561-4.876-11.077-9.93-14.49-16.6a.094.094,0,0,1,.163-.1c3.668,5.91,8.574,10.639,13.737,15.188a267.628,267.628,0,0,0-13.81-30.074.22.22,0,0,1,.379-.222,164.249,164.249,0,0,1,8.659,15.784c-.93-3.7-1.673-7.477-2.626-11.146a.082.082,0,0,1,.158-.043,62.711,62.711,0,0,1,4.074,14.667,176.177,176.177,0,0,1,8.733,23.666c-.255-5.184-.58-10.347-1.115-15.516-.01-.1.154-.121.173-.024a83.96,83.96,0,0,1,1.5,17.42q2.145,7.73,3.6,15.622c.026.141-.182.2-.217.06-.538-2.2-1.124-4.386-1.721-6.566-.038-.016-.078-.009-.113-.044-5.321-5.33-10.375-11.408-13.7-18.2a.031.031,0,0,1,.054-.032" fill="#263238"/>
            <path id="Path_36693" data-name="Path 36693" d="M335.1,287.058c1.106,1.194,2.119,2.449,3.187,3.679a28.235,28.235,0,0,1,2.857,3.336.057.057,0,0,1-.077.077,16.814,16.814,0,0,1-3.3-3.255,27.981,27.981,0,0,1-2.825-3.715.1.1,0,0,1,.158-.122" fill="#263238"/>
            <path id="Path_36694" data-name="Path 36694" d="M394.147,340.549l-1.25,16.382-3.769,49.518H356.264L352.5,356.931l-1.25-16.382h42.9Z" fill="#455a64"/>
            <path id="Path_36695" data-name="Path 36695" d="M394.147,340.549l-1.25,16.382H352.5l-1.25-16.382h42.9Z" fill="#37474f"/>
            <rect id="Rectangle_27771" data-name="Rectangle 27771" width="48.742" height="12.559" transform="translate(348.325 332.512)" fill="#455a64"/>
          </g>
        </g>
      </g>
    </g>
  </g>
</svg>
