<svg xmlns="http://www.w3.org/2000/svg" width="14" height="14" viewBox="0 0 14 14">
  <path id="Icon_ionic-ios-checkmark-circle" data-name="Icon ionic-ios-checkmark-circle" d="M10.375,3.375a7,7,0,1,0,7,7A7,7,0,0,0,10.375,3.375ZM13.959,8.44l-4.5,4.52h0a.608.608,0,0,1-.39.185.589.589,0,0,1-.394-.192L6.787,11.068a.134.134,0,0,1,0-.192l.6-.6a.13.13,0,0,1,.188,0l1.494,1.494,4.106-4.136a.133.133,0,0,1,.094-.04h0a.122.122,0,0,1,.094.04l.589.609A.133.133,0,0,1,13.959,8.44Z" transform="translate(-3.375 -3.375)" fill="#00a599"/>
</svg>
